<svg width="380" height="455" viewBox="0 0 380 455" fill="none" xmlns="http://www.w3.org/2000/svg">
<g clip-path="url(#clip0_190_1471)">
<path d="M0 24C0 10.7452 10.7452 0 24 0H356C369.255 0 380 10.7452 380 24V455H0V24Z" fill="white"/>
<path d="M44.828 79H57V81H44.828L50.192 86.364L48.778 87.778L41 80L48.778 72.222L50.192 73.636L44.828 79Z" fill="#475569"/>
<path d="M156.24 80.02C156.24 78.66 156.553 77.44 157.18 76.36C157.82 75.28 158.68 74.44 159.76 73.84C160.853 73.2267 162.047 72.92 163.34 72.92C164.82 72.92 166.133 73.2867 167.28 74.02C168.44 74.74 169.28 75.7667 169.8 77.1H167.06C166.7 76.3667 166.2 75.82 165.56 75.46C164.92 75.1 164.18 74.92 163.34 74.92C162.42 74.92 161.6 75.1267 160.88 75.54C160.16 75.9533 159.593 76.5467 159.18 77.32C158.78 78.0933 158.58 78.9933 158.58 80.02C158.58 81.0467 158.78 81.9467 159.18 82.72C159.593 83.4933 160.16 84.0933 160.88 84.52C161.6 84.9333 162.42 85.14 163.34 85.14C164.18 85.14 164.92 84.96 165.56 84.6C166.2 84.24 166.7 83.6933 167.06 82.96H169.8C169.28 84.2933 168.44 85.32 167.28 86.04C166.133 86.76 164.82 87.12 163.34 87.12C162.033 87.12 160.84 86.82 159.76 86.22C158.68 85.6067 157.82 84.76 157.18 83.68C156.553 82.6 156.24 81.38 156.24 80.02ZM171.109 81.44C171.109 80.3333 171.335 79.3533 171.789 78.5C172.255 77.6467 172.882 76.9867 173.669 76.52C174.469 76.04 175.349 75.8 176.309 75.8C177.175 75.8 177.929 75.9733 178.569 76.32C179.222 76.6533 179.742 77.0733 180.129 77.58V75.98H182.429V87H180.129V85.36C179.742 85.88 179.215 86.3133 178.549 86.66C177.882 87.0067 177.122 87.18 176.269 87.18C175.322 87.18 174.455 86.94 173.669 86.46C172.882 85.9667 172.255 85.2867 171.789 84.42C171.335 83.54 171.109 82.5467 171.109 81.44ZM180.129 81.48C180.129 80.72 179.969 80.06 179.649 79.5C179.342 78.94 178.935 78.5133 178.429 78.22C177.922 77.9267 177.375 77.78 176.789 77.78C176.202 77.78 175.655 77.9267 175.149 78.22C174.642 78.5 174.229 78.92 173.909 79.48C173.602 80.0267 173.449 80.68 173.449 81.44C173.449 82.2 173.602 82.8667 173.909 83.44C174.229 84.0133 174.642 84.4533 175.149 84.76C175.669 85.0533 176.215 85.2 176.789 85.2C177.375 85.2 177.922 85.0533 178.429 84.76C178.935 84.4667 179.342 84.04 179.649 83.48C179.969 82.9067 180.129 82.24 180.129 81.48ZM187.103 77.58C187.437 77.02 187.877 76.5867 188.423 76.28C188.983 75.96 189.643 75.8 190.403 75.8V78.16H189.823C188.93 78.16 188.25 78.3867 187.783 78.84C187.33 79.2933 187.103 80.08 187.103 81.2V87H184.823V75.98H187.103V77.58ZM194.559 77.84V83.94C194.559 84.3533 194.653 84.6533 194.839 84.84C195.039 85.0133 195.373 85.1 195.839 85.1H197.239V87H195.439C194.413 87 193.626 86.76 193.079 86.28C192.533 85.8 192.259 85.02 192.259 83.94V77.84H190.959V75.98H192.259V73.24H194.559V75.98H197.239V77.84H194.559ZM197.981 81.44C197.981 80.3333 198.207 79.3533 198.661 78.5C199.127 77.6467 199.754 76.9867 200.541 76.52C201.341 76.04 202.221 75.8 203.181 75.8C204.047 75.8 204.801 75.9733 205.441 76.32C206.094 76.6533 206.614 77.0733 207.001 77.58V75.98H209.301V87H207.001V85.36C206.614 85.88 206.087 86.3133 205.421 86.66C204.754 87.0067 203.994 87.18 203.141 87.18C202.194 87.18 201.327 86.94 200.541 86.46C199.754 85.9667 199.127 85.2867 198.661 84.42C198.207 83.54 197.981 82.5467 197.981 81.44ZM207.001 81.48C207.001 80.72 206.841 80.06 206.521 79.5C206.214 78.94 205.807 78.5133 205.301 78.22C204.794 77.9267 204.247 77.78 203.661 77.78C203.074 77.78 202.527 77.9267 202.021 78.22C201.514 78.5 201.101 78.92 200.781 79.48C200.474 80.0267 200.321 80.68 200.321 81.44C200.321 82.2 200.474 82.8667 200.781 83.44C201.101 84.0133 201.514 84.4533 202.021 84.76C202.541 85.0533 203.087 85.2 203.661 85.2C204.247 85.2 204.794 85.0533 205.301 84.76C205.807 84.4667 206.214 84.04 206.521 83.48C206.841 82.9067 207.001 82.24 207.001 81.48ZM200.761 74.84C200.867 74.0667 201.121 73.4867 201.521 73.1C201.921 72.7 202.421 72.5 203.021 72.5C203.274 72.5 203.494 72.54 203.681 72.62C203.867 72.7 204.094 72.82 204.361 72.98C204.561 73.1133 204.727 73.2133 204.861 73.28C205.007 73.3467 205.167 73.38 205.341 73.38C205.567 73.38 205.754 73.3133 205.901 73.18C206.061 73.0333 206.161 72.82 206.201 72.54H207.481C207.374 73.3133 207.121 73.9 206.721 74.3C206.321 74.6867 205.821 74.88 205.221 74.88C204.967 74.88 204.741 74.84 204.541 74.76C204.341 74.6667 204.121 74.54 203.881 74.38C203.641 74.2333 203.454 74.1333 203.321 74.08C203.201 74.0133 203.061 73.98 202.901 73.98C202.674 73.98 202.481 74.0533 202.321 74.2C202.174 74.3467 202.081 74.56 202.041 74.84H200.761ZM216.475 87.18C215.435 87.18 214.495 86.9467 213.655 86.48C212.815 86 212.155 85.3333 211.675 84.48C211.195 83.6133 210.955 82.6133 210.955 81.48C210.955 80.36 211.202 79.3667 211.695 78.5C212.189 77.6333 212.862 76.9667 213.715 76.5C214.569 76.0333 215.522 75.8 216.575 75.8C217.629 75.8 218.582 76.0333 219.435 76.5C220.289 76.9667 220.962 77.6333 221.455 78.5C221.949 79.3667 222.195 80.36 222.195 81.48C222.195 82.6 221.942 83.5933 221.435 84.46C220.929 85.3267 220.235 86 219.355 86.48C218.489 86.9467 217.529 87.18 216.475 87.18ZM216.475 85.2C217.062 85.2 217.609 85.06 218.115 84.78C218.635 84.5 219.055 84.08 219.375 83.52C219.695 82.96 219.855 82.28 219.855 81.48C219.855 80.68 219.702 80.0067 219.395 79.46C219.089 78.9 218.682 78.48 218.175 78.2C217.669 77.92 217.122 77.78 216.535 77.78C215.949 77.78 215.402 77.92 214.895 78.2C214.402 78.48 214.009 78.9 213.715 79.46C213.422 80.0067 213.275 80.68 213.275 81.48C213.275 82.6667 213.575 83.5867 214.175 84.24C214.789 84.88 215.555 85.2 216.475 85.2Z" fill="#475569"/>
<path d="M327.09 77C327.325 76.3317 327.789 75.7681 328.4 75.4091C329.011 75.0502 329.729 74.9189 330.427 75.0387C331.125 75.1585 331.759 75.5215 332.215 76.0635C332.671 76.6055 332.921 77.2915 332.92 78C332.92 80 329.92 81 329.92 81M330 85H330.01M340 80C340 85.5228 335.523 90 330 90C324.477 90 320 85.5228 320 80C320 74.4772 324.477 70 330 70C335.523 70 340 74.4772 340 80Z" stroke="#475569" stroke-width="2" stroke-linecap="round" stroke-linejoin="round"/>
<rect x="42" y="328" width="40" height="40" rx="6" fill="#F3F2FF"/>
<g clip-path="url(#clip1_190_1471)">
<path d="M62 351.667V348M62 344.333H62.0091M71.1666 348C71.1666 353.063 67.0626 357.167 62 357.167C56.9374 357.167 52.8333 353.063 52.8333 348C52.8333 342.937 56.9374 338.833 62 338.833C67.0626 338.833 71.1666 342.937 71.1666 348Z" stroke="#6729FF" stroke-width="1.83333" stroke-linecap="round" stroke-linejoin="round"/>
</g>
<path d="M38.624 381.66C39.512 381.66 40.288 381.832 40.952 382.176C41.624 382.512 42.14 383 42.5 383.64C42.868 384.272 43.052 385.012 43.052 385.86C43.052 386.708 42.868 387.444 42.5 388.068C42.14 388.692 41.624 389.172 40.952 389.508C40.288 389.836 39.512 390 38.624 390H35.9V381.66H38.624ZM38.624 388.884C39.6 388.884 40.348 388.62 40.868 388.092C41.388 387.564 41.648 386.82 41.648 385.86C41.648 384.892 41.388 384.136 40.868 383.592C40.348 383.048 39.6 382.776 38.624 382.776H37.268V388.884H38.624ZM50.4678 386.532C50.4678 386.78 50.4518 387.004 50.4198 387.204H45.3678C45.4078 387.732 45.6038 388.156 45.9558 388.476C46.3078 388.796 46.7398 388.956 47.2518 388.956C47.9878 388.956 48.5078 388.648 48.8118 388.032H50.2878C50.0878 388.64 49.7238 389.14 49.1958 389.532C48.6758 389.916 48.0278 390.108 47.2518 390.108C46.6198 390.108 46.0518 389.968 45.5478 389.688C45.0518 389.4 44.6598 389 44.3718 388.488C44.0918 387.968 43.9518 387.368 43.9518 386.688C43.9518 386.008 44.0878 385.412 44.3598 384.9C44.6398 384.38 45.0278 383.98 45.5238 383.7C46.0278 383.42 46.6038 383.28 47.2518 383.28C47.8758 383.28 48.4318 383.416 48.9198 383.688C49.4078 383.96 49.7878 384.344 50.0598 384.84C50.3318 385.328 50.4678 385.892 50.4678 386.532ZM49.0398 386.1C49.0318 385.596 48.8518 385.192 48.4998 384.888C48.1478 384.584 47.7118 384.432 47.1918 384.432C46.7198 384.432 46.3158 384.584 45.9798 384.888C45.6438 385.184 45.4438 385.588 45.3798 386.1H49.0398ZM53.4101 384.504V388.164C53.4101 388.412 53.4661 388.592 53.5781 388.704C53.6981 388.808 53.8981 388.86 54.1781 388.86H55.0181V390H53.9381C53.3221 390 52.8501 389.856 52.5221 389.568C52.1941 389.28 52.0301 388.812 52.0301 388.164V384.504H51.2501V383.388H52.0301V381.744H53.4101V383.388H55.0181V384.504H53.4101ZM55.8229 386.664C55.8229 386 55.9589 385.412 56.2309 384.9C56.5109 384.388 56.8869 383.992 57.3589 383.712C57.8389 383.424 58.3669 383.28 58.9429 383.28C59.4629 383.28 59.9149 383.384 60.2989 383.592C60.6909 383.792 61.0029 384.044 61.2349 384.348V383.388H62.6149V390H61.2349V389.016C61.0029 389.328 60.6869 389.588 60.2869 389.796C59.8869 390.004 59.4309 390.108 58.9189 390.108C58.3509 390.108 57.8309 389.964 57.3589 389.676C56.8869 389.38 56.5109 388.972 56.2309 388.452C55.9589 387.924 55.8229 387.328 55.8229 386.664ZM61.2349 386.688C61.2349 386.232 61.1389 385.836 60.9469 385.5C60.7629 385.164 60.5189 384.908 60.2149 384.732C59.9109 384.556 59.5829 384.468 59.2309 384.468C58.8789 384.468 58.5509 384.556 58.2469 384.732C57.9429 384.9 57.6949 385.152 57.5029 385.488C57.3189 385.816 57.2269 386.208 57.2269 386.664C57.2269 387.12 57.3189 387.52 57.5029 387.864C57.6949 388.208 57.9429 388.472 58.2469 388.656C58.5589 388.832 58.8869 388.92 59.2309 388.92C59.5829 388.92 59.9109 388.832 60.2149 388.656C60.5189 388.48 60.7629 388.224 60.9469 387.888C61.1389 387.544 61.2349 387.144 61.2349 386.688ZM65.7797 381.12V390H64.4117V381.12H65.7797ZM70.9958 383.28C71.4998 383.28 71.9478 383.388 72.3398 383.604C72.7398 383.82 73.0518 384.14 73.2758 384.564C73.5078 384.988 73.6238 385.5 73.6238 386.1V390H72.2678V386.304C72.2678 385.712 72.1198 385.26 71.8238 384.948C71.5278 384.628 71.1238 384.468 70.6118 384.468C70.0998 384.468 69.6918 384.628 69.3878 384.948C69.0918 385.26 68.9438 385.712 68.9438 386.304V390H67.5758V381.12H68.9438V384.156C69.1758 383.876 69.4678 383.66 69.8198 383.508C70.1798 383.356 70.5718 383.28 70.9958 383.28ZM81.4288 386.532C81.4288 386.78 81.4128 387.004 81.3808 387.204H76.3288C76.3688 387.732 76.5648 388.156 76.9168 388.476C77.2688 388.796 77.7008 388.956 78.2128 388.956C78.9488 388.956 79.4688 388.648 79.7728 388.032H81.2487C81.0488 388.64 80.6848 389.14 80.1568 389.532C79.6368 389.916 78.9888 390.108 78.2128 390.108C77.5808 390.108 77.0128 389.968 76.5088 389.688C76.0128 389.4 75.6208 389 75.3328 388.488C75.0528 387.968 74.9128 387.368 74.9128 386.688C74.9128 386.008 75.0488 385.412 75.3208 384.9C75.6008 384.38 75.9888 383.98 76.4848 383.7C76.9888 383.42 77.5648 383.28 78.2128 383.28C78.8368 383.28 79.3928 383.416 79.8808 383.688C80.3688 383.96 80.7488 384.344 81.0208 384.84C81.2928 385.328 81.4288 385.892 81.4288 386.532ZM80.0008 386.1C79.9928 385.596 79.8128 385.192 79.4608 384.888C79.1088 384.584 78.6728 384.432 78.1528 384.432C77.6808 384.432 77.2768 384.584 76.9408 384.888C76.6048 385.184 76.4048 385.588 76.3408 386.1H80.0008ZM85.175 390.108C84.655 390.108 84.187 390.016 83.771 389.832C83.363 389.64 83.039 389.384 82.799 389.064C82.559 388.736 82.431 388.372 82.415 387.972H83.831C83.855 388.252 83.987 388.488 84.227 388.68C84.475 388.864 84.783 388.956 85.151 388.956C85.535 388.956 85.831 388.884 86.039 388.74C86.255 388.588 86.363 388.396 86.363 388.164C86.363 387.916 86.243 387.732 86.003 387.612C85.771 387.492 85.399 387.36 84.887 387.216C84.391 387.08 83.987 386.948 83.675 386.82C83.363 386.692 83.091 386.496 82.859 386.232C82.635 385.968 82.523 385.62 82.523 385.188C82.523 384.836 82.627 384.516 82.835 384.228C83.043 383.932 83.339 383.7 83.723 383.532C84.115 383.364 84.563 383.28 85.067 383.28C85.819 383.28 86.423 383.472 86.879 383.856C87.343 384.232 87.591 384.748 87.623 385.404H86.255C86.231 385.108 86.111 384.872 85.895 384.696C85.679 384.52 85.387 384.432 85.019 384.432C84.659 384.432 84.383 384.5 84.191 384.636C83.999 384.772 83.903 384.952 83.903 385.176C83.903 385.352 83.967 385.5 84.095 385.62C84.223 385.74 84.379 385.836 84.563 385.908C84.747 385.972 85.019 386.056 85.379 386.16C85.859 386.288 86.251 386.42 86.555 386.556C86.867 386.684 87.135 386.876 87.359 387.132C87.583 387.388 87.699 387.728 87.707 388.152C87.707 388.528 87.603 388.864 87.395 389.16C87.187 389.456 86.891 389.688 86.507 389.856C86.131 390.024 85.687 390.108 85.175 390.108Z" fill="#94A3B8"/>
<rect x="125.167" y="328" width="40" height="40" rx="6" fill="#F3F2FF"/>
<path d="M140.583 347.083V343.417C140.583 342.201 141.066 341.035 141.926 340.176C142.785 339.316 143.951 338.833 145.167 338.833C146.382 338.833 147.548 339.316 148.408 340.176C149.267 341.035 149.75 342.201 149.75 343.417V347.083M138.75 347.083H151.583C152.596 347.083 153.417 347.904 153.417 348.917V355.333C153.417 356.346 152.596 357.167 151.583 357.167H138.75C137.737 357.167 136.917 356.346 136.917 355.333V348.917C136.917 347.904 137.737 347.083 138.75 347.083Z" stroke="#6729FF" stroke-width="1.83333" stroke-linecap="round" stroke-linejoin="round"/>
<path d="M124.031 385.716C124.479 385.796 124.859 386.032 125.171 386.424C125.483 386.816 125.639 387.26 125.639 387.756C125.639 388.18 125.527 388.564 125.303 388.908C125.087 389.244 124.771 389.512 124.355 389.712C123.939 389.904 123.455 390 122.903 390H119.567V381.66H122.747C123.315 381.66 123.803 381.756 124.211 381.948C124.619 382.14 124.927 382.4 125.135 382.728C125.343 383.048 125.447 383.408 125.447 383.808C125.447 384.288 125.319 384.688 125.063 385.008C124.807 385.328 124.463 385.564 124.031 385.716ZM120.935 385.164H122.627C123.075 385.164 123.423 385.064 123.671 384.864C123.927 384.656 124.055 384.36 124.055 383.976C124.055 383.6 123.927 383.308 123.671 383.1C123.423 382.884 123.075 382.776 122.627 382.776H120.935V385.164ZM122.783 388.884C123.247 388.884 123.611 388.772 123.875 388.548C124.139 388.324 124.271 388.012 124.271 387.612C124.271 387.204 124.131 386.88 123.851 386.64C123.571 386.4 123.199 386.28 122.735 386.28H120.935V388.884H122.783ZM128.493 381.12V390H127.125V381.12H128.493ZM133.157 390.108C132.533 390.108 131.969 389.968 131.465 389.688C130.961 389.4 130.565 389 130.277 388.488C129.989 387.968 129.845 387.368 129.845 386.688C129.845 386.016 129.993 385.42 130.289 384.9C130.585 384.38 130.989 383.98 131.501 383.7C132.013 383.42 132.585 383.28 133.217 383.28C133.849 383.28 134.421 383.42 134.933 383.7C135.445 383.98 135.849 384.38 136.145 384.9C136.441 385.42 136.589 386.016 136.589 386.688C136.589 387.36 136.437 387.956 136.133 388.476C135.829 388.996 135.413 389.4 134.885 389.688C134.365 389.968 133.789 390.108 133.157 390.108ZM133.157 388.92C133.509 388.92 133.837 388.836 134.141 388.668C134.453 388.5 134.705 388.248 134.897 387.912C135.089 387.576 135.185 387.168 135.185 386.688C135.185 386.208 135.093 385.804 134.909 385.476C134.725 385.14 134.481 384.888 134.177 384.72C133.873 384.552 133.545 384.468 133.193 384.468C132.841 384.468 132.513 384.552 132.209 384.72C131.913 384.888 131.677 385.14 131.501 385.476C131.325 385.804 131.237 386.208 131.237 386.688C131.237 387.4 131.417 387.952 131.777 388.344C132.145 388.728 132.605 388.92 133.157 388.92ZM137.486 386.664C137.486 386 137.622 385.412 137.894 384.9C138.174 384.388 138.55 383.992 139.022 383.712C139.502 383.424 140.034 383.28 140.618 383.28C141.13 383.28 141.582 383.384 141.974 383.592C142.374 383.8 142.682 384.052 142.898 384.348V383.388H144.278V393.144H142.898V389.04C142.682 389.336 142.37 389.588 141.962 389.796C141.554 390.004 141.09 390.108 140.57 390.108C140.002 390.108 139.482 389.964 139.01 389.676C138.546 389.38 138.174 388.972 137.894 388.452C137.622 387.924 137.486 387.328 137.486 386.664ZM142.898 386.688C142.898 386.232 142.802 385.836 142.61 385.5C142.426 385.164 142.182 384.908 141.878 384.732C141.574 384.556 141.246 384.468 140.894 384.468C140.542 384.468 140.214 384.556 139.91 384.732C139.606 384.9 139.358 385.152 139.166 385.488C138.982 385.816 138.89 386.208 138.89 386.664C138.89 387.12 138.982 387.52 139.166 387.864C139.358 388.208 139.606 388.472 139.91 388.656C140.222 388.832 140.55 388.92 140.894 388.92C141.246 388.92 141.574 388.832 141.878 388.656C142.182 388.48 142.426 388.224 142.61 387.888C142.802 387.544 142.898 387.144 142.898 386.688ZM152.062 383.388V390H150.694V389.22C150.478 389.492 150.194 389.708 149.842 389.868C149.498 390.02 149.13 390.096 148.738 390.096C148.218 390.096 147.75 389.988 147.334 389.772C146.926 389.556 146.602 389.236 146.362 388.812C146.13 388.388 146.014 387.876 146.014 387.276V383.388H147.37V387.072C147.37 387.664 147.518 388.12 147.814 388.44C148.11 388.752 148.514 388.908 149.026 388.908C149.538 388.908 149.942 388.752 150.238 388.44C150.542 388.12 150.694 387.664 150.694 387.072V383.388H152.062ZM159.927 386.532C159.927 386.78 159.911 387.004 159.879 387.204H154.827C154.867 387.732 155.063 388.156 155.415 388.476C155.767 388.796 156.199 388.956 156.711 388.956C157.447 388.956 157.967 388.648 158.271 388.032H159.747C159.547 388.64 159.183 389.14 158.655 389.532C158.135 389.916 157.487 390.108 156.711 390.108C156.079 390.108 155.511 389.968 155.007 389.688C154.511 389.4 154.119 389 153.831 388.488C153.551 387.968 153.411 387.368 153.411 386.688C153.411 386.008 153.547 385.412 153.819 384.9C154.099 384.38 154.487 383.98 154.983 383.7C155.487 383.42 156.063 383.28 156.711 383.28C157.335 383.28 157.891 383.416 158.379 383.688C158.867 383.96 159.247 384.344 159.519 384.84C159.791 385.328 159.927 385.892 159.927 386.532ZM158.499 386.1C158.491 385.596 158.311 385.192 157.959 384.888C157.607 384.584 157.171 384.432 156.651 384.432C156.179 384.432 155.775 384.584 155.439 384.888C155.103 385.184 154.903 385.588 154.839 386.1H158.499ZM161.97 382.512C161.722 382.512 161.514 382.428 161.346 382.26C161.178 382.092 161.094 381.884 161.094 381.636C161.094 381.388 161.178 381.18 161.346 381.012C161.514 380.844 161.722 380.76 161.97 380.76C162.21 380.76 162.414 380.844 162.582 381.012C162.75 381.18 162.834 381.388 162.834 381.636C162.834 381.884 162.75 382.092 162.582 382.26C162.414 382.428 162.21 382.512 161.97 382.512ZM162.642 383.388V390H161.274V383.388H162.642ZM167.306 390.108C166.682 390.108 166.118 389.968 165.614 389.688C165.11 389.4 164.714 389 164.426 388.488C164.138 387.968 163.994 387.368 163.994 386.688C163.994 386.016 164.142 385.42 164.438 384.9C164.734 384.38 165.138 383.98 165.65 383.7C166.162 383.42 166.734 383.28 167.366 383.28C167.998 383.28 168.57 383.42 169.082 383.7C169.594 383.98 169.998 384.38 170.294 384.9C170.59 385.42 170.738 386.016 170.738 386.688C170.738 387.36 170.586 387.956 170.282 388.476C169.978 388.996 169.562 389.4 169.034 389.688C168.514 389.968 167.938 390.108 167.306 390.108ZM167.306 388.92C167.658 388.92 167.986 388.836 168.29 388.668C168.602 388.5 168.854 388.248 169.046 387.912C169.238 387.576 169.334 387.168 169.334 386.688C169.334 386.208 169.242 385.804 169.058 385.476C168.874 385.14 168.63 384.888 168.326 384.72C168.022 384.552 167.694 384.468 167.342 384.468C166.99 384.468 166.662 384.552 166.358 384.72C166.062 384.888 165.826 385.14 165.65 385.476C165.474 385.804 165.386 386.208 165.386 386.688C165.386 387.4 165.566 387.952 165.926 388.344C166.294 388.728 166.754 388.92 167.306 388.92Z" fill="#94A3B8"/>
<rect x="217.833" y="328" width="40" height="40" rx="6" fill="#F3F2FF"/>
<path d="M237.833 355.333H237.843M228.667 345.085C231.188 342.83 234.451 341.584 237.833 341.584C241.216 341.584 244.479 342.83 247 345.085M231.417 348.787C233.13 347.108 235.434 346.167 237.833 346.167C240.233 346.167 242.537 347.108 244.25 348.787M234.625 352.06C235.482 351.22 236.634 350.75 237.833 350.75C239.033 350.75 240.185 351.22 241.042 352.06" stroke="#6729FF" stroke-width="1.83333" stroke-linecap="round" stroke-linejoin="round"/>
<path d="M208.065 384.144C208.065 384.568 207.965 384.968 207.765 385.344C207.565 385.72 207.245 386.028 206.805 386.268C206.365 386.5 205.801 386.616 205.113 386.616H203.601V390H202.233V381.66H205.113C205.753 381.66 206.293 381.772 206.733 381.996C207.181 382.212 207.513 382.508 207.729 382.884C207.953 383.26 208.065 383.68 208.065 384.144ZM205.113 385.5C205.633 385.5 206.021 385.384 206.277 385.152C206.533 384.912 206.661 384.576 206.661 384.144C206.661 383.232 206.145 382.776 205.113 382.776H203.601V385.5H205.113ZM210.738 384.348C210.938 384.012 211.202 383.752 211.53 383.568C211.866 383.376 212.262 383.28 212.718 383.28V384.696H212.37C211.834 384.696 211.426 384.832 211.146 385.104C210.874 385.376 210.738 385.848 210.738 386.52V390H209.37V383.388H210.738V384.348ZM216.844 390.108C216.22 390.108 215.656 389.968 215.152 389.688C214.648 389.4 214.252 389 213.964 388.488C213.676 387.968 213.532 387.368 213.532 386.688C213.532 386.016 213.68 385.42 213.976 384.9C214.272 384.38 214.676 383.98 215.188 383.7C215.7 383.42 216.272 383.28 216.904 383.28C217.536 383.28 218.108 383.42 218.62 383.7C219.132 383.98 219.536 384.38 219.832 384.9C220.128 385.42 220.276 386.016 220.276 386.688C220.276 387.36 220.124 387.956 219.82 388.476C219.516 388.996 219.1 389.4 218.572 389.688C218.052 389.968 217.476 390.108 216.844 390.108ZM216.844 388.92C217.196 388.92 217.524 388.836 217.828 388.668C218.14 388.5 218.392 388.248 218.584 387.912C218.776 387.576 218.872 387.168 218.872 386.688C218.872 386.208 218.78 385.804 218.596 385.476C218.412 385.14 218.168 384.888 217.864 384.72C217.56 384.552 217.232 384.468 216.88 384.468C216.528 384.468 216.2 384.552 215.896 384.72C215.6 384.888 215.364 385.14 215.188 385.476C215.012 385.804 214.924 386.208 214.924 386.688C214.924 387.4 215.104 387.952 215.464 388.344C215.832 388.728 216.292 388.92 216.844 388.92ZM224.46 386.652L226.596 390H225.048L223.62 387.756L222.276 390H220.848L222.984 386.748L220.848 383.388H222.396L223.824 385.632L225.168 383.388H226.596L224.46 386.652ZM228.312 382.512C228.064 382.512 227.856 382.428 227.688 382.26C227.52 382.092 227.436 381.884 227.436 381.636C227.436 381.388 227.52 381.18 227.688 381.012C227.856 380.844 228.064 380.76 228.312 380.76C228.552 380.76 228.756 380.844 228.924 381.012C229.092 381.18 229.176 381.388 229.176 381.636C229.176 381.884 229.092 382.092 228.924 382.26C228.756 382.428 228.552 382.512 228.312 382.512ZM228.984 383.388V390H227.616V383.388H228.984ZM238.784 383.28C239.304 383.28 239.768 383.388 240.176 383.604C240.592 383.82 240.916 384.14 241.148 384.564C241.388 384.988 241.508 385.5 241.508 386.1V390H240.152V386.304C240.152 385.712 240.004 385.26 239.708 384.948C239.412 384.628 239.008 384.468 238.496 384.468C237.984 384.468 237.576 384.628 237.272 384.948C236.976 385.26 236.828 385.712 236.828 386.304V390H235.472V386.304C235.472 385.712 235.324 385.26 235.028 384.948C234.732 384.628 234.328 384.468 233.816 384.468C233.304 384.468 232.896 384.628 232.592 384.948C232.296 385.26 232.148 385.712 232.148 386.304V390H230.78V383.388H232.148V384.144C232.372 383.872 232.656 383.66 233 383.508C233.344 383.356 233.712 383.28 234.104 383.28C234.632 383.28 235.104 383.392 235.52 383.616C235.936 383.84 236.256 384.164 236.48 384.588C236.68 384.188 236.992 383.872 237.416 383.64C237.84 383.4 238.296 383.28 238.784 383.28ZM242.793 386.664C242.793 386 242.929 385.412 243.201 384.9C243.481 384.388 243.857 383.992 244.329 383.712C244.809 383.424 245.337 383.28 245.913 383.28C246.433 383.28 246.885 383.384 247.269 383.592C247.661 383.792 247.973 384.044 248.205 384.348V383.388H249.585V390H248.205V389.016C247.973 389.328 247.657 389.588 247.257 389.796C246.857 390.004 246.401 390.108 245.889 390.108C245.321 390.108 244.801 389.964 244.329 389.676C243.857 389.38 243.481 388.972 243.201 388.452C242.929 387.924 242.793 387.328 242.793 386.664ZM248.205 386.688C248.205 386.232 248.109 385.836 247.917 385.5C247.733 385.164 247.489 384.908 247.185 384.732C246.881 384.556 246.553 384.468 246.201 384.468C245.849 384.468 245.521 384.556 245.217 384.732C244.913 384.9 244.665 385.152 244.473 385.488C244.289 385.816 244.197 386.208 244.197 386.664C244.197 387.12 244.289 387.52 244.473 387.864C244.665 388.208 244.913 388.472 245.217 388.656C245.529 388.832 245.857 388.92 246.201 388.92C246.553 388.92 246.881 388.832 247.185 388.656C247.489 388.48 247.733 388.224 247.917 387.888C248.109 387.544 248.205 387.144 248.205 386.688ZM254.166 388.956C254.958 388.956 255.482 388.608 255.738 387.912H257.214C257.038 388.52 256.722 389.02 256.266 389.412C255.818 389.796 255.254 390.02 254.574 390.084V390.576C255.038 390.576 255.414 390.684 255.702 390.9C255.99 391.124 256.134 391.436 256.134 391.836C256.134 392.236 255.99 392.552 255.702 392.784C255.414 393.024 255.05 393.144 254.61 393.144H253.026V392.28H254.334C254.558 392.28 254.726 392.248 254.838 392.184C254.95 392.12 255.006 392.004 255.006 391.836C255.006 391.668 254.95 391.552 254.838 391.488C254.726 391.424 254.558 391.392 254.334 391.392H253.674V390.072C253.13 390.008 252.65 389.828 252.234 389.532C251.818 389.228 251.494 388.836 251.262 388.356C251.038 387.868 250.926 387.312 250.926 386.688C250.926 386.008 251.062 385.412 251.334 384.9C251.614 384.38 251.998 383.98 252.486 383.7C252.974 383.42 253.534 383.28 254.166 383.28C254.966 383.28 255.626 383.472 256.146 383.856C256.674 384.232 257.03 384.772 257.214 385.476H255.738C255.618 385.148 255.426 384.892 255.162 384.708C254.898 384.524 254.566 384.432 254.166 384.432C253.606 384.432 253.158 384.632 252.822 385.032C252.494 385.424 252.33 385.976 252.33 386.688C252.33 387.4 252.494 387.956 252.822 388.356C253.158 388.756 253.606 388.956 254.166 388.956ZM258.121 386.664C258.121 386 258.257 385.412 258.529 384.9C258.809 384.388 259.185 383.992 259.657 383.712C260.137 383.424 260.665 383.28 261.241 383.28C261.761 383.28 262.213 383.384 262.597 383.592C262.989 383.792 263.301 384.044 263.533 384.348V383.388H264.913V390H263.533V389.016C263.301 389.328 262.985 389.588 262.585 389.796C262.185 390.004 261.729 390.108 261.217 390.108C260.649 390.108 260.129 389.964 259.657 389.676C259.185 389.38 258.809 388.972 258.529 388.452C258.257 387.924 258.121 387.328 258.121 386.664ZM263.533 386.688C263.533 386.232 263.437 385.836 263.245 385.5C263.061 385.164 262.817 384.908 262.513 384.732C262.209 384.556 261.881 384.468 261.529 384.468C261.177 384.468 260.849 384.556 260.545 384.732C260.241 384.9 259.993 385.152 259.801 385.488C259.617 385.816 259.525 386.208 259.525 386.664C259.525 387.12 259.617 387.52 259.801 387.864C259.993 388.208 260.241 388.472 260.545 388.656C260.857 388.832 261.185 388.92 261.529 388.92C261.881 388.92 262.209 388.832 262.513 388.656C262.817 388.48 263.061 388.224 263.245 387.888C263.437 387.544 263.533 387.144 263.533 386.688ZM259.789 382.704C259.853 382.24 260.005 381.892 260.245 381.66C260.485 381.42 260.785 381.3 261.145 381.3C261.297 381.3 261.429 381.324 261.541 381.372C261.653 381.42 261.789 381.492 261.949 381.588C262.069 381.668 262.169 381.728 262.249 381.768C262.337 381.808 262.433 381.828 262.537 381.828C262.673 381.828 262.785 381.788 262.873 381.708C262.969 381.62 263.029 381.492 263.053 381.324H263.821C263.757 381.788 263.605 382.14 263.365 382.38C263.125 382.612 262.825 382.728 262.465 382.728C262.313 382.728 262.177 382.704 262.057 382.656C261.937 382.6 261.805 382.524 261.661 382.428C261.517 382.34 261.405 382.28 261.325 382.248C261.253 382.208 261.169 382.188 261.073 382.188C260.937 382.188 260.821 382.232 260.725 382.32C260.637 382.408 260.581 382.536 260.557 382.704H259.789ZM269.578 390.108C268.954 390.108 268.39 389.968 267.886 389.688C267.382 389.4 266.986 389 266.698 388.488C266.41 387.968 266.266 387.368 266.266 386.688C266.266 386.016 266.414 385.42 266.71 384.9C267.006 384.38 267.41 383.98 267.922 383.7C268.434 383.42 269.006 383.28 269.638 383.28C270.27 383.28 270.842 383.42 271.354 383.7C271.866 383.98 272.27 384.38 272.566 384.9C272.862 385.42 273.01 386.016 273.01 386.688C273.01 387.36 272.858 387.956 272.554 388.476C272.25 388.996 271.834 389.4 271.306 389.688C270.786 389.968 270.21 390.108 269.578 390.108ZM269.578 388.92C269.93 388.92 270.258 388.836 270.562 388.668C270.874 388.5 271.126 388.248 271.318 387.912C271.51 387.576 271.606 387.168 271.606 386.688C271.606 386.208 271.514 385.804 271.33 385.476C271.146 385.14 270.902 384.888 270.598 384.72C270.294 384.552 269.966 384.468 269.614 384.468C269.262 384.468 268.934 384.552 268.63 384.72C268.334 384.888 268.098 385.14 267.922 385.476C267.746 385.804 267.658 386.208 267.658 386.688C267.658 387.4 267.838 387.952 268.198 388.344C268.566 388.728 269.026 388.92 269.578 388.92Z" fill="#94A3B8"/>
<rect x="304.5" y="328" width="40" height="40" rx="6" fill="#F3F2FF"/>
<path d="M324.702 338.833H324.298C323.812 338.833 323.346 339.027 323.002 339.37C322.658 339.714 322.465 340.18 322.465 340.667V340.832C322.465 341.153 322.38 341.469 322.219 341.747C322.058 342.026 321.827 342.257 321.548 342.418L321.154 342.647C320.875 342.808 320.559 342.892 320.238 342.892C319.916 342.892 319.6 342.808 319.321 342.647L319.183 342.573C318.763 342.331 318.263 342.265 317.794 342.39C317.324 342.516 316.924 342.822 316.681 343.243L316.479 343.591C316.236 344.012 316.171 344.511 316.296 344.981C316.422 345.45 316.728 345.85 317.148 346.093L317.286 346.185C317.563 346.345 317.793 346.575 317.954 346.851C318.115 347.128 318.201 347.442 318.203 347.762V348.229C318.204 348.552 318.12 348.87 317.959 349.15C317.798 349.43 317.566 349.663 317.286 349.824L317.148 349.907C316.728 350.15 316.422 350.55 316.296 351.02C316.171 351.489 316.236 351.989 316.479 352.409L316.681 352.758C316.924 353.178 317.324 353.484 317.794 353.61C318.263 353.735 318.763 353.669 319.183 353.427L319.321 353.353C319.6 353.192 319.916 353.108 320.238 353.108C320.559 353.108 320.875 353.192 321.154 353.353L321.548 353.583C321.827 353.743 322.058 353.974 322.219 354.253C322.38 354.531 322.465 354.847 322.465 355.168V355.333C322.465 355.82 322.658 356.286 323.002 356.63C323.346 356.974 323.812 357.167 324.298 357.167H324.702C325.188 357.167 325.654 356.974 325.998 356.63C326.342 356.286 326.535 355.82 326.535 355.333V355.168C326.535 354.847 326.62 354.531 326.781 354.253C326.942 353.974 327.173 353.743 327.452 353.583L327.846 353.353C328.125 353.192 328.441 353.108 328.763 353.108C329.084 353.108 329.4 353.192 329.679 353.353L329.817 353.427C330.237 353.669 330.737 353.735 331.206 353.61C331.676 353.484 332.076 353.178 332.319 352.758L332.521 352.4C332.764 351.979 332.829 351.48 332.704 351.01C332.578 350.541 332.272 350.141 331.852 349.898L331.714 349.824C331.434 349.663 331.202 349.43 331.041 349.15C330.88 348.87 330.796 348.552 330.798 348.229V347.771C330.796 347.448 330.88 347.13 331.041 346.85C331.202 346.57 331.434 346.337 331.714 346.176L331.852 346.093C332.272 345.85 332.578 345.45 332.704 344.981C332.829 344.511 332.764 344.012 332.521 343.591L332.319 343.243C332.076 342.822 331.676 342.516 331.206 342.39C330.737 342.265 330.237 342.331 329.817 342.573L329.679 342.647C329.4 342.808 329.084 342.892 328.763 342.892C328.441 342.892 328.125 342.808 327.846 342.647L327.452 342.418C327.173 342.257 326.942 342.026 326.781 341.747C326.62 341.469 326.535 341.153 326.535 340.832V340.667C326.535 340.18 326.342 339.714 325.998 339.37C325.654 339.027 325.188 338.833 324.702 338.833Z" stroke="#6729FF" stroke-width="1.83333" stroke-linecap="round" stroke-linejoin="round"/>
<path d="M324.5 350.75C326.019 350.75 327.25 349.519 327.25 348C327.25 346.481 326.019 345.25 324.5 345.25C322.981 345.25 321.75 346.481 321.75 348C321.75 349.519 322.981 350.75 324.5 350.75Z" stroke="#6729FF" stroke-width="1.83333" stroke-linecap="round" stroke-linejoin="round"/>
<path d="M304.444 385.812C304.444 384.996 304.632 384.264 305.008 383.616C305.392 382.968 305.908 382.464 306.556 382.104C307.212 381.736 307.928 381.552 308.704 381.552C309.592 381.552 310.38 381.772 311.068 382.212C311.764 382.644 312.268 383.26 312.58 384.06H310.936C310.72 383.62 310.42 383.292 310.036 383.076C309.652 382.86 309.208 382.752 308.704 382.752C308.152 382.752 307.66 382.876 307.228 383.124C306.796 383.372 306.456 383.728 306.208 384.192C305.968 384.656 305.848 385.196 305.848 385.812C305.848 386.428 305.968 386.968 306.208 387.432C306.456 387.896 306.796 388.256 307.228 388.512C307.66 388.76 308.152 388.884 308.704 388.884C309.208 388.884 309.652 388.776 310.036 388.56C310.42 388.344 310.72 388.016 310.936 387.576H312.58C312.268 388.376 311.764 388.992 311.068 389.424C310.38 389.856 309.592 390.072 308.704 390.072C307.92 390.072 307.204 389.892 306.556 389.532C305.908 389.164 305.392 388.656 305.008 388.008C304.632 387.36 304.444 386.628 304.444 385.812ZM317.049 390.108C316.425 390.108 315.861 389.968 315.357 389.688C314.853 389.4 314.457 389 314.169 388.488C313.881 387.968 313.737 387.368 313.737 386.688C313.737 386.016 313.885 385.42 314.181 384.9C314.477 384.38 314.881 383.98 315.393 383.7C315.905 383.42 316.477 383.28 317.109 383.28C317.741 383.28 318.313 383.42 318.825 383.7C319.337 383.98 319.741 384.38 320.037 384.9C320.333 385.42 320.481 386.016 320.481 386.688C320.481 387.36 320.329 387.956 320.025 388.476C319.721 388.996 319.305 389.4 318.777 389.688C318.257 389.968 317.681 390.108 317.049 390.108ZM317.049 388.92C317.401 388.92 317.729 388.836 318.033 388.668C318.345 388.5 318.597 388.248 318.789 387.912C318.981 387.576 319.077 387.168 319.077 386.688C319.077 386.208 318.985 385.804 318.801 385.476C318.617 385.14 318.373 384.888 318.069 384.72C317.765 384.552 317.437 384.468 317.085 384.468C316.733 384.468 316.405 384.552 316.101 384.72C315.805 384.888 315.569 385.14 315.393 385.476C315.217 385.804 315.129 386.208 315.129 386.688C315.129 387.4 315.309 387.952 315.669 388.344C316.037 388.728 316.497 388.92 317.049 388.92ZM325.17 383.28C325.69 383.28 326.154 383.388 326.562 383.604C326.978 383.82 327.302 384.14 327.534 384.564C327.766 384.988 327.882 385.5 327.882 386.1V390H326.526V386.304C326.526 385.712 326.378 385.26 326.082 384.948C325.786 384.628 325.382 384.468 324.87 384.468C324.358 384.468 323.95 384.628 323.646 384.948C323.35 385.26 323.202 385.712 323.202 386.304V390H321.834V383.388H323.202V384.144C323.426 383.872 323.71 383.66 324.054 383.508C324.406 383.356 324.778 383.28 325.17 383.28ZM332.399 384.504H331.175V390H329.795V384.504H329.015V383.388H329.795V382.92C329.795 382.16 329.995 381.608 330.395 381.264C330.803 380.912 331.439 380.736 332.303 380.736V381.876C331.887 381.876 331.595 381.956 331.427 382.116C331.259 382.268 331.175 382.536 331.175 382.92V383.388H332.399V384.504ZM334.307 382.512C334.059 382.512 333.851 382.428 333.683 382.26C333.515 382.092 333.431 381.884 333.431 381.636C333.431 381.388 333.515 381.18 333.683 381.012C333.851 380.844 334.059 380.76 334.307 380.76C334.547 380.76 334.751 380.844 334.919 381.012C335.087 381.18 335.171 381.388 335.171 381.636C335.171 381.884 335.087 382.092 334.919 382.26C334.751 382.428 334.547 382.512 334.307 382.512ZM334.979 383.388V390H333.611V383.388H334.979ZM339.439 383.28C339.951 383.28 340.403 383.384 340.795 383.592C341.195 383.792 341.507 384.044 341.731 384.348V383.388H343.111V390.108C343.111 390.716 342.983 391.256 342.727 391.728C342.471 392.208 342.099 392.584 341.611 392.856C341.131 393.128 340.555 393.264 339.883 393.264C338.987 393.264 338.243 393.052 337.651 392.628C337.059 392.212 336.723 391.644 336.643 390.924H337.999C338.103 391.268 338.323 391.544 338.659 391.752C339.003 391.968 339.411 392.076 339.883 392.076C340.435 392.076 340.879 391.908 341.215 391.572C341.559 391.236 341.731 390.748 341.731 390.108V389.004C341.499 389.316 341.183 389.58 340.783 389.796C340.391 390.004 339.943 390.108 339.439 390.108C338.863 390.108 338.335 389.964 337.855 389.676C337.383 389.38 337.007 388.972 336.727 388.452C336.455 387.924 336.319 387.328 336.319 386.664C336.319 386 336.455 385.412 336.727 384.9C337.007 384.388 337.383 383.992 337.855 383.712C338.335 383.424 338.863 383.28 339.439 383.28ZM341.731 386.688C341.731 386.232 341.635 385.836 341.443 385.5C341.259 385.164 341.015 384.908 340.711 384.732C340.407 384.556 340.079 384.468 339.727 384.468C339.375 384.468 339.047 384.556 338.743 384.732C338.439 384.9 338.191 385.152 337.999 385.488C337.815 385.816 337.723 386.208 337.723 386.664C337.723 387.12 337.815 387.52 337.999 387.864C338.191 388.208 338.439 388.472 338.743 388.656C339.055 388.832 339.383 388.92 339.727 388.92C340.079 388.92 340.407 388.832 340.711 388.656C341.015 388.48 341.259 388.224 341.443 387.888C341.635 387.544 341.731 387.144 341.731 386.688Z" fill="#94A3B8"/>
<path d="M39.536 446V433.76H41.606V446H39.536ZM35.432 435.29V433.4H45.71V435.29H35.432ZM48.9701 446.18C48.1301 446.18 47.3681 445.982 46.6841 445.586C46.0001 445.178 45.4541 444.632 45.0461 443.948C44.6501 443.264 44.4521 442.502 44.4521 441.662C44.4521 440.822 44.6501 440.066 45.0461 439.394C45.4541 438.722 46.0001 438.188 46.6841 437.792C47.3681 437.384 48.1301 437.18 48.9701 437.18C49.8221 437.18 50.5901 437.378 51.2741 437.774C51.9581 438.17 52.4981 438.71 52.8941 439.394C53.3021 440.066 53.5061 440.822 53.5061 441.662C53.5061 442.502 53.3021 443.264 52.8941 443.948C52.4981 444.632 51.9581 445.178 51.2741 445.586C50.5901 445.982 49.8221 446.18 48.9701 446.18ZM48.9701 444.272C49.4621 444.272 49.8941 444.164 50.2661 443.948C50.6501 443.72 50.9441 443.408 51.1481 443.012C51.3641 442.616 51.4721 442.166 51.4721 441.662C51.4721 441.158 51.3641 440.714 51.1481 440.33C50.9321 439.946 50.6381 439.646 50.2661 439.43C49.8941 439.202 49.4621 439.088 48.9701 439.088C48.4901 439.088 48.0581 439.202 47.6741 439.43C47.3021 439.646 47.0081 439.946 46.7921 440.33C46.5881 440.714 46.4861 441.158 46.4861 441.662C46.4861 442.166 46.5881 442.616 46.7921 443.012C47.0081 443.408 47.3021 443.72 47.6741 443.948C48.0581 444.164 48.4901 444.272 48.9701 444.272ZM58.7707 446.18C57.9907 446.18 57.2827 445.982 56.6467 445.586C56.0227 445.19 55.5247 444.656 55.1527 443.984C54.7927 443.3 54.6127 442.538 54.6127 441.698C54.6127 440.846 54.7927 440.084 55.1527 439.412C55.5247 438.728 56.0227 438.188 56.6467 437.792C57.2827 437.384 57.9907 437.18 58.7707 437.18C59.4307 437.18 60.0127 437.324 60.5167 437.612C61.0327 437.888 61.4407 438.272 61.7407 438.764C62.0407 439.256 62.1907 439.814 62.1907 440.438V442.922C62.1907 443.546 62.0407 444.104 61.7407 444.596C61.4527 445.088 61.0507 445.478 60.5347 445.766C60.0187 446.042 59.4307 446.18 58.7707 446.18ZM59.0947 444.308C59.5867 444.308 60.0127 444.2 60.3727 443.984C60.7447 443.756 61.0327 443.444 61.2367 443.048C61.4407 442.652 61.5427 442.196 61.5427 441.68C61.5427 441.164 61.4407 440.708 61.2367 440.312C61.0327 439.916 60.7447 439.61 60.3727 439.394C60.0127 439.166 59.5867 439.052 59.0947 439.052C58.6147 439.052 58.1887 439.166 57.8167 439.394C57.4567 439.61 57.1687 439.916 56.9527 440.312C56.7487 440.708 56.6467 441.164 56.6467 441.68C56.6467 442.196 56.7487 442.652 56.9527 443.048C57.1687 443.444 57.4567 443.756 57.8167 443.984C58.1887 444.2 58.6147 444.308 59.0947 444.308ZM63.3967 446H61.4167V443.678L61.7587 441.572L61.4167 439.484V433.04H63.3967V446ZM69.5541 446.18C68.7141 446.18 67.9521 445.982 67.2681 445.586C66.5841 445.178 66.0381 444.632 65.6301 443.948C65.2341 443.264 65.0361 442.502 65.0361 441.662C65.0361 440.822 65.2341 440.066 65.6301 439.394C66.0381 438.722 66.5841 438.188 67.2681 437.792C67.9521 437.384 68.7141 437.18 69.5541 437.18C70.4061 437.18 71.1741 437.378 71.8581 437.774C72.5421 438.17 73.0821 438.71 73.4781 439.394C73.8861 440.066 74.0901 440.822 74.0901 441.662C74.0901 442.502 73.8861 443.264 73.4781 443.948C73.0821 444.632 72.5421 445.178 71.8581 445.586C71.1741 445.982 70.4061 446.18 69.5541 446.18ZM69.5541 444.272C70.0461 444.272 70.4781 444.164 70.8501 443.948C71.2341 443.72 71.5281 443.408 71.7321 443.012C71.9481 442.616 72.0561 442.166 72.0561 441.662C72.0561 441.158 71.9481 440.714 71.7321 440.33C71.5161 439.946 71.2221 439.646 70.8501 439.43C70.4781 439.202 70.0461 439.088 69.5541 439.088C69.0741 439.088 68.6421 439.202 68.2581 439.43C67.8861 439.646 67.5921 439.946 67.3761 440.33C67.1721 440.714 67.0701 441.158 67.0701 441.662C67.0701 442.166 67.1721 442.616 67.3761 443.012C67.5921 443.408 67.8861 443.72 68.2581 443.948C68.6421 444.164 69.0741 444.272 69.5541 444.272ZM78.5627 446.18C78.0827 446.18 77.6207 446.12 77.1767 446C76.7327 445.868 76.3247 445.688 75.9527 445.46C75.5807 445.22 75.2567 444.932 74.9807 444.596L76.2407 443.336C76.5407 443.684 76.8827 443.948 77.2667 444.128C77.6627 444.296 78.1067 444.38 78.5987 444.38C79.0427 444.38 79.3787 444.314 79.6067 444.182C79.8347 444.05 79.9487 443.858 79.9487 443.606C79.9487 443.342 79.8407 443.138 79.6247 442.994C79.4087 442.85 79.1267 442.73 78.7787 442.634C78.4427 442.526 78.0827 442.418 77.6987 442.31C77.3267 442.202 76.9667 442.058 76.6187 441.878C76.2827 441.686 76.0067 441.428 75.7907 441.104C75.5747 440.78 75.4667 440.36 75.4667 439.844C75.4667 439.292 75.5927 438.818 75.8447 438.422C76.1087 438.026 76.4747 437.72 76.9427 437.504C77.4227 437.288 77.9927 437.18 78.6527 437.18C79.3487 437.18 79.9607 437.306 80.4887 437.558C81.0287 437.798 81.4787 438.164 81.8387 438.656L80.5787 439.916C80.3267 439.604 80.0387 439.37 79.7147 439.214C79.3907 439.058 79.0187 438.98 78.5987 438.98C78.2027 438.98 77.8967 439.04 77.6807 439.16C77.4647 439.28 77.3567 439.454 77.3567 439.682C77.3567 439.922 77.4647 440.108 77.6807 440.24C77.8967 440.372 78.1727 440.486 78.5087 440.582C78.8567 440.678 79.2167 440.786 79.5887 440.906C79.9727 441.014 80.3327 441.17 80.6687 441.374C81.0167 441.566 81.2987 441.83 81.5147 442.166C81.7307 442.49 81.8387 442.916 81.8387 443.444C81.8387 444.284 81.5447 444.95 80.9567 445.442C80.3687 445.934 79.5707 446.18 78.5627 446.18ZM91.0346 446.18C90.1946 446.18 89.4326 445.982 88.7486 445.586C88.0646 445.178 87.5186 444.632 87.1106 443.948C86.7146 443.264 86.5166 442.502 86.5166 441.662C86.5166 440.822 86.7146 440.066 87.1106 439.394C87.5186 438.722 88.0646 438.188 88.7486 437.792C89.4326 437.384 90.1946 437.18 91.0346 437.18C91.8866 437.18 92.6546 437.378 93.3386 437.774C94.0226 438.17 94.5626 438.71 94.9586 439.394C95.3666 440.066 95.5706 440.822 95.5706 441.662C95.5706 442.502 95.3666 443.264 94.9586 443.948C94.5626 444.632 94.0226 445.178 93.3386 445.586C92.6546 445.982 91.8866 446.18 91.0346 446.18ZM91.0346 444.272C91.5266 444.272 91.9586 444.164 92.3306 443.948C92.7146 443.72 93.0086 443.408 93.2126 443.012C93.4286 442.616 93.5366 442.166 93.5366 441.662C93.5366 441.158 93.4286 440.714 93.2126 440.33C92.9966 439.946 92.7026 439.646 92.3306 439.43C91.9586 439.202 91.5266 439.088 91.0346 439.088C90.5546 439.088 90.1226 439.202 89.7386 439.43C89.3666 439.646 89.0726 439.946 88.8566 440.33C88.6526 440.714 88.5506 441.158 88.5506 441.662C88.5506 442.166 88.6526 442.616 88.8566 443.012C89.0726 443.408 89.3666 443.72 89.7386 443.948C90.1226 444.164 90.5546 444.272 91.0346 444.272ZM100.043 446.18C99.5631 446.18 99.1011 446.12 98.6571 446C98.2131 445.868 97.8051 445.688 97.4331 445.46C97.0611 445.22 96.7371 444.932 96.4611 444.596L97.7211 443.336C98.0211 443.684 98.3631 443.948 98.7471 444.128C99.1431 444.296 99.5871 444.38 100.079 444.38C100.523 444.38 100.859 444.314 101.087 444.182C101.315 444.05 101.429 443.858 101.429 443.606C101.429 443.342 101.321 443.138 101.105 442.994C100.889 442.85 100.607 442.73 100.259 442.634C99.9231 442.526 99.5631 442.418 99.1791 442.31C98.8071 442.202 98.4471 442.058 98.0991 441.878C97.7631 441.686 97.4871 441.428 97.2711 441.104C97.0551 440.78 96.9471 440.36 96.9471 439.844C96.9471 439.292 97.0731 438.818 97.3251 438.422C97.5891 438.026 97.9551 437.72 98.4231 437.504C98.9031 437.288 99.4731 437.18 100.133 437.18C100.829 437.18 101.441 437.306 101.969 437.558C102.509 437.798 102.959 438.164 103.319 438.656L102.059 439.916C101.807 439.604 101.519 439.37 101.195 439.214C100.871 439.058 100.499 438.98 100.079 438.98C99.6831 438.98 99.3771 439.04 99.1611 439.16C98.9451 439.28 98.8371 439.454 98.8371 439.682C98.8371 439.922 98.9451 440.108 99.1611 440.24C99.3771 440.372 99.6531 440.486 99.9891 440.582C100.337 440.678 100.697 440.786 101.069 440.906C101.453 441.014 101.813 441.17 102.149 441.374C102.497 441.566 102.779 441.83 102.995 442.166C103.211 442.49 103.319 442.916 103.319 443.444C103.319 444.284 103.025 444.95 102.437 445.442C101.849 445.934 101.051 446.18 100.043 446.18ZM112.533 446.18C111.681 446.18 110.907 445.982 110.211 445.586C109.527 445.19 108.987 444.65 108.591 443.966C108.195 443.282 107.997 442.52 107.997 441.68C107.997 440.828 108.195 440.066 108.591 439.394C108.987 438.71 109.527 438.17 110.211 437.774C110.907 437.378 111.681 437.18 112.533 437.18C113.205 437.18 113.829 437.312 114.405 437.576C114.993 437.828 115.491 438.194 115.899 438.674L114.603 439.988C114.351 439.688 114.045 439.466 113.685 439.322C113.337 439.166 112.953 439.088 112.533 439.088C112.041 439.088 111.603 439.202 111.219 439.43C110.847 439.646 110.553 439.946 110.337 440.33C110.133 440.714 110.031 441.164 110.031 441.68C110.031 442.184 110.133 442.634 110.337 443.03C110.553 443.414 110.847 443.72 111.219 443.948C111.603 444.164 112.041 444.272 112.533 444.272C112.953 444.272 113.337 444.2 113.685 444.056C114.045 443.9 114.351 443.672 114.603 443.372L115.899 444.686C115.491 445.166 114.993 445.538 114.405 445.802C113.829 446.054 113.205 446.18 112.533 446.18ZM120.769 446.18C119.989 446.18 119.281 445.982 118.645 445.586C118.021 445.19 117.523 444.656 117.151 443.984C116.791 443.3 116.611 442.538 116.611 441.698C116.611 440.846 116.791 440.084 117.151 439.412C117.523 438.728 118.021 438.188 118.645 437.792C119.281 437.384 119.989 437.18 120.769 437.18C121.429 437.18 122.011 437.324 122.515 437.612C123.031 437.888 123.439 438.272 123.739 438.764C124.039 439.256 124.189 439.814 124.189 440.438V442.922C124.189 443.546 124.039 444.104 123.739 444.596C123.451 445.088 123.049 445.478 122.533 445.766C122.017 446.042 121.429 446.18 120.769 446.18ZM121.093 444.308C121.825 444.308 122.413 444.062 122.857 443.57C123.313 443.078 123.541 442.448 123.541 441.68C123.541 441.164 123.439 440.708 123.235 440.312C123.031 439.916 122.743 439.61 122.371 439.394C122.011 439.166 121.585 439.052 121.093 439.052C120.613 439.052 120.187 439.166 119.815 439.394C119.455 439.61 119.167 439.916 118.951 440.312C118.747 440.708 118.645 441.164 118.645 441.68C118.645 442.196 118.747 442.652 118.951 443.048C119.167 443.444 119.455 443.756 119.815 443.984C120.187 444.2 120.613 444.308 121.093 444.308ZM123.415 446V443.678L123.757 441.572L123.415 439.484V437.36H125.395V446H123.415ZM127.592 446V437.36H129.572V446H127.592ZM129.572 441.194L128.888 440.852C128.888 439.76 129.128 438.878 129.608 438.206C130.1 437.522 130.838 437.18 131.822 437.18C132.254 437.18 132.644 437.258 132.992 437.414C133.34 437.57 133.664 437.822 133.964 438.17L132.668 439.502C132.512 439.334 132.338 439.214 132.146 439.142C131.954 439.07 131.732 439.034 131.48 439.034C130.928 439.034 130.472 439.208 130.112 439.556C129.752 439.904 129.572 440.45 129.572 441.194ZM136.254 446V433.76H138.234V446H136.254ZM134.184 439.16V437.36H140.304V439.16H134.184ZM145.456 446.18C144.616 446.18 143.854 445.982 143.17 445.586C142.486 445.178 141.94 444.632 141.532 443.948C141.136 443.264 140.938 442.502 140.938 441.662C140.938 440.822 141.136 440.066 141.532 439.394C141.94 438.722 142.486 438.188 143.17 437.792C143.854 437.384 144.616 437.18 145.456 437.18C146.308 437.18 147.076 437.378 147.76 437.774C148.444 438.17 148.984 438.71 149.38 439.394C149.788 440.066 149.992 440.822 149.992 441.662C149.992 442.502 149.788 443.264 149.38 443.948C148.984 444.632 148.444 445.178 147.76 445.586C147.076 445.982 146.308 446.18 145.456 446.18ZM145.456 444.272C145.948 444.272 146.38 444.164 146.752 443.948C147.136 443.72 147.43 443.408 147.634 443.012C147.85 442.616 147.958 442.166 147.958 441.662C147.958 441.158 147.85 440.714 147.634 440.33C147.418 439.946 147.124 439.646 146.752 439.43C146.38 439.202 145.948 439.088 145.456 439.088C144.976 439.088 144.544 439.202 144.16 439.43C143.788 439.646 143.494 439.946 143.278 440.33C143.074 440.714 142.972 441.158 142.972 441.662C142.972 442.166 143.074 442.616 143.278 443.012C143.494 443.408 143.788 443.72 144.16 443.948C144.544 444.164 144.976 444.272 145.456 444.272ZM146.77 436.118C146.374 436.118 146.038 436.046 145.762 435.902C145.486 435.758 145.228 435.62 144.988 435.488C144.76 435.344 144.502 435.272 144.214 435.272C143.914 435.272 143.674 435.326 143.494 435.434C143.314 435.542 143.14 435.704 142.972 435.92L141.91 434.858C142.258 434.462 142.606 434.15 142.954 433.922C143.302 433.682 143.71 433.562 144.178 433.562C144.574 433.562 144.91 433.634 145.186 433.778C145.462 433.91 145.72 434.048 145.96 434.192C146.2 434.336 146.458 434.408 146.734 434.408C147.046 434.408 147.292 434.354 147.472 434.246C147.652 434.138 147.82 433.976 147.976 433.76L149.038 434.822C148.69 435.218 148.342 435.536 147.994 435.776C147.646 436.004 147.238 436.118 146.77 436.118ZM155.653 446.18C154.789 446.18 154.009 445.988 153.313 445.604C152.629 445.208 152.083 444.668 151.675 443.984C151.279 443.3 151.081 442.532 151.081 441.68C151.081 440.828 151.279 440.066 151.675 439.394C152.071 438.71 152.605 438.17 153.277 437.774C153.961 437.378 154.717 437.18 155.545 437.18C156.349 437.18 157.057 437.366 157.669 437.738C158.293 438.11 158.779 438.62 159.127 439.268C159.487 439.916 159.667 440.654 159.667 441.482C159.667 441.626 159.655 441.776 159.631 441.932C159.619 442.076 159.595 442.238 159.559 442.418H152.467V440.798H158.533L157.795 441.446C157.771 440.918 157.669 440.474 157.489 440.114C157.309 439.754 157.051 439.478 156.715 439.286C156.391 439.094 155.989 438.998 155.509 438.998C155.005 438.998 154.567 439.106 154.195 439.322C153.823 439.538 153.535 439.844 153.331 440.24C153.127 440.624 153.025 441.086 153.025 441.626C153.025 442.166 153.133 442.64 153.349 443.048C153.565 443.456 153.871 443.774 154.267 444.002C154.663 444.218 155.119 444.326 155.635 444.326C156.079 444.326 156.487 444.248 156.859 444.092C157.243 443.936 157.567 443.708 157.831 443.408L159.091 444.686C158.671 445.178 158.161 445.55 157.561 445.802C156.961 446.054 156.325 446.18 155.653 446.18ZM164.08 446.18C163.6 446.18 163.138 446.12 162.694 446C162.25 445.868 161.842 445.688 161.47 445.46C161.098 445.22 160.774 444.932 160.498 444.596L161.758 443.336C162.058 443.684 162.4 443.948 162.784 444.128C163.18 444.296 163.624 444.38 164.116 444.38C164.56 444.38 164.896 444.314 165.124 444.182C165.352 444.05 165.466 443.858 165.466 443.606C165.466 443.342 165.358 443.138 165.142 442.994C164.926 442.85 164.644 442.73 164.296 442.634C163.96 442.526 163.6 442.418 163.216 442.31C162.844 442.202 162.484 442.058 162.136 441.878C161.8 441.686 161.524 441.428 161.308 441.104C161.092 440.78 160.984 440.36 160.984 439.844C160.984 439.292 161.11 438.818 161.362 438.422C161.626 438.026 161.992 437.72 162.46 437.504C162.94 437.288 163.51 437.18 164.17 437.18C164.866 437.18 165.478 437.306 166.006 437.558C166.546 437.798 166.996 438.164 167.356 438.656L166.096 439.916C165.844 439.604 165.556 439.37 165.232 439.214C164.908 439.058 164.536 438.98 164.116 438.98C163.72 438.98 163.414 439.04 163.198 439.16C162.982 439.28 162.874 439.454 162.874 439.682C162.874 439.922 162.982 440.108 163.198 440.24C163.414 440.372 163.69 440.486 164.026 440.582C164.374 440.678 164.734 440.786 165.106 440.906C165.49 441.014 165.85 441.17 166.186 441.374C166.534 441.566 166.816 441.83 167.032 442.166C167.248 442.49 167.356 442.916 167.356 443.444C167.356 444.284 167.062 444.95 166.474 445.442C165.886 445.934 165.088 446.18 164.08 446.18Z" fill="#64748B"/>
<rect x="35" y="118" width="310" height="186" rx="9.3" fill="#020617"/>
<path d="M62.6991 159.8V145.793H64.8815L65.814 148.59V159.8H62.6991ZM72.3612 159.8L64.1077 149.225L64.8815 145.793L73.1349 156.368L72.3612 159.8ZM72.3612 159.8L71.5279 157.003V145.793H74.6428V159.8H72.3612ZM80.7591 160.018C79.8729 160.018 79.0859 159.84 78.3981 159.483C77.7236 159.112 77.1945 158.61 76.8109 157.975C76.4273 157.327 76.2356 156.586 76.2356 155.753V150.158H79.2711V155.713C79.2711 156.044 79.324 156.328 79.4298 156.566C79.5488 156.804 79.7208 156.989 79.9456 157.122C80.1705 157.254 80.4416 157.32 80.7591 157.32C81.2088 157.32 81.5659 157.181 81.8304 156.903C82.095 156.612 82.2272 156.216 82.2272 155.713V150.158H85.2628V155.733C85.2628 156.579 85.071 157.327 84.6874 157.975C84.3038 158.61 83.7748 159.112 83.1002 159.483C82.4256 159.84 81.6453 160.018 80.7591 160.018ZM86.5734 159.8V145.396H89.609V159.8H86.5734ZM91.1514 159.8V145.396H94.1869V159.8H91.1514ZM98.3878 159.8V157.38H101.681C102.29 157.38 102.766 157.201 103.11 156.844C103.454 156.487 103.626 156.05 103.626 155.534C103.626 155.177 103.546 154.86 103.388 154.582C103.229 154.304 103.004 154.086 102.713 153.927C102.435 153.769 102.091 153.689 101.681 153.689H98.3878V151.328H101.423C101.939 151.328 102.356 151.203 102.673 150.951C102.991 150.687 103.149 150.29 103.149 149.761C103.149 149.245 102.991 148.862 102.673 148.61C102.356 148.346 101.939 148.213 101.423 148.213H98.3878V145.793H102.019C102.918 145.793 103.679 145.958 104.3 146.289C104.935 146.62 105.418 147.063 105.748 147.618C106.079 148.174 106.244 148.789 106.244 149.463C106.244 150.323 105.967 151.051 105.411 151.646C104.856 152.241 104.036 152.651 102.951 152.876L103.03 151.824C104.208 152.049 105.114 152.506 105.748 153.193C106.397 153.881 106.721 154.728 106.721 155.733C106.721 156.5 106.529 157.194 106.145 157.816C105.775 158.424 105.233 158.907 104.518 159.264C103.817 159.621 102.971 159.8 101.979 159.8H98.3878ZM96.007 159.8V145.793H99.0822V159.8H96.007ZM111.872 159.998C110.985 159.998 110.192 159.78 109.491 159.344C108.803 158.907 108.254 158.312 107.844 157.558C107.447 156.804 107.249 155.944 107.249 154.979C107.249 154.013 107.447 153.154 107.844 152.4C108.254 151.646 108.803 151.051 109.491 150.614C110.192 150.178 110.985 149.959 111.872 149.959C112.52 149.959 113.102 150.085 113.618 150.336C114.147 150.588 114.576 150.938 114.907 151.388C115.238 151.824 115.423 152.327 115.463 152.896V157.062C115.423 157.631 115.238 158.14 114.907 158.59C114.59 159.026 114.166 159.37 113.637 159.621C113.108 159.873 112.52 159.998 111.872 159.998ZM112.487 157.261C113.135 157.261 113.657 157.049 114.054 156.626C114.451 156.189 114.649 155.64 114.649 154.979C114.649 154.529 114.557 154.132 114.371 153.789C114.199 153.445 113.948 153.18 113.618 152.995C113.3 152.797 112.93 152.697 112.506 152.697C112.083 152.697 111.706 152.797 111.376 152.995C111.058 153.18 110.8 153.445 110.602 153.789C110.417 154.132 110.324 154.529 110.324 154.979C110.324 155.415 110.417 155.806 110.602 156.149C110.787 156.493 111.045 156.765 111.376 156.963C111.706 157.161 112.077 157.261 112.487 157.261ZM114.53 159.8V157.201L114.986 154.86L114.53 152.519V150.158H117.506V159.8H114.53ZM125.417 159.8V154.304C125.417 153.802 125.258 153.398 124.941 153.094C124.637 152.777 124.246 152.618 123.77 152.618C123.44 152.618 123.149 152.691 122.897 152.836C122.646 152.968 122.448 153.167 122.302 153.431C122.157 153.683 122.084 153.974 122.084 154.304L120.913 153.729C120.913 152.975 121.079 152.314 121.409 151.745C121.74 151.176 122.196 150.74 122.778 150.436C123.373 150.118 124.041 149.959 124.782 149.959C125.496 149.959 126.125 150.131 126.667 150.475C127.222 150.806 127.659 151.249 127.976 151.805C128.294 152.36 128.452 152.968 128.452 153.63V159.8H125.417ZM119.048 159.8V150.158H122.084V159.8H119.048ZM135.977 159.8L132.604 154.8L135.957 150.158H139.35L135.302 155.376L135.402 154.126L139.548 159.8H135.977ZM129.807 159.8V145.396H132.842V159.8H129.807Z" fill="white"/>
<g clip-path="url(#clip2_190_1471)">
<path d="M301.476 150.426C301.724 150.736 301.91 151.108 302.034 151.48C302.158 151.852 302.22 152.286 302.22 152.72C302.22 153.154 302.158 153.588 302.034 153.96C301.91 154.332 301.724 154.704 301.476 155.014C301.166 155.448 301.228 156.068 301.662 156.378C302.096 156.688 302.716 156.626 303.026 156.192C303.398 155.696 303.646 155.2 303.894 154.58C304.142 153.96 304.204 153.34 304.204 152.72C304.204 152.1 304.08 151.48 303.894 150.86C303.708 150.302 303.398 149.744 303.026 149.248C302.716 148.814 302.096 148.752 301.662 149.062C301.228 149.372 301.166 149.992 301.476 150.426Z" fill="#FAFAFA"/>
<path d="M304.886 148.628C305.63 149.806 306.064 151.232 306.064 152.72C306.064 154.208 305.63 155.634 304.886 156.812C304.576 157.246 304.762 157.866 305.196 158.176C305.692 158.486 306.25 158.3 306.56 157.866C307.49 156.378 308.048 154.642 308.048 152.72C308.048 150.86 307.49 149.062 306.56 147.574C306.25 147.14 305.63 146.954 305.196 147.264C304.762 147.574 304.576 148.132 304.886 148.628Z" fill="#FAFAFA"/>
<path d="M308.482 146.768C309.536 148.504 310.094 150.55 310.094 152.72C310.094 154.89 309.474 156.936 308.482 158.672C308.234 159.168 308.358 159.726 308.854 160.036C309.35 160.284 309.908 160.16 310.218 159.664C311.458 157.618 312.14 155.262 312.14 152.72C312.14 150.178 311.458 147.822 310.218 145.776C309.97 145.28 309.35 145.156 308.854 145.404C308.358 145.714 308.234 146.272 308.482 146.768Z" fill="#FAFAFA"/>
<path d="M312.078 144.908C313.38 147.202 314.186 149.868 314.186 152.72C314.186 155.572 313.442 158.238 312.078 160.532C311.83 161.028 311.954 161.586 312.45 161.896C312.946 162.144 313.504 162.02 313.814 161.524C315.302 158.92 316.17 155.944 316.17 152.72C316.17 149.496 315.302 146.52 313.814 143.916C313.566 143.42 312.946 143.296 312.45 143.544C311.954 143.792 311.83 144.412 312.078 144.908Z" fill="#FAFAFA"/>
</g>
<path d="M64.6661 226.447V213.48H59.942C59.4447 213.48 58.9857 213.748 58.9857 214.436C58.9857 215.125 59.4447 215.393 59.942 215.393H62.7535V226.447H59.942C59.4447 226.447 58.9857 226.715 58.9857 227.404C58.9857 228.092 59.4447 228.36 59.942 228.36H67.4776C67.9749 228.36 68.4339 228.092 68.4339 227.404V222.584C68.4339 222.029 68.1852 221.628 67.4776 221.628C66.7699 221.628 66.5213 222.029 66.5213 222.584V226.447H64.6661Z" fill="#FAFAFA"/>
<path d="M74.6637 221.876H80.0572C80.6884 221.876 81.1283 221.781 81.6064 221.341C82.142 220.843 82.1993 220.327 82.1993 219.639V215.718C82.1993 215.029 82.142 214.513 81.6064 214.016C81.1283 213.576 80.6884 213.48 80.0572 213.48H73.7074C73.2101 213.48 72.7511 213.748 72.7511 214.436C72.7511 215.125 73.2101 215.393 73.7074 215.393H80.2867V219.964H74.9124C73.4779 219.964 72.7511 220.69 72.7511 222.125V228.36H81.243C81.7403 228.36 82.1993 228.092 82.1993 227.404C82.1993 226.715 81.7403 226.447 81.243 226.447H74.6637V221.876Z" fill="#FAFAFA"/>
<path d="M94.0522 215.393V218.567C94.0522 219.639 93.6314 219.964 93.0959 219.964H89.3472C88.8499 219.964 88.3909 220.231 88.3909 220.92C88.3909 221.609 88.8499 221.876 89.3472 221.876H93.0959C93.6314 221.876 94.0522 222.201 94.0522 223.272V226.447H87.4729C86.9756 226.447 86.5166 226.715 86.5166 227.404C86.5166 228.092 86.9756 228.36 87.4729 228.36H94.0522C95.1424 228.36 95.9648 227.538 95.9648 226.447V222.775C95.9648 222.01 95.8118 221.456 95.2189 220.92C95.8118 220.384 95.9648 219.83 95.9648 219.065V215.393C95.9648 214.302 95.1424 213.48 94.0522 213.48H87.4729C86.9756 213.48 86.5166 213.748 86.5166 214.436C86.5166 215.125 86.9756 215.393 87.4729 215.393H94.0522Z" fill="#FAFAFA"/>
<path d="M103.151 221.589V214.436C103.151 213.958 102.921 213.48 102.195 213.48C101.468 213.48 101.238 213.958 101.238 214.436V223.502H106.861V227.404C106.861 228.016 107.129 228.36 107.818 228.36C108.506 228.36 108.774 228.016 108.774 227.404V223.502C109.271 223.502 109.73 223.234 109.73 222.546C109.73 221.857 109.271 221.589 108.774 221.589V216.062C108.774 215.584 108.544 215.106 107.818 215.106C107.091 215.106 106.861 215.584 106.861 216.062V221.589H103.151Z" fill="#FAFAFA"/>
<path d="M131.619 215.393H136.305C136.802 215.393 137.261 215.125 137.261 214.436C137.261 213.748 136.802 213.48 136.305 213.48H129.706V221.876H135.349V226.447H130.93C130.624 226.447 130.185 226.18 129.917 226.065L129.343 225.816C129.133 225.721 128.961 225.663 128.731 225.663C128.234 225.663 127.813 226.122 127.813 226.62C127.813 227.289 128.387 227.461 128.903 227.691L129.63 228.016C130.108 228.226 130.395 228.36 130.892 228.36H135.138C135.827 228.36 136.324 228.283 136.802 227.71C137.204 227.232 137.261 226.811 137.261 226.218V222.125C137.261 221.456 137.204 220.996 136.668 220.499C136.209 220.059 135.75 219.964 135.138 219.964H131.619V215.393Z" fill="#FAFAFA"/>
<path d="M143.491 215.393C144.046 215.393 144.447 215.01 144.447 214.436C144.447 213.939 144.046 213.48 143.548 213.48H142.401C141.731 213.48 141.578 213.996 141.578 214.436V227.155C141.578 228.035 141.923 228.36 142.822 228.36H149.783C150.644 228.36 151.027 228.054 151.027 227.155V222.871C151.027 221.991 150.835 221.589 149.879 221.589H143.491V215.393ZM149.114 223.502V226.447H143.491V223.502H149.114Z" fill="#FAFAFA"/>
<path d="M162.88 215.393V218.032C162.88 218.874 162.918 218.854 162.287 219.409L159.647 221.685C159.169 222.106 159.15 222.163 159.15 222.794V227.404C159.15 228.016 159.418 228.36 160.106 228.36C160.795 228.36 161.063 228.016 161.063 227.404V223.693C161.063 223.024 161.101 222.986 161.598 222.546L164.276 220.231C164.811 219.772 164.792 219.696 164.792 219.027V213.48H156.3C155.688 213.48 155.344 214.016 155.344 214.436V215.393C155.344 215.813 155.688 216.349 156.3 216.349C156.912 216.349 157.256 215.813 157.256 215.393H162.88Z" fill="#FAFAFA"/>
<path d="M172.935 219.964V215.393H174.732V219.964H172.935ZM171.978 213.48C171.328 213.48 171.022 213.939 171.022 214.436V219.964C170.429 219.964 169.97 220.174 169.626 220.499C169.281 220.824 169.109 221.303 169.109 221.895V226.447C169.109 227.614 169.836 228.36 171.022 228.36H176.645C177.831 228.36 178.558 227.614 178.558 226.447V221.895C178.558 221.303 178.385 220.824 178.041 220.499C177.697 220.174 177.238 219.964 176.645 219.964V214.436C176.645 213.939 176.339 213.48 175.689 213.48H171.978ZM171.022 226.447V221.876H176.645V226.447H171.022Z" fill="#FAFAFA"/>
<path d="M204.176 226.447C203.621 226.447 203.22 226.83 203.22 227.404C203.22 227.92 203.602 228.36 204.176 228.36H205.132C205.706 228.36 206.089 227.92 206.089 227.404V214.436C206.089 213.939 205.668 213.48 205.132 213.48H197.597C197.061 213.48 196.64 213.939 196.64 214.436V219.333C196.64 219.83 197.061 220.289 197.597 220.289H204.176V226.447ZM198.553 218.376V215.393H204.176V218.376H198.553Z" fill="#FAFAFA"/>
<path d="M212.318 213.48C211.266 213.48 210.406 214.341 210.406 215.393V226.447C210.406 227.518 211.228 228.36 212.318 228.36H217.941C219.032 228.36 219.854 227.518 219.854 226.447V215.393C219.854 214.341 218.993 213.48 217.941 213.48H212.318ZM212.318 226.447V215.393H217.941V226.447H212.318Z" fill="#FAFAFA"/>
<path d="M226.084 213.48C225.032 213.48 224.171 214.341 224.171 215.393V226.447C224.171 227.518 224.994 228.36 226.084 228.36H231.707C232.797 228.36 233.619 227.518 233.619 226.447V215.393C233.619 214.341 232.759 213.48 231.707 213.48H226.084ZM226.084 226.447V215.393H231.707V226.447H226.084Z" fill="#FAFAFA"/>
<path d="M239.849 213.48C238.797 213.48 237.937 214.341 237.937 215.393V226.447C237.937 227.518 238.759 228.36 239.849 228.36H245.472C246.562 228.36 247.385 227.518 247.385 226.447V215.393C247.385 214.341 246.524 213.48 245.472 213.48H239.849ZM239.849 226.447V215.393H245.472V226.447H239.849Z" fill="#FAFAFA"/>
<path d="M267.38 213.48C266.328 213.48 265.468 214.341 265.468 215.393V226.447C265.468 227.518 266.29 228.36 267.38 228.36H273.003C274.093 228.36 274.916 227.518 274.916 226.447V215.393C274.916 214.341 274.055 213.48 273.003 213.48H267.38ZM267.38 226.447V215.393H273.003V226.447H267.38Z" fill="#FAFAFA"/>
<path d="M281.146 213.48C280.094 213.48 279.233 214.341 279.233 215.393V226.447C279.233 227.518 280.055 228.36 281.146 228.36H286.769C287.859 228.36 288.681 227.518 288.681 226.447V215.393C288.681 214.341 287.821 213.48 286.769 213.48H281.146ZM281.146 226.447V215.393H286.769V226.447H281.146Z" fill="#FAFAFA"/>
<path d="M294.911 213.48C293.859 213.48 292.998 214.341 292.998 215.393V226.447C292.998 227.518 293.821 228.36 294.911 228.36H300.534C301.624 228.36 302.447 227.518 302.447 226.447V215.393C302.447 214.341 301.586 213.48 300.534 213.48H294.911ZM294.911 226.447V215.393H300.534V226.447H294.911Z" fill="#FAFAFA"/>
<path d="M308.677 213.48C307.625 213.48 306.764 214.341 306.764 215.393V226.447C306.764 227.518 307.586 228.36 308.677 228.36H314.3C315.39 228.36 316.212 227.518 316.212 226.447V215.393C316.212 214.341 315.352 213.48 314.3 213.48H308.677ZM308.677 226.447V215.393H314.3V226.447H308.677Z" fill="#FAFAFA"/>
<path opacity="0.8" d="M63.1106 252.989V253.721H61.6543V258.46H60.7569V253.721H59.2927V252.989H63.1106ZM64.476 253.548C64.3133 253.548 64.1769 253.493 64.0667 253.383C63.9565 253.272 63.9014 253.136 63.9014 252.973C63.9014 252.81 63.9565 252.674 64.0667 252.564C64.1769 252.454 64.3133 252.399 64.476 252.399C64.6334 252.399 64.7673 252.454 64.8775 252.564C64.9877 252.674 65.0428 252.81 65.0428 252.973C65.0428 253.136 64.9877 253.272 64.8775 253.383C64.7673 253.493 64.6334 253.548 64.476 253.548ZM64.9168 254.122V258.46H64.0194V254.122H64.9168ZM67.142 254.855V257.256C67.142 257.418 67.1788 257.536 67.2522 257.61C67.331 257.678 67.4622 257.712 67.6458 257.712H68.1969V258.46H67.4884C67.0843 258.46 66.7747 258.365 66.5595 258.177C66.3443 257.988 66.2368 257.681 66.2368 257.256V254.855H65.7251V254.122H66.2368V253.044H67.142V254.122H68.1969V254.855H67.142ZM72.9521 254.122V258.46H72.0547V257.948C71.913 258.127 71.7267 258.268 71.4958 258.373C71.2701 258.473 71.0287 258.523 70.7716 258.523C70.4305 258.523 70.1235 258.452 69.8506 258.31C69.5829 258.169 69.3704 257.959 69.2129 257.681C69.0607 257.402 68.9846 257.067 68.9846 256.673V254.122H69.8742V256.539C69.8742 256.928 69.9713 257.227 70.1654 257.437C70.3596 257.641 70.6246 257.744 70.9605 257.744C71.2964 257.744 71.5614 257.641 71.7556 257.437C71.955 257.227 72.0547 256.928 72.0547 256.539V254.122H72.9521ZM75.0336 252.635V258.46H74.1362V252.635H75.0336ZM75.9127 256.272C75.9127 255.836 76.0019 255.45 76.1803 255.114C76.364 254.778 76.6107 254.519 76.9203 254.335C77.2352 254.146 77.5815 254.052 77.9594 254.052C78.3005 254.052 78.597 254.12 78.8489 254.256C79.1061 254.388 79.3108 254.553 79.4629 254.752V254.122H80.3682V258.46H79.4629V257.814C79.3108 258.019 79.1035 258.19 78.8411 258.326C78.5787 258.463 78.2795 258.531 77.9436 258.531C77.571 258.531 77.2299 258.436 76.9203 258.247C76.6107 258.053 76.364 257.786 76.1803 257.444C76.0019 257.098 75.9127 256.707 75.9127 256.272ZM79.4629 256.287C79.4629 255.988 79.4 255.728 79.274 255.508C79.1533 255.288 78.9932 255.12 78.7938 255.004C78.5944 254.889 78.3792 254.831 78.1483 254.831C77.9174 254.831 77.7022 254.889 77.5028 255.004C77.3034 255.114 77.1407 255.28 77.0148 255.5C76.894 255.715 76.8337 255.972 76.8337 256.272C76.8337 256.571 76.894 256.833 77.0148 257.059C77.1407 257.284 77.3034 257.458 77.5028 257.578C77.7075 257.694 77.9227 257.751 78.1483 257.751C78.3792 257.751 78.5944 257.694 78.7938 257.578C78.9932 257.463 79.1533 257.295 79.274 257.074C79.4 256.849 79.4629 256.586 79.4629 256.287ZM82.4443 254.752C82.5755 254.532 82.7487 254.361 82.9639 254.241C83.1843 254.115 83.4441 254.052 83.7432 254.052V254.981H83.5149C83.1633 254.981 82.8957 255.07 82.712 255.248C82.5336 255.427 82.4443 255.736 82.4443 256.177V258.46H81.5469V254.122H82.4443V254.752ZM86.3139 256.272C86.3139 255.836 86.4031 255.45 86.5815 255.114C86.7652 254.778 87.0118 254.519 87.3215 254.335C87.6364 254.146 87.9853 254.052 88.3685 254.052C88.6518 254.052 88.93 254.115 89.2029 254.241C89.481 254.361 89.7014 254.524 89.8641 254.729V252.635H90.7694V258.46H89.8641V257.807C89.7172 258.017 89.5125 258.19 89.2501 258.326C88.993 258.463 88.6965 258.531 88.3606 258.531C87.9827 258.531 87.6364 258.436 87.3215 258.247C87.0118 258.053 86.7652 257.786 86.5815 257.444C86.4031 257.098 86.3139 256.707 86.3139 256.272ZM89.8641 256.287C89.8641 255.988 89.8012 255.728 89.6752 255.508C89.5545 255.288 89.3944 255.12 89.195 255.004C88.9956 254.889 88.7804 254.831 88.5495 254.831C88.3186 254.831 88.1034 254.889 87.904 255.004C87.7046 255.114 87.5419 255.28 87.4159 255.5C87.2952 255.715 87.2349 255.972 87.2349 256.272C87.2349 256.571 87.2952 256.833 87.4159 257.059C87.5419 257.284 87.7046 257.458 87.904 257.578C88.1087 257.694 88.3238 257.751 88.5495 257.751C88.7804 257.751 88.9956 257.694 89.195 257.578C89.3944 257.463 89.5545 257.295 89.6752 257.074C89.8012 256.849 89.8641 256.586 89.8641 256.287ZM93.8295 258.531C93.4202 258.531 93.0502 258.439 92.7196 258.255C92.389 258.066 92.1292 257.804 91.9402 257.468C91.7513 257.127 91.6569 256.733 91.6569 256.287C91.6569 255.846 91.7539 255.455 91.9481 255.114C92.1423 254.773 92.4073 254.511 92.7432 254.327C93.0791 254.143 93.4543 254.052 93.8689 254.052C94.2835 254.052 94.6587 254.143 94.9946 254.327C95.3305 254.511 95.5955 254.773 95.7897 255.114C95.9838 255.455 96.0809 255.846 96.0809 256.287C96.0809 256.728 95.9812 257.119 95.7818 257.46C95.5824 257.801 95.3095 258.066 94.9631 258.255C94.622 258.439 94.2441 258.531 93.8295 258.531ZM93.8295 257.751C94.0604 257.751 94.2756 257.696 94.475 257.586C94.6797 257.476 94.845 257.311 94.971 257.09C95.0969 256.87 95.1599 256.602 95.1599 256.287C95.1599 255.972 95.0995 255.707 94.9788 255.492C94.8581 255.272 94.6981 255.106 94.4986 254.996C94.2992 254.886 94.0841 254.831 93.8531 254.831C93.6222 254.831 93.4071 254.886 93.2076 254.996C93.0135 255.106 92.8586 255.272 92.7432 255.492C92.6277 255.707 92.57 255.972 92.57 256.287C92.57 256.754 92.6881 257.116 92.9242 257.374C93.1657 257.626 93.4674 257.751 93.8295 257.751ZM98.7138 255.713C98.7138 255.177 98.8371 254.697 99.0838 254.272C99.3357 253.847 99.6742 253.516 100.099 253.28C100.53 253.039 100.999 252.918 101.508 252.918C102.091 252.918 102.608 253.062 103.059 253.351C103.516 253.634 103.846 254.039 104.051 254.563H102.973C102.831 254.275 102.634 254.06 102.382 253.918C102.13 253.776 101.839 253.705 101.508 253.705C101.146 253.705 100.823 253.787 100.54 253.949C100.257 254.112 100.034 254.346 99.871 254.65C99.7135 254.954 99.6348 255.309 99.6348 255.713C99.6348 256.117 99.7135 256.471 99.871 256.775C100.034 257.08 100.257 257.316 100.54 257.484C100.823 257.647 101.146 257.728 101.508 257.728C101.839 257.728 102.13 257.657 102.382 257.515C102.634 257.374 102.831 257.158 102.973 256.87H104.051C103.846 257.395 103.516 257.799 103.059 258.082C102.608 258.365 102.091 258.507 101.508 258.507C100.994 258.507 100.524 258.389 100.099 258.153C99.6742 257.912 99.3357 257.578 99.0838 257.153C98.8371 256.728 98.7138 256.248 98.7138 255.713ZM104.802 256.272C104.802 255.836 104.892 255.45 105.07 255.114C105.254 254.778 105.5 254.519 105.81 254.335C106.125 254.146 106.471 254.052 106.849 254.052C107.19 254.052 107.487 254.12 107.739 254.256C107.996 254.388 108.2 254.553 108.353 254.752V254.122H109.258V258.46H108.353V257.814C108.2 258.019 107.993 258.19 107.731 258.326C107.468 258.463 107.169 258.531 106.833 258.531C106.461 258.531 106.12 258.436 105.81 258.247C105.5 258.053 105.254 257.786 105.07 257.444C104.892 257.098 104.802 256.707 104.802 256.272ZM108.353 256.287C108.353 255.988 108.29 255.728 108.164 255.508C108.043 255.288 107.883 255.12 107.683 255.004C107.484 254.889 107.269 254.831 107.038 254.831C106.807 254.831 106.592 254.889 106.392 255.004C106.193 255.114 106.03 255.28 105.904 255.5C105.784 255.715 105.723 255.972 105.723 256.272C105.723 256.571 105.784 256.833 105.904 257.059C106.03 257.284 106.193 257.458 106.392 257.578C106.597 257.694 106.812 257.751 107.038 257.751C107.269 257.751 107.484 257.694 107.683 257.578C107.883 257.463 108.043 257.295 108.164 257.074C108.29 256.849 108.353 256.586 108.353 256.287ZM111.334 254.752C111.465 254.532 111.638 254.361 111.854 254.241C112.074 254.115 112.334 254.052 112.633 254.052V254.981H112.405C112.053 254.981 111.785 255.07 111.602 255.248C111.423 255.427 111.334 255.736 111.334 256.177V258.46H110.437V254.122H111.334V254.752ZM114.505 254.855V257.256C114.505 257.418 114.541 257.536 114.615 257.61C114.694 257.678 114.825 257.712 115.009 257.712H115.56V258.46H114.851C114.447 258.46 114.137 258.365 113.922 258.177C113.707 257.988 113.599 257.681 113.599 257.256V254.855H113.088V254.122H113.599V253.044H114.505V254.122H115.56V254.855H114.505ZM116.088 256.272C116.088 255.836 116.177 255.45 116.355 255.114C116.539 254.778 116.786 254.519 117.095 254.335C117.41 254.146 117.756 254.052 118.134 254.052C118.475 254.052 118.772 254.12 119.024 254.256C119.281 254.388 119.486 254.553 119.638 254.752V254.122H120.543V258.46H119.638V257.814C119.486 258.019 119.278 258.19 119.016 258.326C118.754 258.463 118.454 258.531 118.119 258.531C117.746 258.531 117.405 258.436 117.095 258.247C116.786 258.053 116.539 257.786 116.355 257.444C116.177 257.098 116.088 256.707 116.088 256.272ZM119.638 256.287C119.638 255.988 119.575 255.728 119.449 255.508C119.328 255.288 119.168 255.12 118.969 255.004C118.769 254.889 118.554 254.831 118.323 254.831C118.092 254.831 117.877 254.889 117.678 255.004C117.478 255.114 117.316 255.28 117.19 255.5C117.069 255.715 117.009 255.972 117.009 256.272C117.009 256.571 117.069 256.833 117.19 257.059C117.316 257.284 117.478 257.458 117.678 257.578C117.882 257.694 118.098 257.751 118.323 257.751C118.554 257.751 118.769 257.694 118.969 257.578C119.168 257.463 119.328 257.295 119.449 257.074C119.575 256.849 119.638 256.586 119.638 256.287ZM117.182 253.674C117.224 253.369 117.323 253.141 117.481 252.989C117.638 252.831 117.835 252.753 118.071 252.753C118.171 252.753 118.258 252.769 118.331 252.8C118.405 252.831 118.494 252.879 118.599 252.942C118.677 252.994 118.743 253.034 118.796 253.06C118.853 253.086 118.916 253.099 118.984 253.099C119.074 253.099 119.147 253.073 119.205 253.02C119.268 252.963 119.307 252.879 119.323 252.769H119.827C119.785 253.073 119.685 253.304 119.528 253.461C119.37 253.613 119.173 253.69 118.937 253.69C118.837 253.69 118.748 253.674 118.67 253.642C118.591 253.606 118.504 253.556 118.41 253.493C118.315 253.435 118.242 253.396 118.189 253.375C118.142 253.348 118.087 253.335 118.024 253.335C117.935 253.335 117.859 253.364 117.796 253.422C117.738 253.48 117.701 253.564 117.686 253.674H117.182ZM123.603 258.531C123.194 258.531 122.824 258.439 122.493 258.255C122.163 258.066 121.903 257.804 121.714 257.468C121.525 257.127 121.431 256.733 121.431 256.287C121.431 255.846 121.528 255.455 121.722 255.114C121.916 254.773 122.181 254.511 122.517 254.327C122.853 254.143 123.228 254.052 123.643 254.052C124.057 254.052 124.432 254.143 124.768 254.327C125.104 254.511 125.369 254.773 125.563 255.114C125.758 255.455 125.855 255.846 125.855 256.287C125.855 256.728 125.755 257.119 125.555 257.46C125.356 257.801 125.083 258.066 124.737 258.255C124.396 258.439 124.018 258.531 123.603 258.531ZM123.603 257.751C123.834 257.751 124.049 257.696 124.249 257.586C124.453 257.476 124.619 257.311 124.745 257.09C124.871 256.87 124.934 256.602 124.934 256.287C124.934 255.972 124.873 255.707 124.753 255.492C124.632 255.272 124.472 255.106 124.272 254.996C124.073 254.886 123.858 254.831 123.627 254.831C123.396 254.831 123.181 254.886 122.981 254.996C122.787 255.106 122.632 255.272 122.517 255.492C122.401 255.707 122.344 255.972 122.344 256.287C122.344 256.754 122.462 257.116 122.698 257.374C122.939 257.626 123.241 257.751 123.603 257.751Z" fill="white"/>
<path d="M66.195 272.94H64.9228L61.0949 267.148V272.94H59.8227V265.173H61.0949L64.9228 270.953V265.173H66.195V272.94ZM73.4345 266.791V272.94H72.1623V272.215C71.9614 272.468 71.6973 272.668 71.3699 272.817C71.05 272.959 70.7078 273.029 70.3432 273.029C69.8596 273.029 69.4244 272.929 69.0375 272.728C68.6581 272.527 68.3567 272.229 68.1335 271.835C67.9178 271.441 67.8099 270.965 67.8099 270.407V266.791H69.071V270.217C69.071 270.767 69.2086 271.192 69.4839 271.489C69.7592 271.779 70.1349 271.924 70.6111 271.924C71.0872 271.924 71.4629 271.779 71.7382 271.489C72.0209 271.192 72.1623 270.767 72.1623 270.217V266.791H73.4345ZM76.3854 264.682V272.94H75.1132V264.682H76.3854ZM79.328 264.682V272.94H78.0557V264.682H79.328ZM81.6456 265.976C81.415 265.976 81.2215 265.898 81.0653 265.742C80.909 265.586 80.8309 265.392 80.8309 265.161C80.8309 264.931 80.909 264.737 81.0653 264.581C81.2215 264.425 81.415 264.347 81.6456 264.347C81.8688 264.347 82.0585 264.425 82.2148 264.581C82.371 264.737 82.4491 264.931 82.4491 265.161C82.4491 265.392 82.371 265.586 82.2148 265.742C82.0585 265.898 81.8688 265.976 81.6456 265.976ZM82.2706 266.791V272.94H80.9983V266.791H82.2706ZM85.4252 267.829V271.232C85.4252 271.463 85.4773 271.631 85.5814 271.735C85.693 271.831 85.879 271.88 86.1394 271.88H86.9206V272.94H85.9162C85.3433 272.94 84.9044 272.806 84.5993 272.538C84.2943 272.27 84.1418 271.835 84.1418 271.232V267.829H83.4164V266.791H84.1418V265.262H85.4252V266.791H86.9206V267.829H85.4252ZM90.7604 273.04C90.1801 273.04 89.6556 272.91 89.1869 272.65C88.7182 272.382 88.3499 272.01 88.082 271.534C87.8142 271.05 87.6803 270.492 87.6803 269.86C87.6803 269.235 87.8179 268.681 88.0932 268.197C88.3685 267.713 88.7442 267.341 89.2204 267.081C89.6965 266.821 90.2285 266.69 90.8162 266.69C91.404 266.69 91.936 266.821 92.4121 267.081C92.8883 267.341 93.264 267.713 93.5393 268.197C93.8146 268.681 93.9522 269.235 93.9522 269.86C93.9522 270.485 93.8108 271.039 93.5281 271.523C93.2454 272.006 92.8585 272.382 92.3675 272.65C91.8839 272.91 91.3482 273.04 90.7604 273.04ZM90.7604 271.936C91.0878 271.936 91.3928 271.857 91.6756 271.701C91.9657 271.545 92.2001 271.311 92.3786 270.998C92.5572 270.686 92.6465 270.306 92.6465 269.86C92.6465 269.413 92.5609 269.038 92.3898 268.733C92.2187 268.42 91.9918 268.186 91.709 268.03C91.4263 267.873 91.1213 267.795 90.7939 267.795C90.4666 267.795 90.1615 267.873 89.8788 268.03C89.6035 268.186 89.384 268.42 89.2204 268.733C89.0567 269.038 88.9748 269.413 88.9748 269.86C88.9748 270.522 89.1422 271.035 89.477 271.4C89.8193 271.757 90.2471 271.936 90.7604 271.936Z" fill="white"/>
<path opacity="0.8" d="M162.051 252.989L159.997 258.46H158.958L156.895 252.989H157.856L159.477 257.539L161.107 252.989H162.051ZM162.503 256.272C162.503 255.836 162.592 255.45 162.77 255.114C162.954 254.778 163.201 254.519 163.51 254.335C163.825 254.146 164.172 254.052 164.549 254.052C164.891 254.052 165.187 254.12 165.439 254.256C165.696 254.388 165.901 254.553 166.053 254.752V254.122H166.958V258.46H166.053V257.814C165.901 258.019 165.693 258.19 165.431 258.326C165.169 258.463 164.87 258.531 164.534 258.531C164.161 258.531 163.82 258.436 163.51 258.247C163.201 258.053 162.954 257.786 162.77 257.444C162.592 257.098 162.503 256.707 162.503 256.272ZM166.053 256.287C166.053 255.988 165.99 255.728 165.864 255.508C165.743 255.288 165.583 255.12 165.384 255.004C165.184 254.889 164.969 254.831 164.738 254.831C164.507 254.831 164.292 254.889 164.093 255.004C163.893 255.114 163.731 255.28 163.605 255.5C163.484 255.715 163.424 255.972 163.424 256.272C163.424 256.571 163.484 256.833 163.605 257.059C163.731 257.284 163.893 257.458 164.093 257.578C164.297 257.694 164.513 257.751 164.738 257.751C164.969 257.751 165.184 257.694 165.384 257.578C165.583 257.463 165.743 257.295 165.864 257.074C165.99 256.849 166.053 256.586 166.053 256.287ZM169.034 252.635V258.46H168.137V252.635H169.034ZM170.669 253.548C170.506 253.548 170.37 253.493 170.26 253.383C170.15 253.272 170.094 253.136 170.094 252.973C170.094 252.81 170.15 252.674 170.26 252.564C170.37 252.454 170.506 252.399 170.669 252.399C170.827 252.399 170.96 252.454 171.071 252.564C171.181 252.674 171.236 252.81 171.236 252.973C171.236 253.136 171.181 253.272 171.071 253.383C170.96 253.493 170.827 253.548 170.669 253.548ZM171.11 254.122V258.46H170.213V254.122H171.11ZM171.989 256.272C171.989 255.836 172.078 255.45 172.257 255.114C172.44 254.778 172.687 254.519 172.997 254.335C173.312 254.146 173.661 254.052 174.044 254.052C174.327 254.052 174.605 254.115 174.878 254.241C175.156 254.361 175.377 254.524 175.539 254.729V252.635H176.445V258.46H175.539V257.807C175.392 258.017 175.188 258.19 174.925 258.326C174.668 258.463 174.372 258.531 174.036 258.531C173.658 258.531 173.312 258.436 172.997 258.247C172.687 258.053 172.44 257.786 172.257 257.444C172.078 257.098 171.989 256.707 171.989 256.272ZM175.539 256.287C175.539 255.988 175.476 255.728 175.35 255.508C175.23 255.288 175.07 255.12 174.87 255.004C174.671 254.889 174.456 254.831 174.225 254.831C173.994 254.831 173.779 254.889 173.579 255.004C173.38 255.114 173.217 255.28 173.091 255.5C172.97 255.715 172.91 255.972 172.91 256.272C172.91 256.571 172.97 256.833 173.091 257.059C173.217 257.284 173.38 257.458 173.579 257.578C173.784 257.694 173.999 257.751 174.225 257.751C174.456 257.751 174.671 257.694 174.87 257.578C175.07 257.463 175.23 257.295 175.35 257.074C175.476 256.849 175.539 256.586 175.539 256.287ZM177.324 256.272C177.324 255.836 177.413 255.45 177.592 255.114C177.776 254.778 178.022 254.519 178.332 254.335C178.647 254.146 178.993 254.052 179.371 254.052C179.712 254.052 180.009 254.12 180.26 254.256C180.518 254.388 180.722 254.553 180.874 254.752V254.122H181.78V258.46H180.874V257.814C180.722 258.019 180.515 258.19 180.253 258.326C179.99 258.463 179.691 258.531 179.355 258.531C178.983 258.531 178.641 258.436 178.332 258.247C178.022 258.053 177.776 257.786 177.592 257.444C177.413 257.098 177.324 256.707 177.324 256.272ZM180.874 256.287C180.874 255.988 180.811 255.728 180.686 255.508C180.565 255.288 180.405 255.12 180.205 255.004C180.006 254.889 179.791 254.831 179.56 254.831C179.329 254.831 179.114 254.889 178.914 255.004C178.715 255.114 178.552 255.28 178.426 255.5C178.306 255.715 178.245 255.972 178.245 256.272C178.245 256.571 178.306 256.833 178.426 257.059C178.552 257.284 178.715 257.458 178.914 257.578C179.119 257.694 179.334 257.751 179.56 257.751C179.791 257.751 180.006 257.694 180.205 257.578C180.405 257.463 180.565 257.295 180.686 257.074C180.811 256.849 180.874 256.586 180.874 256.287ZM182.659 256.272C182.659 255.836 182.749 255.45 182.927 255.114C183.111 254.778 183.357 254.519 183.667 254.335C183.982 254.146 184.331 254.052 184.714 254.052C184.997 254.052 185.275 254.115 185.548 254.241C185.826 254.361 186.047 254.524 186.21 254.729V252.635H187.115V258.46H186.21V257.807C186.063 258.017 185.858 258.19 185.596 258.326C185.338 258.463 185.042 258.531 184.706 258.531C184.328 258.531 183.982 258.436 183.667 258.247C183.357 258.053 183.111 257.786 182.927 257.444C182.749 257.098 182.659 256.707 182.659 256.272ZM186.21 256.287C186.21 255.988 186.147 255.728 186.021 255.508C185.9 255.288 185.74 255.12 185.54 255.004C185.341 254.889 185.126 254.831 184.895 254.831C184.664 254.831 184.449 254.889 184.249 255.004C184.05 255.114 183.887 255.28 183.761 255.5C183.641 255.715 183.58 255.972 183.58 256.272C183.58 256.571 183.641 256.833 183.761 257.059C183.887 257.284 184.05 257.458 184.249 257.578C184.454 257.694 184.669 257.751 184.895 257.751C185.126 257.751 185.341 257.694 185.54 257.578C185.74 257.463 185.9 257.295 186.021 257.074C186.147 256.849 186.21 256.586 186.21 256.287ZM192.269 256.185C192.269 256.348 192.258 256.495 192.237 256.626H188.923C188.95 256.972 189.078 257.25 189.309 257.46C189.54 257.67 189.823 257.775 190.159 257.775C190.642 257.775 190.983 257.573 191.183 257.169H192.151C192.02 257.568 191.781 257.896 191.434 258.153C191.093 258.405 190.668 258.531 190.159 258.531C189.745 258.531 189.372 258.439 189.041 258.255C188.716 258.066 188.459 257.804 188.27 257.468C188.086 257.127 187.994 256.733 187.994 256.287C187.994 255.841 188.084 255.45 188.262 255.114C188.446 254.773 188.7 254.511 189.026 254.327C189.356 254.143 189.734 254.052 190.159 254.052C190.569 254.052 190.933 254.141 191.253 254.319C191.574 254.498 191.823 254.75 192.001 255.075C192.18 255.395 192.269 255.765 192.269 256.185ZM191.332 255.902C191.327 255.571 191.209 255.306 190.978 255.106C190.747 254.907 190.461 254.807 190.12 254.807C189.81 254.807 189.545 254.907 189.325 255.106C189.104 255.301 188.973 255.566 188.931 255.902H191.332Z" fill="white"/>
<path d="M157.248 265.965V264.804H159.569V272.94H158.286V265.965H157.248ZM165.692 266.69C165.61 266.348 165.461 266.091 165.245 265.92C165.029 265.749 164.728 265.664 164.341 265.664C163.753 265.664 163.314 265.891 163.024 266.344C162.734 266.791 162.582 267.535 162.567 268.576C162.76 268.249 163.043 267.996 163.415 267.818C163.787 267.639 164.189 267.55 164.62 267.55C165.111 267.55 165.543 267.658 165.915 267.873C166.294 268.082 166.588 268.387 166.796 268.788C167.012 269.19 167.12 269.67 167.12 270.228C167.12 270.749 167.016 271.214 166.808 271.623C166.607 272.032 166.305 272.356 165.904 272.594C165.502 272.825 165.018 272.94 164.453 272.94C163.686 272.94 163.084 272.773 162.645 272.438C162.213 272.096 161.908 271.616 161.73 270.998C161.559 270.381 161.473 269.611 161.473 268.688C161.473 265.965 162.433 264.603 164.352 264.603C165.096 264.603 165.68 264.804 166.104 265.206C166.536 265.608 166.789 266.103 166.863 266.69H165.692ZM164.341 268.621C163.887 268.621 163.5 268.759 163.181 269.034C162.868 269.302 162.712 269.692 162.712 270.206C162.712 270.719 162.857 271.128 163.147 271.433C163.445 271.731 163.858 271.88 164.386 271.88C164.855 271.88 165.223 271.735 165.491 271.445C165.766 271.154 165.904 270.767 165.904 270.284C165.904 269.778 165.77 269.376 165.502 269.079C165.241 268.774 164.855 268.621 164.341 268.621ZM172.774 262.405L169.738 274.893H168.488L171.513 262.405H172.774ZM174.913 271.21C175.627 270.593 176.189 270.087 176.598 269.692C177.015 269.291 177.361 268.874 177.636 268.442C177.911 268.011 178.049 267.579 178.049 267.148C178.049 266.702 177.941 266.352 177.725 266.099C177.517 265.846 177.186 265.719 176.732 265.719C176.293 265.719 175.951 265.861 175.705 266.144C175.467 266.419 175.341 266.791 175.326 267.26H174.098C174.12 266.411 174.373 265.764 174.857 265.318C175.348 264.864 175.969 264.637 176.721 264.637C177.532 264.637 178.164 264.86 178.618 265.307C179.079 265.753 179.31 266.348 179.31 267.092C179.31 267.628 179.172 268.145 178.897 268.643C178.629 269.134 178.305 269.577 177.926 269.971C177.554 270.358 177.078 270.808 176.497 271.322L175.995 271.768H179.533V272.828H174.109V271.902L174.913 271.21ZM185.896 265.898H182.157V268.119C182.314 267.911 182.544 267.736 182.849 267.594C183.162 267.453 183.493 267.382 183.842 267.382C184.467 267.382 184.973 267.516 185.36 267.784C185.755 268.052 186.034 268.39 186.197 268.8C186.368 269.209 186.454 269.64 186.454 270.094C186.454 270.645 186.346 271.136 186.13 271.567C185.922 271.991 185.606 272.326 185.182 272.572C184.765 272.817 184.252 272.94 183.642 272.94C182.831 272.94 182.18 272.739 181.689 272.337C181.198 271.936 180.904 271.404 180.807 270.741H182.046C182.128 271.091 182.31 271.37 182.593 271.578C182.875 271.779 183.229 271.88 183.653 271.88C184.181 271.88 184.575 271.72 184.836 271.4C185.104 271.08 185.237 270.656 185.237 270.128C185.237 269.592 185.104 269.183 184.836 268.9C184.568 268.61 184.174 268.465 183.653 268.465C183.288 268.465 182.979 268.558 182.726 268.744C182.481 268.922 182.302 269.168 182.191 269.48H180.985V264.782H185.896V265.898Z" fill="white"/>
<g filter="url(#filter0_b_190_1471)">
<ellipse cx="290.94" cy="263.469" rx="11.5672" ry="11.5672" fill="#FAFAFA" fill-opacity="0.3"/>
</g>
<g filter="url(#filter1_b_190_1471)">
<path d="M316.85 263.469C316.85 269.857 311.671 275.036 305.283 275.036C298.895 275.036 293.716 269.857 293.716 263.469C293.716 257.08 298.895 251.901 305.283 251.901C311.671 251.901 316.85 257.08 316.85 263.469Z" fill="#FAFAFA" fill-opacity="0.7"/>
</g>
<g filter="url(#filter2_b_190_1471)">
<path d="M298.111 254.392C295.434 256.511 293.716 259.789 293.716 263.469C293.716 267.148 295.434 270.426 298.111 272.545C300.789 270.426 302.507 267.148 302.507 263.469C302.507 259.789 300.789 256.511 298.111 254.392Z" fill="#FAFAFA" fill-opacity="0.6"/>
</g>
<path d="M47.0135 20.4V18.336H50.8695V30H48.5655V20.4H47.0135ZM55.6744 26.72C55.7597 27.1893 55.9517 27.552 56.2504 27.808C56.5597 28.0533 56.9704 28.176 57.4824 28.176C58.1437 28.176 58.6237 27.904 58.9224 27.36C59.221 26.8053 59.3704 25.8773 59.3704 24.576C59.125 24.9173 58.7784 25.184 58.3304 25.376C57.893 25.568 57.4184 25.664 56.9064 25.664C56.2237 25.664 55.605 25.5253 55.0504 25.248C54.5064 24.96 54.0744 24.5387 53.7544 23.984C53.4344 23.4187 53.2744 22.736 53.2744 21.936C53.2744 20.752 53.6264 19.8133 54.3304 19.12C55.0344 18.416 55.9944 18.064 57.2104 18.064C58.725 18.064 59.7917 18.5493 60.4104 19.52C61.0397 20.4907 61.3544 21.952 61.3544 23.904C61.3544 25.2907 61.2317 26.4267 60.9864 27.312C60.7517 28.1973 60.341 28.8693 59.7544 29.328C59.1784 29.7867 58.389 30.016 57.3864 30.016C56.597 30.016 55.925 29.8667 55.3704 29.568C54.8157 29.2587 54.389 28.8587 54.0904 28.368C53.8024 27.8667 53.637 27.3173 53.5944 26.72H55.6744ZM57.3704 23.84C57.925 23.84 58.3624 23.6693 58.6824 23.328C59.0024 22.9867 59.1624 22.528 59.1624 21.952C59.1624 21.3227 58.9917 20.8373 58.6504 20.496C58.3197 20.144 57.8664 19.968 57.2904 19.968C56.7144 19.968 56.2557 20.1493 55.9144 20.512C55.5837 20.864 55.4184 21.3333 55.4184 21.92C55.4184 22.4853 55.5784 22.9493 55.8984 23.312C56.229 23.664 56.7197 23.84 57.3704 23.84ZM64.346 30.112C63.9407 30.112 63.6047 29.9893 63.338 29.744C63.082 29.488 62.954 29.1733 62.954 28.8C62.954 28.4267 63.082 28.1173 63.338 27.872C63.6047 27.616 63.9407 27.488 64.346 27.488C64.7407 27.488 65.066 27.616 65.322 27.872C65.578 28.1173 65.706 28.4267 65.706 28.8C65.706 29.1733 65.578 29.488 65.322 29.744C65.066 29.9893 64.7407 30.112 64.346 30.112ZM64.346 23.488C63.9407 23.488 63.6047 23.3653 63.338 23.12C63.082 22.864 62.954 22.5493 62.954 22.176C62.954 21.8027 63.082 21.4933 63.338 21.248C63.6047 20.992 63.9407 20.864 64.346 20.864C64.7407 20.864 65.066 20.992 65.322 21.248C65.578 21.4933 65.706 21.8027 65.706 22.176C65.706 22.5493 65.578 22.864 65.322 23.12C65.066 23.3653 64.7407 23.488 64.346 23.488ZM67.3011 24.016C67.3011 22.1707 67.6318 20.7253 68.2931 19.68C68.9651 18.6347 70.0745 18.112 71.6211 18.112C73.1678 18.112 74.2718 18.6347 74.9331 19.68C75.6051 20.7253 75.9411 22.1707 75.9411 24.016C75.9411 25.872 75.6051 27.328 74.9331 28.384C74.2718 29.44 73.1678 29.968 71.6211 29.968C70.0745 29.968 68.9651 29.44 68.2931 28.384C67.6318 27.328 67.3011 25.872 67.3011 24.016ZM73.7331 24.016C73.7331 23.2267 73.6798 22.5653 73.5731 22.032C73.4771 21.488 73.2745 21.0453 72.9651 20.704C72.6665 20.3627 72.2185 20.192 71.6211 20.192C71.0238 20.192 70.5705 20.3627 70.2611 20.704C69.9625 21.0453 69.7598 21.488 69.6531 22.032C69.5571 22.5653 69.5091 23.2267 69.5091 24.016C69.5091 24.8267 69.5571 25.5093 69.6531 26.064C69.7491 26.608 69.9518 27.0507 70.2611 27.392C70.5705 27.7227 71.0238 27.888 71.6211 27.888C72.2185 27.888 72.6718 27.7227 72.9811 27.392C73.2905 27.0507 73.4931 26.608 73.5891 26.064C73.6851 25.5093 73.7331 24.8267 73.7331 24.016ZM85.0689 20.032L80.8129 30H78.5409L82.8289 20.288H77.3569V18.368H85.0689V20.032Z" fill="#334155"/>
<rect x="290" y="21.8049" width="2.92683" height="3.5122" rx="0.878049" fill="#334155"/>
<rect x="290" y="27.0731" width="2.92683" height="2.92683" rx="0.878049" fill="#334155"/>
<rect x="294.683" y="27.0731" width="2.92683" height="2.92683" rx="0.878049" fill="#334155"/>
<rect x="299.366" y="27.0731" width="2.92683" height="2.92683" rx="0.878049" fill="#334155"/>
<rect x="304.049" y="27.0731" width="2.92683" height="2.92683" rx="0.878049" fill="#334155"/>
<rect x="294.683" y="20.6342" width="2.92683" height="4.68293" rx="0.878049" fill="#334155"/>
<rect x="299.366" y="19.4634" width="2.92683" height="5.85366" rx="0.878049" fill="#334155"/>
<rect x="304.049" y="18" width="2.92683" height="7.31707" rx="0.878049" fill="#334155"/>
<path d="M314.678 22.7787L314.058 22.158C313.799 21.8994 313.839 21.4688 314.144 21.2673C319.56 17.6898 322.684 17.9185 327.622 21.2647C327.922 21.4684 327.96 21.8958 327.703 22.1526L327.078 22.778C326.877 22.9784 326.562 23.0055 326.327 22.8475C322.108 20.0142 319.595 20.0594 315.428 22.8489C315.193 23.0063 314.878 22.9789 314.678 22.7787Z" fill="#334155"/>
<path d="M317.182 25.4614L316.594 24.9326C316.315 24.6811 316.342 24.2338 316.656 24.0275C319.745 21.9983 321.741 21.9309 324.951 24.0279C325.266 24.2336 325.294 24.6815 325.014 24.9332L324.432 25.4569C324.235 25.6347 323.942 25.6551 323.715 25.5162C321.497 24.156 320.111 24.1968 317.891 25.5246C317.665 25.6595 317.377 25.6371 317.182 25.4614Z" fill="#334155"/>
<path d="M320.464 28.8568L319.316 27.7095C319.061 27.4541 319.094 27.0264 319.405 26.8423C320.533 26.1738 321.316 26.2144 322.354 26.84C322.663 27.0262 322.695 27.4532 322.44 27.7082L321.292 28.8568C321.063 29.0854 320.692 29.0854 320.464 28.8568Z" fill="#334155"/>
<rect x="334.78" y="18" width="21.9512" height="12" rx="3.21951" fill="#334155"/>
<rect x="334.78" y="18" width="18.1463" height="12" rx="3.21951" fill="#334155"/>
<path d="M357.609 25.7561V22.3903C358.341 22.8293 358.72 23.1782 358.78 24C358.78 24.7317 358.488 25.3171 357.609 25.7561Z" fill="#334155"/>
</g>
<defs>
<filter id="filter0_b_190_1471" x="248.372" y="220.901" width="85.1343" height="85.1343" filterUnits="userSpaceOnUse" color-interpolation-filters="sRGB">
<feFlood flood-opacity="0" result="BackgroundImageFix"/>
<feGaussianBlur in="BackgroundImageFix" stdDeviation="15.5"/>
<feComposite in2="SourceAlpha" operator="in" result="effect1_backgroundBlur_190_1471"/>
<feBlend mode="normal" in="SourceGraphic" in2="effect1_backgroundBlur_190_1471" result="shape"/>
</filter>
<filter id="filter1_b_190_1471" x="262.716" y="220.901" width="85.1343" height="85.1343" filterUnits="userSpaceOnUse" color-interpolation-filters="sRGB">
<feFlood flood-opacity="0" result="BackgroundImageFix"/>
<feGaussianBlur in="BackgroundImageFix" stdDeviation="15.5"/>
<feComposite in2="SourceAlpha" operator="in" result="effect1_backgroundBlur_190_1471"/>
<feBlend mode="normal" in="SourceGraphic" in2="effect1_backgroundBlur_190_1471" result="shape"/>
</filter>
<filter id="filter2_b_190_1471" x="262.716" y="223.392" width="70.791" height="80.1525" filterUnits="userSpaceOnUse" color-interpolation-filters="sRGB">
<feFlood flood-opacity="0" result="BackgroundImageFix"/>
<feGaussianBlur in="BackgroundImageFix" stdDeviation="15.5"/>
<feComposite in2="SourceAlpha" operator="in" result="effect1_backgroundBlur_190_1471"/>
<feBlend mode="normal" in="SourceGraphic" in2="effect1_backgroundBlur_190_1471" result="shape"/>
</filter>
<clipPath id="clip0_190_1471">
<path d="M0 24C0 10.7452 10.7452 0 24 0H356C369.255 0 380 10.7452 380 24V455H0V24Z" fill="white"/>
</clipPath>
<clipPath id="clip1_190_1471">
<rect width="22" height="22" fill="white" transform="translate(51 337)"/>
</clipPath>
<clipPath id="clip2_190_1471">
<rect width="19.84" height="19.84" fill="white" transform="translate(298.81 142.8)"/>
</clipPath>
</defs>
</svg>
