<svg width="32" height="32" viewBox="0 0 32 32" fill="none" xmlns="http://www.w3.org/2000/svg">
<path d="M26.6667 17.3333C26.6667 24 22 27.3333 16.4534 29.2667C16.1629 29.3651 15.8474 29.3604 15.56 29.2533C10 27.3333 5.33337 24 5.33337 17.3333V8.00001C5.33337 7.64639 5.47385 7.30725 5.7239 7.0572C5.97395 6.80715 6.31309 6.66668 6.66671 6.66668C9.33337 6.66668 12.6667 5.06668 14.9867 3.04001C15.2692 2.79867 15.6285 2.66608 16 2.66608C16.3716 2.66608 16.7309 2.79867 17.0134 3.04001C19.3467 5.08001 22.6667 6.66668 25.3334 6.66668C25.687 6.66668 26.0261 6.80715 26.2762 7.0572C26.5262 7.30725 26.6667 7.64639 26.6667 8.00001V17.3333Z" stroke="white" stroke-width="2.66667" stroke-linecap="round" stroke-linejoin="round"/>
</svg>
