<svg width="32" height="32" viewBox="0 0 32 32" fill="none" xmlns="http://www.w3.org/2000/svg">
<path d="M16 10.6666V27.9999M16 10.6666C15.5177 8.67914 14.6873 6.98001 13.617 5.79081C12.5467 4.60161 11.2862 3.97752 10 3.99993C9.11595 3.99993 8.2681 4.35112 7.64298 4.97624C7.01786 5.60136 6.66667 6.44921 6.66667 7.33326C6.66667 8.21732 7.01786 9.06517 7.64298 9.69029C8.2681 10.3154 9.11595 10.6666 10 10.6666M16 10.6666C16.4823 8.67914 17.3127 6.98001 18.383 5.79081C19.4533 4.60161 20.7138 3.97752 22 3.99993C22.8841 3.99993 23.7319 4.35112 24.357 4.97624C24.9821 5.60136 25.3333 6.44921 25.3333 7.33326C25.3333 8.21732 24.9821 9.06517 24.357 9.69029C23.7319 10.3154 22.8841 10.6666 22 10.6666M25.3333 15.9999V25.3333C25.3333 26.0405 25.0524 26.7188 24.5523 27.2189C24.0522 27.719 23.3739 27.9999 22.6667 27.9999H9.33333C8.62609 27.9999 7.94781 27.719 7.44772 27.2189C6.94762 26.7188 6.66667 26.0405 6.66667 25.3333V15.9999M5.33333 10.6666H26.6667C27.403 10.6666 28 11.2636 28 11.9999V14.6666C28 15.403 27.403 15.9999 26.6667 15.9999H5.33333C4.59695 15.9999 4 15.403 4 14.6666V11.9999C4 11.2636 4.59695 10.6666 5.33333 10.6666Z" stroke="#6729FF" stroke-width="2.66667" stroke-linecap="round" stroke-linejoin="round"/>
</svg>
