<svg width="390" height="396" viewBox="0 0 390 396" fill="none" xmlns="http://www.w3.org/2000/svg">
<g clip-path="url(#clip0_190_1409)">
<path d="M0 24C0 10.7452 10.7452 0 24 0H366C379.255 0 390 10.7452 390 24V396H0V24Z" fill="white"/>
<path d="M47.0135 20.4V18.336H50.8695V30H48.5655V20.4H47.0135ZM55.6744 26.72C55.7597 27.1893 55.9517 27.552 56.2504 27.808C56.5597 28.0533 56.9704 28.176 57.4824 28.176C58.1437 28.176 58.6237 27.904 58.9224 27.36C59.221 26.8053 59.3704 25.8773 59.3704 24.576C59.125 24.9173 58.7784 25.184 58.3304 25.376C57.893 25.568 57.4184 25.664 56.9064 25.664C56.2237 25.664 55.605 25.5253 55.0504 25.248C54.5064 24.96 54.0744 24.5387 53.7544 23.984C53.4344 23.4187 53.2744 22.736 53.2744 21.936C53.2744 20.752 53.6264 19.8133 54.3304 19.12C55.0344 18.416 55.9944 18.064 57.2104 18.064C58.725 18.064 59.7917 18.5493 60.4104 19.52C61.0397 20.4907 61.3544 21.952 61.3544 23.904C61.3544 25.2907 61.2317 26.4267 60.9864 27.312C60.7517 28.1973 60.341 28.8693 59.7544 29.328C59.1784 29.7867 58.389 30.016 57.3864 30.016C56.597 30.016 55.925 29.8667 55.3704 29.568C54.8157 29.2587 54.389 28.8587 54.0904 28.368C53.8024 27.8667 53.637 27.3173 53.5944 26.72H55.6744ZM57.3704 23.84C57.925 23.84 58.3624 23.6693 58.6824 23.328C59.0024 22.9867 59.1624 22.528 59.1624 21.952C59.1624 21.3227 58.9917 20.8373 58.6504 20.496C58.3197 20.144 57.8664 19.968 57.2904 19.968C56.7144 19.968 56.2557 20.1493 55.9144 20.512C55.5837 20.864 55.4184 21.3333 55.4184 21.92C55.4184 22.4853 55.5784 22.9493 55.8984 23.312C56.229 23.664 56.7197 23.84 57.3704 23.84ZM64.346 30.112C63.9407 30.112 63.6047 29.9893 63.338 29.744C63.082 29.488 62.954 29.1733 62.954 28.8C62.954 28.4267 63.082 28.1173 63.338 27.872C63.6047 27.616 63.9407 27.488 64.346 27.488C64.7407 27.488 65.066 27.616 65.322 27.872C65.578 28.1173 65.706 28.4267 65.706 28.8C65.706 29.1733 65.578 29.488 65.322 29.744C65.066 29.9893 64.7407 30.112 64.346 30.112ZM64.346 23.488C63.9407 23.488 63.6047 23.3653 63.338 23.12C63.082 22.864 62.954 22.5493 62.954 22.176C62.954 21.8027 63.082 21.4933 63.338 21.248C63.6047 20.992 63.9407 20.864 64.346 20.864C64.7407 20.864 65.066 20.992 65.322 21.248C65.578 21.4933 65.706 21.8027 65.706 22.176C65.706 22.5493 65.578 22.864 65.322 23.12C65.066 23.3653 64.7407 23.488 64.346 23.488ZM67.3011 24.016C67.3011 22.1707 67.6318 20.7253 68.2931 19.68C68.9651 18.6347 70.0745 18.112 71.6211 18.112C73.1678 18.112 74.2718 18.6347 74.9331 19.68C75.6051 20.7253 75.9411 22.1707 75.9411 24.016C75.9411 25.872 75.6051 27.328 74.9331 28.384C74.2718 29.44 73.1678 29.968 71.6211 29.968C70.0745 29.968 68.9651 29.44 68.2931 28.384C67.6318 27.328 67.3011 25.872 67.3011 24.016ZM73.7331 24.016C73.7331 23.2267 73.6798 22.5653 73.5731 22.032C73.4771 21.488 73.2745 21.0453 72.9651 20.704C72.6665 20.3627 72.2185 20.192 71.6211 20.192C71.0238 20.192 70.5705 20.3627 70.2611 20.704C69.9625 21.0453 69.7598 21.488 69.6531 22.032C69.5571 22.5653 69.5091 23.2267 69.5091 24.016C69.5091 24.8267 69.5571 25.5093 69.6531 26.064C69.7491 26.608 69.9518 27.0507 70.2611 27.392C70.5705 27.7227 71.0238 27.888 71.6211 27.888C72.2185 27.888 72.6718 27.7227 72.9811 27.392C73.2905 27.0507 73.4931 26.608 73.5891 26.064C73.6851 25.5093 73.7331 24.8267 73.7331 24.016ZM85.0689 20.032L80.8129 30H78.5409L82.8289 20.288H77.3569V18.368H85.0689V20.032Z" fill="#334155"/>
<rect x="290" y="21.8049" width="2.92683" height="3.5122" rx="0.878049" fill="#334155"/>
<rect x="290" y="27.0731" width="2.92683" height="2.92683" rx="0.878049" fill="#334155"/>
<rect x="294.683" y="27.0731" width="2.92683" height="2.92683" rx="0.878049" fill="#334155"/>
<rect x="299.366" y="27.0731" width="2.92683" height="2.92683" rx="0.878049" fill="#334155"/>
<rect x="304.049" y="27.0731" width="2.92683" height="2.92683" rx="0.878049" fill="#334155"/>
<rect x="294.683" y="20.6342" width="2.92683" height="4.68293" rx="0.878049" fill="#334155"/>
<rect x="299.366" y="19.4634" width="2.92683" height="5.85366" rx="0.878049" fill="#334155"/>
<rect x="304.049" y="18" width="2.92683" height="7.31707" rx="0.878049" fill="#334155"/>
<path d="M314.678 22.7787L314.058 22.158C313.799 21.8994 313.839 21.4688 314.144 21.2673C319.56 17.6898 322.684 17.9185 327.622 21.2647C327.922 21.4684 327.96 21.8958 327.703 22.1526L327.078 22.778C326.877 22.9784 326.562 23.0055 326.327 22.8475C322.108 20.0142 319.595 20.0594 315.428 22.8489C315.193 23.0063 314.878 22.9789 314.678 22.7787Z" fill="#334155"/>
<path d="M317.182 25.4614L316.594 24.9326C316.315 24.6811 316.342 24.2338 316.656 24.0275C319.745 21.9983 321.741 21.9309 324.951 24.0279C325.266 24.2336 325.294 24.6815 325.014 24.9332L324.432 25.4569C324.235 25.6347 323.942 25.6551 323.715 25.5162C321.497 24.156 320.111 24.1968 317.891 25.5246C317.665 25.6595 317.377 25.6371 317.182 25.4614Z" fill="#334155"/>
<path d="M320.464 28.8568L319.316 27.7095C319.061 27.4541 319.094 27.0264 319.405 26.8423C320.533 26.1738 321.316 26.2144 322.354 26.84C322.663 27.0262 322.695 27.4532 322.44 27.7082L321.292 28.8568C321.063 29.0854 320.692 29.0854 320.464 28.8568Z" fill="#334155"/>
<rect x="334.78" y="18" width="21.9512" height="12" rx="3.21951" fill="#334155"/>
<rect x="334.78" y="18" width="18.1463" height="12" rx="3.21951" fill="#334155"/>
<path d="M357.609 25.7561V22.3903C358.341 22.8293 358.72 23.1782 358.78 24C358.78 24.7317 358.488 25.3171 357.609 25.7561Z" fill="#334155"/>
<path d="M35.716 65.084C34.94 65.084 34.232 64.904 33.592 64.544C32.952 64.176 32.444 63.668 32.068 63.02C31.7 62.364 31.516 61.628 31.516 60.812C31.516 59.996 31.7 59.264 32.068 58.616C32.444 57.96 32.952 57.452 33.592 57.092C34.232 56.724 34.94 56.54 35.716 56.54C36.5 56.54 37.212 56.724 37.852 57.092C38.492 57.452 38.996 57.956 39.364 58.604C39.732 59.252 39.916 59.988 39.916 60.812C39.916 61.636 39.732 62.372 39.364 63.02C38.996 63.668 38.492 64.176 37.852 64.544C37.212 64.904 36.5 65.084 35.716 65.084ZM35.716 64.136C36.3 64.136 36.824 64 37.288 63.728C37.76 63.456 38.128 63.068 38.392 62.564C38.664 62.06 38.8 61.476 38.8 60.812C38.8 60.14 38.664 59.556 38.392 59.06C38.128 58.556 37.764 58.168 37.3 57.896C36.836 57.624 36.308 57.488 35.716 57.488C35.124 57.488 34.596 57.624 34.132 57.896C33.668 58.168 33.3 58.556 33.028 59.06C32.764 59.556 32.632 60.14 32.632 60.812C32.632 61.476 32.764 62.06 33.028 62.564C33.3 63.068 33.668 63.456 34.132 63.728C34.604 64 35.132 64.136 35.716 64.136ZM42.4496 56.12V65H41.3576V56.12H42.4496ZM43.9027 61.688C43.9027 61.016 44.0387 60.428 44.3107 59.924C44.5827 59.412 44.9547 59.016 45.4267 58.736C45.9067 58.456 46.4387 58.316 47.0227 58.316C47.5987 58.316 48.0987 58.44 48.5227 58.688C48.9467 58.936 49.2627 59.248 49.4707 59.624V58.424H50.5747V65H49.4707V63.776C49.2547 64.16 48.9307 64.48 48.4987 64.736C48.0747 64.984 47.5787 65.108 47.0107 65.108C46.4267 65.108 45.8987 64.964 45.4267 64.676C44.9547 64.388 44.5827 63.984 44.3107 63.464C44.0387 62.944 43.9027 62.352 43.9027 61.688ZM49.4707 61.7C49.4707 61.204 49.3707 60.772 49.1707 60.404C48.9707 60.036 48.6987 59.756 48.3547 59.564C48.0187 59.364 47.6467 59.264 47.2387 59.264C46.8307 59.264 46.4587 59.36 46.1227 59.552C45.7867 59.744 45.5187 60.024 45.3187 60.392C45.1187 60.76 45.0187 61.192 45.0187 61.688C45.0187 62.192 45.1187 62.632 45.3187 63.008C45.5187 63.376 45.7867 63.66 46.1227 63.86C46.4587 64.052 46.8307 64.148 47.2387 64.148C47.6467 64.148 48.0187 64.052 48.3547 63.86C48.6987 63.66 48.9707 63.376 49.1707 63.008C49.3707 62.632 49.4707 62.196 49.4707 61.7ZM48.6187 56.564L46.0627 57.932V57.116L48.6187 55.616V56.564ZM53.5481 63.488L52.2041 66.716H51.4721L52.3481 63.488H53.5481Z" fill="#7C7C7D"/>
<path d="M43.0899 89H41.0379L34.8639 79.658V89H32.8119V76.472H34.8639L41.0379 85.796V76.472H43.0899V89ZM54.7666 79.082V89H52.7146V87.83C52.3906 88.238 51.9646 88.562 51.4366 88.802C50.9206 89.03 50.3686 89.144 49.7806 89.144C49.0006 89.144 48.2986 88.982 47.6746 88.658C47.0626 88.334 46.5766 87.854 46.2166 87.218C45.8686 86.582 45.6946 85.814 45.6946 84.914V79.082H47.7286V84.608C47.7286 85.496 47.9506 86.18 48.3946 86.66C48.8386 87.128 49.4446 87.362 50.2126 87.362C50.9806 87.362 51.5866 87.128 52.0306 86.66C52.4866 86.18 52.7146 85.496 52.7146 84.608V79.082H54.7666ZM59.526 75.68V89H57.474V75.68H59.526ZM64.2721 75.68V89H62.2201V75.68H64.2721ZM68.0102 77.768C67.6382 77.768 67.3262 77.642 67.0742 77.39C66.8222 77.138 66.6962 76.826 66.6962 76.454C66.6962 76.082 66.8222 75.77 67.0742 75.518C67.3262 75.266 67.6382 75.14 68.0102 75.14C68.3702 75.14 68.6762 75.266 68.9282 75.518C69.1802 75.77 69.3062 76.082 69.3062 76.454C69.3062 76.826 69.1802 77.138 68.9282 77.39C68.6762 77.642 68.3702 77.768 68.0102 77.768ZM69.0182 79.082V89H66.9662V79.082H69.0182ZM74.1063 80.756V86.246C74.1063 86.618 74.1903 86.888 74.3583 87.056C74.5383 87.212 74.8383 87.29 75.2583 87.29H76.5183V89H74.8983C73.9743 89 73.2663 88.784 72.7743 88.352C72.2823 87.92 72.0363 87.218 72.0363 86.246V80.756H70.8663V79.082H72.0363V76.616H74.1063V79.082H76.5183V80.756H74.1063ZM82.7116 89.162C81.7756 89.162 80.9296 88.952 80.1736 88.532C79.4176 88.1 78.8236 87.5 78.3916 86.732C77.9596 85.952 77.7436 85.052 77.7436 84.032C77.7436 83.024 77.9656 82.13 78.4096 81.35C78.8536 80.57 79.4596 79.97 80.2276 79.55C80.9956 79.13 81.8536 78.92 82.8016 78.92C83.7496 78.92 84.6076 79.13 85.3756 79.55C86.1436 79.97 86.7496 80.57 87.1936 81.35C87.6376 82.13 87.8596 83.024 87.8596 84.032C87.8596 85.04 87.6316 85.934 87.1756 86.714C86.7196 87.494 86.0956 88.1 85.3036 88.532C84.5236 88.952 83.6596 89.162 82.7116 89.162ZM82.7116 87.38C83.2396 87.38 83.7316 87.254 84.1876 87.002C84.6556 86.75 85.0336 86.372 85.3216 85.868C85.6096 85.364 85.7536 84.752 85.7536 84.032C85.7536 83.312 85.6156 82.706 85.3396 82.214C85.0636 81.71 84.6976 81.332 84.2416 81.08C83.7856 80.828 83.2936 80.702 82.7656 80.702C82.2376 80.702 81.7456 80.828 81.2896 81.08C80.8456 81.332 80.4916 81.71 80.2276 82.214C79.9636 82.706 79.8316 83.312 79.8316 84.032C79.8316 85.1 80.1016 85.928 80.6416 86.516C81.1936 87.092 81.8836 87.38 82.7116 87.38Z" fill="#64748B"/>
<path d="M267.944 67.73C269.885 67.4986 271.849 67.909 273.535 68.8983C275.221 69.8877 276.537 71.4017 277.282 73.2091C277.351 73.3962 277.351 73.602 277.282 73.7891C276.975 74.5316 276.571 75.2295 276.078 75.8641M270.737 75.2983C270.265 75.7537 269.634 76.0057 268.978 76C268.323 75.9943 267.696 75.7314 267.232 75.2678C266.769 74.8043 266.506 74.1773 266.5 73.5218C266.494 72.8663 266.746 72.2348 267.202 71.7633M273.566 78.0825C272.46 78.7373 271.227 79.1466 269.949 79.2828C268.672 79.4189 267.38 79.2787 266.161 78.8715C264.943 78.4644 263.826 77.7999 262.887 76.9231C261.948 76.0463 261.208 74.9778 260.718 73.79C260.649 73.6029 260.649 73.3971 260.718 73.21C261.457 71.4182 262.757 69.9143 264.423 68.9241M260.667 65.1666L277.333 81.8333" stroke="#64748B" stroke-width="1.66667" stroke-linecap="round" stroke-linejoin="round"/>
<path d="M307.557 81C307.703 81.2533 307.913 81.4637 308.167 81.6099C308.42 81.7562 308.707 81.8332 309 81.8332C309.293 81.8332 309.58 81.7562 309.833 81.6099C310.087 81.4637 310.297 81.2533 310.443 81M301.718 76.2716C301.609 76.3909 301.538 76.5393 301.512 76.6987C301.485 76.8581 301.506 77.0217 301.571 77.1695C301.637 77.3173 301.743 77.4429 301.879 77.5312C302.014 77.6195 302.172 77.6665 302.333 77.6666H315.667C315.828 77.6667 315.986 77.6198 316.122 77.5317C316.257 77.4436 316.364 77.3181 316.429 77.1704C316.494 77.0227 316.515 76.8592 316.49 76.6998C316.464 76.5404 316.392 76.3919 316.283 76.2725C315.175 75.13 314 73.9158 314 70.1666C314 68.8405 313.473 67.5688 312.536 66.6311C311.598 65.6934 310.326 65.1666 309 65.1666C307.674 65.1666 306.402 65.6934 305.464 66.6311C304.527 67.5688 304 68.8405 304 70.1666C304 73.9158 302.824 75.13 301.718 76.2716Z" stroke="#64748B" stroke-width="1.66667" stroke-linecap="round" stroke-linejoin="round"/>
<path d="M354.833 81V79.3333C354.833 78.4493 354.482 77.6014 353.857 76.9763C353.232 76.3512 352.384 76 351.5 76H346.5C345.616 76 344.768 76.3512 344.143 76.9763C343.518 77.6014 343.167 78.4493 343.167 79.3333V81M352.333 69.3333C352.333 71.1743 350.841 72.6667 349 72.6667C347.159 72.6667 345.667 71.1743 345.667 69.3333C345.667 67.4924 347.159 66 349 66C350.841 66 352.333 67.4924 352.333 69.3333Z" stroke="#64748B" stroke-width="1.66667" stroke-linecap="round" stroke-linejoin="round"/>
<path d="M39.1733 344.168C39.1733 344.663 39.0567 345.129 38.8233 345.568C38.59 346.007 38.2167 346.366 37.7033 346.646C37.19 346.917 36.532 347.052 35.7293 347.052H33.9653V351H32.3693V341.27H35.7293C36.476 341.27 37.106 341.401 37.6193 341.662C38.142 341.914 38.5293 342.259 38.7813 342.698C39.0427 343.137 39.1733 343.627 39.1733 344.168ZM35.7293 345.75C36.336 345.75 36.7887 345.615 37.0873 345.344C37.386 345.064 37.5353 344.672 37.5353 344.168C37.5353 343.104 36.9333 342.572 35.7293 342.572H33.9653V345.75H35.7293ZM42.2915 344.406C42.5248 344.014 42.8328 343.711 43.2155 343.496C43.6075 343.272 44.0695 343.16 44.6015 343.16V344.812H44.1955C43.5702 344.812 43.0942 344.971 42.7675 345.288C42.4502 345.605 42.2915 346.156 42.2915 346.94V351H40.6955V343.286H42.2915V344.406ZM49.4146 351.126C48.6866 351.126 48.0286 350.963 47.4406 350.636C46.8526 350.3 46.3906 349.833 46.0546 349.236C45.7186 348.629 45.5506 347.929 45.5506 347.136C45.5506 346.352 45.7232 345.657 46.0686 345.05C46.4139 344.443 46.8852 343.977 47.4826 343.65C48.0799 343.323 48.7472 343.16 49.4846 343.16C50.2219 343.16 50.8892 343.323 51.4866 343.65C52.0839 343.977 52.5552 344.443 52.9006 345.05C53.2459 345.657 53.4186 346.352 53.4186 347.136C53.4186 347.92 53.2412 348.615 52.8866 349.222C52.5319 349.829 52.0466 350.3 51.4306 350.636C50.8239 350.963 50.1519 351.126 49.4146 351.126ZM49.4146 349.74C49.8252 349.74 50.2079 349.642 50.5626 349.446C50.9266 349.25 51.2206 348.956 51.4446 348.564C51.6686 348.172 51.7806 347.696 51.7806 347.136C51.7806 346.576 51.6732 346.105 51.4586 345.722C51.2439 345.33 50.9592 345.036 50.6046 344.84C50.2499 344.644 49.8672 344.546 49.4566 344.546C49.0459 344.546 48.6632 344.644 48.3086 344.84C47.9632 345.036 47.6879 345.33 47.4826 345.722C47.2772 346.105 47.1746 346.576 47.1746 347.136C47.1746 347.967 47.3846 348.611 47.8046 349.068C48.2339 349.516 48.7706 349.74 49.4146 349.74ZM58.101 347.108C58.101 346.333 58.2597 345.647 58.577 345.05C58.9037 344.453 59.3423 343.991 59.893 343.664C60.453 343.328 61.0737 343.16 61.755 343.16C62.259 343.16 62.7537 343.272 63.239 343.496C63.7337 343.711 64.1257 344 64.415 344.364V340.64H66.025V351H64.415V349.838C64.1537 350.211 63.7897 350.519 63.323 350.762C62.8657 351.005 62.3383 351.126 61.741 351.126C61.069 351.126 60.453 350.958 59.893 350.622C59.3423 350.277 58.9037 349.801 58.577 349.194C58.2597 348.578 58.101 347.883 58.101 347.108ZM64.415 347.136C64.415 346.604 64.303 346.142 64.079 345.75C63.8643 345.358 63.5797 345.059 63.225 344.854C62.8703 344.649 62.4877 344.546 62.077 344.546C61.6663 344.546 61.2837 344.649 60.929 344.854C60.5743 345.05 60.285 345.344 60.061 345.736C59.8463 346.119 59.739 346.576 59.739 347.108C59.739 347.64 59.8463 348.107 60.061 348.508C60.285 348.909 60.5743 349.217 60.929 349.432C61.293 349.637 61.6757 349.74 62.077 349.74C62.4877 349.74 62.8703 349.637 63.225 349.432C63.5797 349.227 63.8643 348.928 64.079 348.536C64.303 348.135 64.415 347.668 64.415 347.136ZM68.9333 342.264C68.644 342.264 68.4013 342.166 68.2053 341.97C68.0093 341.774 67.9113 341.531 67.9113 341.242C67.9113 340.953 68.0093 340.71 68.2053 340.514C68.4013 340.318 68.644 340.22 68.9333 340.22C69.2133 340.22 69.4513 340.318 69.6473 340.514C69.8433 340.71 69.9413 340.953 69.9413 341.242C69.9413 341.531 69.8433 341.774 69.6473 341.97C69.4513 342.166 69.2133 342.264 68.9333 342.264ZM69.7173 343.286V351H68.1213V343.286H69.7173ZM71.2807 347.108C71.2807 346.333 71.4394 345.647 71.7567 345.05C72.0834 344.453 72.522 343.991 73.0727 343.664C73.6327 343.328 74.2487 343.16 74.9207 343.16C75.5274 343.16 76.0547 343.281 76.5027 343.524C76.96 343.757 77.324 344.051 77.5947 344.406V343.286H79.2047V351H77.5947V349.852C77.324 350.216 76.9554 350.519 76.4887 350.762C76.022 351.005 75.49 351.126 74.8927 351.126C74.23 351.126 73.6234 350.958 73.0727 350.622C72.522 350.277 72.0834 349.801 71.7567 349.194C71.4394 348.578 71.2807 347.883 71.2807 347.108ZM77.5947 347.136C77.5947 346.604 77.4827 346.142 77.2587 345.75C77.044 345.358 76.7594 345.059 76.4047 344.854C76.05 344.649 75.6674 344.546 75.2567 344.546C74.846 344.546 74.4634 344.649 74.1087 344.854C73.754 345.05 73.4647 345.344 73.2407 345.736C73.026 346.119 72.9187 346.576 72.9187 347.108C72.9187 347.64 73.026 348.107 73.2407 348.508C73.4647 348.909 73.754 349.217 74.1087 349.432C74.4727 349.637 74.8554 349.74 75.2567 349.74C75.6674 349.74 76.05 349.637 76.4047 349.432C76.7594 349.227 77.044 348.928 77.2587 348.536C77.4827 348.135 77.5947 347.668 77.5947 347.136ZM84.4057 347.108C84.4057 346.333 84.5644 345.647 84.8817 345.05C85.2084 344.453 85.647 343.991 86.1977 343.664C86.7577 343.328 87.3737 343.16 88.0457 343.16C88.6524 343.16 89.1797 343.281 89.6277 343.524C90.085 343.757 90.449 344.051 90.7197 344.406V343.286H92.3297V351H90.7197V349.852C90.449 350.216 90.0804 350.519 89.6137 350.762C89.147 351.005 88.615 351.126 88.0177 351.126C87.355 351.126 86.7484 350.958 86.1977 350.622C85.647 350.277 85.2084 349.801 84.8817 349.194C84.5644 348.578 84.4057 347.883 84.4057 347.108ZM90.7197 347.136C90.7197 346.604 90.6077 346.142 90.3837 345.75C90.169 345.358 89.8844 345.059 89.5297 344.854C89.175 344.649 88.7924 344.546 88.3817 344.546C87.971 344.546 87.5884 344.649 87.2337 344.854C86.879 345.05 86.5897 345.344 86.3657 345.736C86.151 346.119 86.0437 346.576 86.0437 347.108C86.0437 347.64 86.151 348.107 86.3657 348.508C86.5897 348.909 86.879 349.217 87.2337 349.432C87.5977 349.637 87.9804 349.74 88.3817 349.74C88.7924 349.74 89.175 349.637 89.5297 349.432C89.8844 349.227 90.169 348.928 90.3837 348.536C90.6077 348.135 90.7197 347.668 90.7197 347.136ZM97.5307 347.108C97.5307 346.333 97.6894 345.647 98.0067 345.05C98.3334 344.453 98.772 343.991 99.3227 343.664C99.8827 343.328 100.503 343.16 101.185 343.16C101.689 343.16 102.183 343.272 102.669 343.496C103.163 343.711 103.555 344 103.845 344.364V340.64H105.455V351H103.845V349.838C103.583 350.211 103.219 350.519 102.753 350.762C102.295 351.005 101.768 351.126 101.171 351.126C100.499 351.126 99.8827 350.958 99.3227 350.622C98.772 350.277 98.3334 349.801 98.0067 349.194C97.6894 348.578 97.5307 347.883 97.5307 347.108ZM103.845 347.136C103.845 346.604 103.733 346.142 103.509 345.75C103.294 345.358 103.009 345.059 102.655 344.854C102.3 344.649 101.917 344.546 101.507 344.546C101.096 344.546 100.713 344.649 100.359 344.854C100.004 345.05 99.7147 345.344 99.4907 345.736C99.276 346.119 99.1687 346.576 99.1687 347.108C99.1687 347.64 99.276 348.107 99.4907 348.508C99.7147 348.909 100.004 349.217 100.359 349.432C100.723 349.637 101.105 349.74 101.507 349.74C101.917 349.74 102.3 349.637 102.655 349.432C103.009 349.227 103.294 348.928 103.509 348.536C103.733 348.135 103.845 347.668 103.845 347.136ZM108.363 342.264C108.074 342.264 107.831 342.166 107.635 341.97C107.439 341.774 107.341 341.531 107.341 341.242C107.341 340.953 107.439 340.71 107.635 340.514C107.831 340.318 108.074 340.22 108.363 340.22C108.643 340.22 108.881 340.318 109.077 340.514C109.273 340.71 109.371 340.953 109.371 341.242C109.371 341.531 109.273 341.774 109.077 341.97C108.881 342.166 108.643 342.264 108.363 342.264ZM109.147 343.286V351H107.551V343.286H109.147ZM110.71 347.108C110.71 346.333 110.869 345.647 111.186 345.05C111.513 344.453 111.952 343.991 112.502 343.664C113.062 343.328 113.678 343.16 114.35 343.16C114.957 343.16 115.484 343.281 115.932 343.524C116.39 343.757 116.754 344.051 117.024 344.406V343.286H118.634V351H117.024V349.852C116.754 350.216 116.385 350.519 115.918 350.762C115.452 351.005 114.92 351.126 114.322 351.126C113.66 351.126 113.053 350.958 112.502 350.622C111.952 350.277 111.513 349.801 111.186 349.194C110.869 348.578 110.71 347.883 110.71 347.108ZM117.024 347.136C117.024 346.604 116.912 346.142 116.688 345.75C116.474 345.358 116.189 345.059 115.834 344.854C115.48 344.649 115.097 344.546 114.686 344.546C114.276 344.546 113.893 344.649 113.538 344.854C113.184 345.05 112.894 345.344 112.67 345.736C112.456 346.119 112.348 346.576 112.348 347.108C112.348 347.64 112.456 348.107 112.67 348.508C112.894 348.909 113.184 349.217 113.538 349.432C113.902 349.637 114.285 349.74 114.686 349.74C115.097 349.74 115.48 349.637 115.834 349.432C116.189 349.227 116.474 348.928 116.688 348.536C116.912 348.135 117.024 347.668 117.024 347.136Z" fill="#64748B"/>
<rect x="31" y="368" width="70" height="70" rx="10" fill="#6729FF"/>
<rect x="117" y="368" width="70" height="70" rx="10" fill="#F1F5F9"/>
<rect x="203" y="368" width="70" height="70" rx="10" fill="#F1F5F9"/>
<rect x="289" y="368" width="70" height="70" rx="10" fill="#F1F5F9"/>
<rect x="375" y="368" width="70" height="70" rx="10" fill="#F1F5F9"/>
<path d="M228 401H248M230 396H246C247.105 396 248 396.895 248 398V408C248 409.105 247.105 410 246 410H230C228.895 410 228 409.105 228 408V398C228 396.895 228.895 396 230 396Z" stroke="#64748B" stroke-width="2" stroke-linecap="round" stroke-linejoin="round"/>
<path d="M317 403C317 397.7 324.5 396.5 328 398C328.2 397.4 329.5 396 331 396V399C331.5 399.5 332 400 332 401H334V405H332C331.7 406 331 406.5 330 407V411H326V409H323V411H319V407.5C317 406 317 404.8 317 403ZM317 403H316C314.9 403 314 402.1 314 401V400M328 402H328.01" stroke="#64748B" stroke-width="2" stroke-linecap="round" stroke-linejoin="round"/>
<path d="M154 399H148M156 403H148M153 407H148M144 393V413L146 412L148 413L150 412L152 413L154 412L156 413L158 412L160 413V393L158 394L156 393L154 394L152 393L150 394L148 393L146 394L144 393Z" stroke="#64748B" stroke-width="2" stroke-linecap="round" stroke-linejoin="round"/>
<path d="M69.5182 409.029L69.5185 409.03C70.0049 409.506 70.5956 409.843 71.2385 410.021L67.9795 413.218C67.9795 413.218 67.9795 413.218 67.9794 413.218C66.9069 414.27 65.1632 414.27 64.0911 413.218L60.8963 410.085C61.1147 410.036 61.3291 409.97 61.5371 409.885C62.0175 409.69 62.4545 409.403 62.8226 409.041C62.8228 409.041 62.8231 409.04 62.8233 409.04L66.1763 405.751L69.5182 409.029ZM62.8222 398.292L62.8219 398.291C62.2841 397.764 61.6186 397.408 60.8962 397.249L64.0907 394.115C64.0908 394.115 64.0908 394.115 64.0908 394.115C65.1633 393.063 66.9069 393.063 67.9795 394.115C67.9795 394.115 67.9795 394.115 67.9795 394.115L71.2384 397.312C71.0909 397.353 70.9456 397.402 70.8033 397.46C70.3229 397.655 69.8859 397.942 69.5177 398.304C69.5175 398.304 69.5173 398.305 69.5171 398.305L66.1763 401.582L62.8222 398.292Z" stroke="#F8FAFC" stroke-width="1.33333"/>
<rect x="31" y="124" width="328" height="196" rx="9.84" fill="url(#paint0_linear_190_1409)"/>
<path d="M60.3075 168V153.18H62.6166L63.6032 156.14V168H60.3075ZM70.5306 168L61.7979 156.811L62.6166 153.18L71.3493 164.368L70.5306 168ZM70.5306 168L69.6489 165.04V153.18H72.9446V168H70.5306ZM79.4161 168.231C78.4784 168.231 77.6458 168.042 76.918 167.664C76.2043 167.272 75.6445 166.74 75.2387 166.069C74.8328 165.383 74.6299 164.599 74.6299 163.718V157.798H77.8417V163.676C77.8417 164.026 77.8977 164.326 78.0096 164.578C78.1356 164.83 78.3175 165.026 78.5554 165.166C78.7933 165.306 79.0802 165.376 79.4161 165.376C79.8919 165.376 80.2698 165.229 80.5497 164.935C80.8295 164.627 80.9695 164.207 80.9695 163.676V157.798H84.1813V163.697C84.1813 164.592 83.9783 165.383 83.5725 166.069C83.1667 166.74 82.6069 167.272 81.8931 167.664C81.1794 168.042 80.3537 168.231 79.4161 168.231ZM85.5681 168V152.76H88.7798V168H85.5681ZM90.4118 168V152.76H93.6236V168H90.4118ZM98.0685 168V165.439H101.553C102.197 165.439 102.701 165.25 103.065 164.872C103.428 164.494 103.61 164.033 103.61 163.487C103.61 163.109 103.526 162.773 103.358 162.479C103.191 162.185 102.953 161.954 102.645 161.786C102.351 161.618 101.987 161.534 101.553 161.534H98.0685V159.036H101.28C101.826 159.036 102.267 158.903 102.603 158.638C102.939 158.358 103.107 157.938 103.107 157.378C103.107 156.832 102.939 156.426 102.603 156.161C102.267 155.881 101.826 155.741 101.28 155.741H98.0685V153.18H101.91C102.862 153.18 103.666 153.355 104.324 153.704C104.996 154.054 105.507 154.523 105.856 155.111C106.206 155.699 106.381 156.349 106.381 157.063C106.381 157.973 106.087 158.743 105.5 159.372C104.912 160.002 104.044 160.436 102.897 160.674L102.981 159.561C104.226 159.799 105.185 160.282 105.856 161.01C106.542 161.737 106.885 162.633 106.885 163.697C106.885 164.508 106.682 165.243 106.276 165.901C105.884 166.545 105.311 167.055 104.555 167.433C103.813 167.811 102.918 168 101.868 168H98.0685ZM95.5494 168V153.18H98.8032V168H95.5494ZM112.335 168.21C111.398 168.21 110.558 167.979 109.816 167.517C109.088 167.055 108.508 166.426 108.074 165.628C107.654 164.83 107.444 163.921 107.444 162.899C107.444 161.877 107.654 160.968 108.074 160.17C108.508 159.372 109.088 158.743 109.816 158.281C110.558 157.819 111.398 157.588 112.335 157.588C113.021 157.588 113.637 157.721 114.182 157.987C114.742 158.253 115.197 158.624 115.547 159.099C115.897 159.561 116.093 160.093 116.135 160.695V165.103C116.093 165.705 115.897 166.244 115.547 166.719C115.211 167.181 114.763 167.545 114.203 167.811C113.644 168.077 113.021 168.21 112.335 168.21ZM112.986 165.313C113.672 165.313 114.224 165.089 114.644 164.641C115.064 164.179 115.274 163.599 115.274 162.899C115.274 162.423 115.176 162.003 114.98 161.639C114.798 161.276 114.532 160.996 114.182 160.8C113.847 160.59 113.455 160.485 113.007 160.485C112.559 160.485 112.16 160.59 111.81 160.8C111.474 160.996 111.202 161.276 110.992 161.639C110.796 162.003 110.698 162.423 110.698 162.899C110.698 163.361 110.796 163.774 110.992 164.137C111.188 164.501 111.46 164.788 111.81 164.998C112.16 165.208 112.552 165.313 112.986 165.313ZM115.148 168V165.25L115.631 162.773L115.148 160.296V157.798H118.297V168H115.148ZM126.667 168V162.185C126.667 161.653 126.499 161.227 126.163 160.905C125.841 160.569 125.428 160.401 124.925 160.401C124.575 160.401 124.267 160.478 124.001 160.632C123.735 160.772 123.525 160.982 123.371 161.262C123.217 161.527 123.14 161.835 123.14 162.185L121.902 161.576C121.902 160.779 122.077 160.079 122.427 159.477C122.776 158.875 123.259 158.414 123.875 158.092C124.505 157.756 125.211 157.588 125.995 157.588C126.751 157.588 127.416 157.77 127.989 158.134C128.577 158.484 129.039 158.952 129.375 159.54C129.711 160.128 129.879 160.772 129.879 161.471V168H126.667ZM119.929 168V157.798H123.14V168H119.929ZM137.84 168L134.272 162.71L137.819 157.798H141.409L137.127 163.319L137.231 161.996L141.619 168H137.84ZM131.312 168V152.76H134.524V168H131.312Z" fill="white"/>
<g clip-path="url(#clip1_190_1409)">
<path d="M312.949 158.069C313.211 158.397 313.408 158.79 313.539 159.184C313.67 159.578 313.736 160.037 313.736 160.496C313.736 160.955 313.67 161.414 313.539 161.808C313.408 162.202 313.211 162.595 312.949 162.923C312.621 163.382 312.686 164.038 313.146 164.366C313.605 164.694 314.261 164.629 314.589 164.17C314.982 163.645 315.245 163.12 315.507 162.464C315.77 161.808 315.835 161.152 315.835 160.496C315.835 159.84 315.704 159.184 315.507 158.528C315.31 157.938 314.982 157.347 314.589 156.822C314.261 156.363 313.605 156.298 313.146 156.626C312.686 156.954 312.621 157.61 312.949 158.069Z" fill="#FAFAFA"/>
<path d="M316.557 156.166C317.344 157.413 317.803 158.922 317.803 160.496C317.803 162.07 317.344 163.579 316.557 164.826C316.229 165.285 316.426 165.941 316.885 166.269C317.41 166.597 318 166.4 318.328 165.941C319.312 164.366 319.902 162.53 319.902 160.496C319.902 158.528 319.312 156.626 318.328 155.051C318 154.592 317.344 154.395 316.885 154.723C316.426 155.051 316.229 155.642 316.557 156.166Z" fill="#FAFAFA"/>
<path d="M320.362 154.198C321.477 156.035 322.067 158.2 322.067 160.496C322.067 162.792 321.411 164.957 320.362 166.794C320.099 167.318 320.23 167.909 320.755 168.237C321.28 168.499 321.87 168.368 322.198 167.843C323.51 165.678 324.232 163.186 324.232 160.496C324.232 157.806 323.51 155.314 322.198 153.149C321.936 152.624 321.28 152.493 320.755 152.755C320.23 153.083 320.099 153.674 320.362 154.198Z" fill="#FAFAFA"/>
<path d="M324.166 152.23C325.544 154.658 326.397 157.478 326.397 160.496C326.397 163.514 325.61 166.334 324.166 168.762C323.904 169.286 324.035 169.877 324.56 170.205C325.085 170.467 325.675 170.336 326.003 169.811C327.578 167.056 328.496 163.907 328.496 160.496C328.496 157.085 327.578 153.936 326.003 151.181C325.741 150.656 325.085 150.525 324.56 150.787C324.035 151.05 323.904 151.706 324.166 152.23Z" fill="#FAFAFA"/>
</g>
<path d="M62.3887 238.504V224.784H57.3902C56.8641 224.784 56.3784 225.067 56.3784 225.796C56.3784 226.524 56.8641 226.808 57.3902 226.808H60.365V238.504H57.3902C56.8641 238.504 56.3784 238.788 56.3784 239.516C56.3784 240.245 56.8641 240.528 57.3902 240.528H65.3634C65.8896 240.528 66.3752 240.245 66.3752 239.516V234.417C66.3752 233.83 66.1122 233.405 65.3634 233.405C64.6147 233.405 64.3516 233.83 64.3516 234.417V238.504H62.3887Z" fill="#FAFAFA"/>
<path d="M72.9668 233.668H78.6735C79.3413 233.668 79.8067 233.567 80.3127 233.101C80.8793 232.575 80.94 232.029 80.94 231.3V227.152C80.94 226.423 80.8793 225.877 80.3127 225.351C79.8067 224.885 79.3413 224.784 78.6735 224.784H71.955C71.4288 224.784 70.9432 225.067 70.9432 225.796C70.9432 226.524 71.4288 226.808 71.955 226.808H78.9163V231.644H73.2299C71.7121 231.644 70.9432 232.413 70.9432 233.931V240.528H79.9282C80.4543 240.528 80.94 240.245 80.94 239.516C80.94 238.788 80.4543 238.504 79.9282 238.504H72.9668V233.668Z" fill="#FAFAFA"/>
<path d="M93.4811 226.808V230.167C93.4811 231.3 93.0359 231.644 92.4693 231.644H88.5029C87.9768 231.644 87.4911 231.928 87.4911 232.656C87.4911 233.385 87.9768 233.668 88.5029 233.668H92.4693C93.0359 233.668 93.4811 234.012 93.4811 235.145V238.504H86.5197C85.9936 238.504 85.5079 238.788 85.5079 239.516C85.5079 240.245 85.9936 240.528 86.5197 240.528H93.4811C94.6346 240.528 95.5047 239.658 95.5047 238.504V234.619C95.5047 233.81 95.3428 233.223 94.7155 232.656C95.3428 232.089 95.5047 231.503 95.5047 230.693V226.808C95.5047 225.654 94.6346 224.784 93.4811 224.784H86.5197C85.9936 224.784 85.5079 225.067 85.5079 225.796C85.5079 226.524 85.9936 226.808 86.5197 226.808H93.4811Z" fill="#FAFAFA"/>
<path d="M103.108 233.364V225.796C103.108 225.29 102.865 224.784 102.096 224.784C101.327 224.784 101.084 225.29 101.084 225.796V235.388H107.034V239.516C107.034 240.164 107.317 240.528 108.046 240.528C108.774 240.528 109.058 240.164 109.058 239.516V235.388C109.584 235.388 110.069 235.105 110.069 234.376C110.069 233.648 109.584 233.364 109.058 233.364V227.516C109.058 227.01 108.815 226.504 108.046 226.504C107.277 226.504 107.034 227.01 107.034 227.516V233.364H103.108Z" fill="#FAFAFA"/>
<path d="M133.229 226.808H138.187C138.713 226.808 139.199 226.524 139.199 225.796C139.199 225.067 138.713 224.784 138.187 224.784H131.206V233.668H137.175V238.504H132.501C132.177 238.504 131.711 238.221 131.428 238.1L130.821 237.837C130.598 237.735 130.416 237.675 130.174 237.675C129.647 237.675 129.202 238.16 129.202 238.687C129.202 239.395 129.809 239.577 130.356 239.82L131.125 240.164C131.631 240.386 131.934 240.528 132.46 240.528H136.953C137.681 240.528 138.207 240.447 138.713 239.84C139.138 239.334 139.199 238.889 139.199 238.262V233.931C139.199 233.223 139.138 232.737 138.572 232.211C138.086 231.745 137.6 231.644 136.953 231.644H133.229V226.808Z" fill="#FAFAFA"/>
<path d="M145.791 226.808C146.377 226.808 146.802 226.403 146.802 225.796C146.802 225.27 146.377 224.784 145.851 224.784H144.637C143.929 224.784 143.767 225.33 143.767 225.796V239.253C143.767 240.184 144.131 240.528 145.082 240.528H152.448C153.359 240.528 153.764 240.204 153.764 239.253V234.72C153.764 233.789 153.561 233.364 152.55 233.364H145.791V226.808ZM151.74 235.388V238.504H145.791V235.388H151.74Z" fill="#FAFAFA"/>
<path d="M166.305 226.808V229.6C166.305 230.491 166.345 230.471 165.677 231.057L162.885 233.466C162.379 233.911 162.359 233.971 162.359 234.639V239.516C162.359 240.164 162.642 240.528 163.371 240.528C164.099 240.528 164.382 240.164 164.382 239.516V235.59C164.382 234.882 164.423 234.842 164.949 234.376L167.782 231.928C168.349 231.442 168.328 231.361 168.328 230.653V224.784H159.343C158.696 224.784 158.332 225.351 158.332 225.796V226.808C158.332 227.253 158.696 227.82 159.343 227.82C159.991 227.82 160.355 227.253 160.355 226.808H166.305Z" fill="#FAFAFA"/>
<path d="M176.944 231.644V226.808H178.846V231.644H176.944ZM175.932 224.784C175.244 224.784 174.92 225.27 174.92 225.796V231.644C174.293 231.644 173.807 231.867 173.443 232.211C173.079 232.555 172.896 233.061 172.896 233.688V238.504C172.896 239.739 173.665 240.528 174.92 240.528H180.87C182.124 240.528 182.893 239.739 182.893 238.504V233.688C182.893 233.061 182.711 232.555 182.347 232.211C181.983 231.867 181.497 231.644 180.87 231.644V225.796C180.87 225.27 180.546 224.784 179.858 224.784H175.932ZM174.92 238.504V233.668H180.87V238.504H174.92Z" fill="#FAFAFA"/>
<path d="M209.999 238.504C209.412 238.504 208.987 238.909 208.987 239.516C208.987 240.063 209.392 240.528 209.999 240.528H211.011C211.618 240.528 212.023 240.063 212.023 239.516V225.796C212.023 225.27 211.577 224.784 211.011 224.784H203.038C202.471 224.784 202.026 225.27 202.026 225.796V230.976C202.026 231.503 202.471 231.988 203.038 231.988H209.999V238.504ZM204.05 229.965V226.808H209.999V229.965H204.05Z" fill="#FAFAFA"/>
<path d="M218.614 224.784C217.501 224.784 216.591 225.695 216.591 226.808V238.504C216.591 239.638 217.461 240.528 218.614 240.528H224.564C225.717 240.528 226.587 239.638 226.587 238.504V226.808C226.587 225.695 225.677 224.784 224.564 224.784H218.614ZM218.614 238.504V226.808H224.564V238.504H218.614Z" fill="#FAFAFA"/>
<path d="M233.179 224.784C232.066 224.784 231.155 225.695 231.155 226.808V238.504C231.155 239.638 232.026 240.528 233.179 240.528H239.129C240.282 240.528 241.152 239.638 241.152 238.504V226.808C241.152 225.695 240.242 224.784 239.129 224.784H233.179ZM233.179 238.504V226.808H239.129V238.504H233.179Z" fill="#FAFAFA"/>
<path d="M247.744 224.784C246.631 224.784 245.72 225.695 245.72 226.808V238.504C245.72 239.638 246.59 240.528 247.744 240.528H253.693C254.847 240.528 255.717 239.638 255.717 238.504V226.808C255.717 225.695 254.806 224.784 253.693 224.784H247.744ZM247.744 238.504V226.808H253.693V238.504H247.744Z" fill="#FAFAFA"/>
<path d="M276.873 224.784C275.76 224.784 274.85 225.695 274.85 226.808V238.504C274.85 239.638 275.72 240.528 276.873 240.528H282.823C283.976 240.528 284.846 239.638 284.846 238.504V226.808C284.846 225.695 283.936 224.784 282.823 224.784H276.873ZM276.873 238.504V226.808H282.823V238.504H276.873Z" fill="#FAFAFA"/>
<path d="M291.438 224.784C290.325 224.784 289.414 225.695 289.414 226.808V238.504C289.414 239.638 290.285 240.528 291.438 240.528H297.387C298.541 240.528 299.411 239.638 299.411 238.504V226.808C299.411 225.695 298.501 224.784 297.387 224.784H291.438ZM291.438 238.504V226.808H297.387V238.504H291.438Z" fill="#FAFAFA"/>
<path d="M306.003 224.784C304.89 224.784 303.979 225.695 303.979 226.808V238.504C303.979 239.638 304.849 240.528 306.003 240.528H311.952C313.106 240.528 313.976 239.638 313.976 238.504V226.808C313.976 225.695 313.065 224.784 311.952 224.784H306.003ZM306.003 238.504V226.808H311.952V238.504H306.003Z" fill="#FAFAFA"/>
<path d="M320.567 224.784C319.454 224.784 318.544 225.695 318.544 226.808V238.504C318.544 239.638 319.414 240.528 320.567 240.528H326.517C327.67 240.528 328.541 239.638 328.541 238.504V226.808C328.541 225.695 327.63 224.784 326.517 224.784H320.567ZM320.567 238.504V226.808H326.517V238.504H320.567Z" fill="#FAFAFA"/>
<path opacity="0.8" d="M60.5033 266.637V267.369H59.047V272.108H58.1496V267.369H56.6854V266.637H60.5033ZM61.8688 267.196C61.7061 267.196 61.5696 267.141 61.4594 267.031C61.3492 266.921 61.2941 266.784 61.2941 266.621C61.2941 266.459 61.3492 266.322 61.4594 266.212C61.5696 266.102 61.7061 266.047 61.8688 266.047C62.0262 266.047 62.16 266.102 62.2702 266.212C62.3804 266.322 62.4356 266.459 62.4356 266.621C62.4356 266.784 62.3804 266.921 62.2702 267.031C62.16 267.141 62.0262 267.196 61.8688 267.196ZM62.3096 267.771V272.108H61.4122V267.771H62.3096ZM64.5348 268.503V270.904C64.5348 271.066 64.5715 271.185 64.645 271.258C64.7237 271.326 64.8549 271.36 65.0386 271.36H65.5896V272.108H64.8812C64.4771 272.108 64.1674 272.014 63.9523 271.825C63.7371 271.636 63.6295 271.329 63.6295 270.904V268.503H63.1178V267.771H63.6295V266.692H64.5348V267.771H65.5896V268.503H64.5348ZM70.3449 267.771V272.108H69.4475V271.596C69.3058 271.775 69.1195 271.917 68.8886 272.022C68.6629 272.121 68.4215 272.171 68.1643 272.171C67.8232 272.171 67.5162 272.1 67.2433 271.959C66.9757 271.817 66.7631 271.607 66.6057 271.329C66.4535 271.051 66.3774 270.715 66.3774 270.321V267.771H67.2669V270.187C67.2669 270.576 67.364 270.875 67.5582 271.085C67.7524 271.289 68.0174 271.392 68.3533 271.392C68.6891 271.392 68.9542 271.289 69.1483 271.085C69.3478 270.875 69.4475 270.576 69.4475 270.187V267.771H70.3449ZM72.4264 266.283V272.108H71.5289V266.283H72.4264ZM73.3054 269.92C73.3054 269.484 73.3946 269.098 73.5731 268.763C73.7568 268.427 74.0034 268.167 74.313 267.983C74.6279 267.794 74.9743 267.7 75.3522 267.7C75.6933 267.7 75.9898 267.768 76.2417 267.905C76.4988 268.036 76.7035 268.201 76.8557 268.4V267.771H77.761V272.108H76.8557V271.463C76.7035 271.667 76.4962 271.838 76.2338 271.974C75.9714 272.111 75.6723 272.179 75.3364 272.179C74.9638 272.179 74.6227 272.085 74.313 271.896C74.0034 271.701 73.7568 271.434 73.5731 271.093C73.3946 270.746 73.3054 270.355 73.3054 269.92ZM76.8557 269.935C76.8557 269.636 76.7927 269.377 76.6668 269.156C76.5461 268.936 76.386 268.768 76.1866 268.652C75.9872 268.537 75.772 268.479 75.5411 268.479C75.3102 268.479 75.095 268.537 74.8956 268.652C74.6962 268.763 74.5335 268.928 74.4075 269.148C74.2868 269.363 74.2265 269.621 74.2265 269.92C74.2265 270.219 74.2868 270.481 74.4075 270.707C74.5335 270.933 74.6962 271.106 74.8956 271.226C75.1002 271.342 75.3154 271.4 75.5411 271.4C75.772 271.4 75.9872 271.342 76.1866 271.226C76.386 271.111 76.5461 270.943 76.6668 270.723C76.7927 270.497 76.8557 270.235 76.8557 269.935ZM79.8371 268.4C79.9683 268.18 80.1415 268.009 80.3567 267.889C80.5771 267.763 80.8368 267.7 81.136 267.7V268.629H80.9077C80.5561 268.629 80.2884 268.718 80.1047 268.896C79.9263 269.075 79.8371 269.384 79.8371 269.825V272.108H78.9397V267.771H79.8371V268.4ZM83.7066 269.92C83.7066 269.484 83.7958 269.098 83.9743 268.763C84.1579 268.427 84.4046 268.167 84.7142 267.983C85.0291 267.794 85.3781 267.7 85.7612 267.7C86.0446 267.7 86.3227 267.763 86.5956 267.889C86.8738 268.009 87.0942 268.172 87.2569 268.377V266.283H88.1622V272.108H87.2569V271.455C87.1099 271.665 86.9053 271.838 86.6429 271.974C86.3857 272.111 86.0892 272.179 85.7533 272.179C85.3755 272.179 85.0291 272.085 84.7142 271.896C84.4046 271.701 84.1579 271.434 83.9743 271.093C83.7958 270.746 83.7066 270.355 83.7066 269.92ZM87.2569 269.935C87.2569 269.636 87.1939 269.377 87.068 269.156C86.9473 268.936 86.7872 268.768 86.5878 268.652C86.3883 268.537 86.1732 268.479 85.9423 268.479C85.7114 268.479 85.4962 268.537 85.2968 268.652C85.0973 268.763 84.9347 268.928 84.8087 269.148C84.688 269.363 84.6276 269.621 84.6276 269.92C84.6276 270.219 84.688 270.481 84.8087 270.707C84.9347 270.933 85.0973 271.106 85.2968 271.226C85.5014 271.342 85.7166 271.4 85.9423 271.4C86.1732 271.4 86.3883 271.342 86.5878 271.226C86.7872 271.111 86.9473 270.943 87.068 270.723C87.1939 270.497 87.2569 270.235 87.2569 269.935ZM91.2223 272.179C90.8129 272.179 90.443 272.087 90.1123 271.903C89.7817 271.715 89.5219 271.452 89.333 271.116C89.1441 270.775 89.0496 270.382 89.0496 269.935C89.0496 269.495 89.1467 269.104 89.3409 268.763C89.5351 268.421 89.8001 268.159 90.136 267.975C90.4718 267.792 90.8471 267.7 91.2616 267.7C91.6762 267.7 92.0515 267.792 92.3873 267.975C92.7232 268.159 92.9882 268.421 93.1824 268.763C93.3766 269.104 93.4737 269.495 93.4737 269.935C93.4737 270.376 93.374 270.767 93.1745 271.108C92.9751 271.45 92.7022 271.715 92.3559 271.903C92.0147 272.087 91.6369 272.179 91.2223 272.179ZM91.2223 271.4C91.4532 271.4 91.6684 271.345 91.8678 271.234C92.0725 271.124 92.2378 270.959 92.3637 270.738C92.4897 270.518 92.5527 270.25 92.5527 269.935C92.5527 269.621 92.4923 269.356 92.3716 269.14C92.2509 268.92 92.0908 268.755 91.8914 268.644C91.692 268.534 91.4768 268.479 91.2459 268.479C91.015 268.479 90.7998 268.534 90.6004 268.644C90.4062 268.755 90.2514 268.92 90.136 269.14C90.0205 269.356 89.9628 269.621 89.9628 269.935C89.9628 270.403 90.0808 270.765 90.317 271.022C90.5584 271.274 90.8602 271.4 91.2223 271.4ZM96.1066 269.361C96.1066 268.826 96.2299 268.345 96.4765 267.92C96.7284 267.495 97.0669 267.165 97.492 266.928C97.9224 266.687 98.3921 266.566 98.9011 266.566C99.4836 266.566 100.001 266.711 100.452 266.999C100.908 267.283 101.239 267.687 101.444 268.212H100.365C100.224 267.923 100.027 267.708 99.7749 267.566C99.523 267.424 99.2317 267.353 98.9011 267.353C98.539 267.353 98.2163 267.435 97.9329 267.597C97.6495 267.76 97.4264 267.994 97.2637 268.298C97.1063 268.602 97.0276 268.957 97.0276 269.361C97.0276 269.765 97.1063 270.119 97.2637 270.424C97.4264 270.728 97.6495 270.964 97.9329 271.132C98.2163 271.295 98.539 271.376 98.9011 271.376C99.2317 271.376 99.523 271.305 99.7749 271.164C100.027 271.022 100.224 270.807 100.365 270.518H101.444C101.239 271.043 100.908 271.447 100.452 271.73C100.001 272.014 99.4836 272.155 98.9011 272.155C98.3868 272.155 97.9171 272.037 97.492 271.801C97.0669 271.56 96.7284 271.226 96.4765 270.801C96.2299 270.376 96.1066 269.896 96.1066 269.361ZM102.195 269.92C102.195 269.484 102.284 269.098 102.463 268.763C102.646 268.427 102.893 268.167 103.203 267.983C103.518 267.794 103.864 267.7 104.242 267.7C104.583 267.7 104.879 267.768 105.131 267.905C105.388 268.036 105.593 268.201 105.745 268.4V267.771H106.651V272.108H105.745V271.463C105.593 271.667 105.386 271.838 105.123 271.974C104.861 272.111 104.562 272.179 104.226 272.179C103.853 272.179 103.512 272.085 103.203 271.896C102.893 271.701 102.646 271.434 102.463 271.093C102.284 270.746 102.195 270.355 102.195 269.92ZM105.745 269.935C105.745 269.636 105.682 269.377 105.556 269.156C105.436 268.936 105.276 268.768 105.076 268.652C104.877 268.537 104.662 268.479 104.431 268.479C104.2 268.479 103.985 268.537 103.785 268.652C103.586 268.763 103.423 268.928 103.297 269.148C103.176 269.363 103.116 269.621 103.116 269.92C103.116 270.219 103.176 270.481 103.297 270.707C103.423 270.933 103.586 271.106 103.785 271.226C103.99 271.342 104.205 271.4 104.431 271.4C104.662 271.4 104.877 271.342 105.076 271.226C105.276 271.111 105.436 270.943 105.556 270.723C105.682 270.497 105.745 270.235 105.745 269.935ZM108.727 268.4C108.858 268.18 109.031 268.009 109.246 267.889C109.467 267.763 109.726 267.7 110.026 267.7V268.629H109.797C109.446 268.629 109.178 268.718 108.994 268.896C108.816 269.075 108.727 269.384 108.727 269.825V272.108H107.829V267.771H108.727V268.4ZM111.897 268.503V270.904C111.897 271.066 111.934 271.185 112.008 271.258C112.086 271.326 112.218 271.36 112.401 271.36H112.952V272.108H112.244C111.84 272.108 111.53 272.014 111.315 271.825C111.1 271.636 110.992 271.329 110.992 270.904V268.503H110.481V267.771H110.992V266.692H111.897V267.771H112.952V268.503H111.897ZM113.48 269.92C113.48 269.484 113.57 269.098 113.748 268.763C113.932 268.427 114.178 268.167 114.488 267.983C114.803 267.794 115.149 267.7 115.527 267.7C115.868 267.7 116.165 267.768 116.417 267.905C116.674 268.036 116.878 268.201 117.031 268.4V267.771H117.936V272.108H117.031V271.463C116.878 271.667 116.671 271.838 116.409 271.974C116.146 272.111 115.847 272.179 115.511 272.179C115.139 272.179 114.798 272.085 114.488 271.896C114.178 271.701 113.932 271.434 113.748 271.093C113.57 270.746 113.48 270.355 113.48 269.92ZM117.031 269.935C117.031 269.636 116.968 269.377 116.842 269.156C116.721 268.936 116.561 268.768 116.361 268.652C116.162 268.537 115.947 268.479 115.716 268.479C115.485 268.479 115.27 268.537 115.07 268.652C114.871 268.763 114.708 268.928 114.582 269.148C114.462 269.363 114.401 269.621 114.401 269.92C114.401 270.219 114.462 270.481 114.582 270.707C114.708 270.933 114.871 271.106 115.07 271.226C115.275 271.342 115.49 271.4 115.716 271.4C115.947 271.4 116.162 271.342 116.361 271.226C116.561 271.111 116.721 270.943 116.842 270.723C116.968 270.497 117.031 270.235 117.031 269.935ZM114.575 267.322C114.617 267.018 114.716 266.789 114.874 266.637C115.031 266.48 115.228 266.401 115.464 266.401C115.564 266.401 115.65 266.417 115.724 266.448C115.797 266.48 115.887 266.527 115.991 266.59C116.07 266.642 116.136 266.682 116.188 266.708C116.246 266.734 116.309 266.747 116.377 266.747C116.466 266.747 116.54 266.721 116.598 266.669C116.661 266.611 116.7 266.527 116.716 266.417H117.22C117.178 266.721 117.078 266.952 116.92 267.109C116.763 267.262 116.566 267.338 116.33 267.338C116.23 267.338 116.141 267.322 116.062 267.29C115.984 267.254 115.897 267.204 115.803 267.141C115.708 267.083 115.635 267.044 115.582 267.023C115.535 266.997 115.48 266.983 115.417 266.983C115.328 266.983 115.252 267.012 115.189 267.07C115.131 267.128 115.094 267.212 115.078 267.322H114.575ZM120.996 272.179C120.587 272.179 120.217 272.087 119.886 271.903C119.555 271.715 119.296 271.452 119.107 271.116C118.918 270.775 118.823 270.382 118.823 269.935C118.823 269.495 118.92 269.104 119.115 268.763C119.309 268.421 119.574 268.159 119.91 267.975C120.246 267.792 120.621 267.7 121.035 267.7C121.45 267.7 121.825 267.792 122.161 267.975C122.497 268.159 122.762 268.421 122.956 268.763C123.15 269.104 123.247 269.495 123.247 269.935C123.247 270.376 123.148 270.767 122.948 271.108C122.749 271.45 122.476 271.715 122.13 271.903C121.788 272.087 121.411 272.179 120.996 272.179ZM120.996 271.4C121.227 271.4 121.442 271.345 121.641 271.234C121.846 271.124 122.011 270.959 122.137 270.738C122.263 270.518 122.326 270.25 122.326 269.935C122.326 269.621 122.266 269.356 122.145 269.14C122.025 268.92 121.865 268.755 121.665 268.644C121.466 268.534 121.251 268.479 121.02 268.479C120.789 268.479 120.574 268.534 120.374 268.644C120.18 268.755 120.025 268.92 119.91 269.14C119.794 269.356 119.736 269.621 119.736 269.935C119.736 270.403 119.855 270.765 120.091 271.022C120.332 271.274 120.634 271.4 120.996 271.4Z" fill="white"/>
<path d="M64.0064 287.732H62.6603L58.6101 281.604V287.732H57.264V279.514H58.6101L62.6603 285.63V279.514H64.0064V287.732ZM71.6663 281.226V287.732H70.3202V286.965C70.1076 287.232 69.8282 287.445 69.4818 287.602C69.1433 287.752 68.7812 287.827 68.3955 287.827C67.8838 287.827 67.4233 287.72 67.0139 287.508C66.6124 287.295 66.2936 286.98 66.0575 286.563C65.8292 286.146 65.715 285.642 65.715 285.052V281.226H67.0493V284.851C67.0493 285.434 67.195 285.882 67.4862 286.197C67.7775 286.504 68.175 286.658 68.6788 286.658C69.1827 286.658 69.5802 286.504 69.8715 286.197C70.1706 285.882 70.3202 285.434 70.3202 284.851V281.226H71.6663ZM74.7885 278.994V287.732H73.4424V278.994H74.7885ZM77.9019 278.994V287.732H76.5558V278.994H77.9019ZM80.3541 280.364C80.1101 280.364 79.9054 280.281 79.7401 280.116C79.5748 279.951 79.4921 279.746 79.4921 279.502C79.4921 279.258 79.5748 279.053 79.7401 278.888C79.9054 278.723 80.1101 278.64 80.3541 278.64C80.5903 278.64 80.791 278.723 80.9563 278.888C81.1216 279.053 81.2043 279.258 81.2043 279.502C81.2043 279.746 81.1216 279.951 80.9563 280.116C80.791 280.281 80.5903 280.364 80.3541 280.364ZM81.0154 281.226V287.732H79.6692V281.226H81.0154ZM84.3531 282.324V285.926C84.3531 286.17 84.4082 286.347 84.5185 286.457C84.6365 286.559 84.8333 286.61 85.1089 286.61H85.9354V287.732H84.8727C84.2665 287.732 83.8021 287.59 83.4793 287.307C83.1566 287.024 82.9952 286.563 82.9952 285.926V282.324H82.2277V281.226H82.9952V279.608H84.3531V281.226H85.9354V282.324H84.3531ZM89.9982 287.838C89.3842 287.838 88.8292 287.701 88.3333 287.425C87.8373 287.142 87.4477 286.748 87.1643 286.244C86.8809 285.733 86.7392 285.142 86.7392 284.473C86.7392 283.812 86.8848 283.225 87.1761 282.714C87.4673 282.202 87.8649 281.808 88.3687 281.533C88.8725 281.257 89.4353 281.12 90.0572 281.12C90.6791 281.12 91.242 281.257 91.7458 281.533C92.2496 281.808 92.6471 282.202 92.9384 282.714C93.2297 283.225 93.3753 283.812 93.3753 284.473C93.3753 285.134 93.2257 285.721 92.9266 286.233C92.6274 286.744 92.2181 287.142 91.6985 287.425C91.1869 287.701 90.6201 287.838 89.9982 287.838ZM89.9982 286.669C90.3446 286.669 90.6673 286.587 90.9665 286.421C91.2735 286.256 91.5214 286.008 91.7104 285.678C91.8993 285.347 91.9937 284.945 91.9937 284.473C91.9937 284.001 91.9032 283.603 91.7222 283.281C91.5411 282.95 91.301 282.702 91.0019 282.537C90.7027 282.371 90.38 282.289 90.0336 282.289C89.6872 282.289 89.3645 282.371 89.0654 282.537C88.7741 282.702 88.5419 282.95 88.3687 283.281C88.1955 283.603 88.1089 284.001 88.1089 284.473C88.1089 285.174 88.286 285.717 88.6403 286.103C89.0024 286.481 89.455 286.669 89.9982 286.669Z" fill="white"/>
<path opacity="0.8" d="M161.172 266.637L159.118 272.108H158.078L156.016 266.637H156.976L158.598 271.187L160.228 266.637H161.172ZM161.624 269.92C161.624 269.484 161.713 269.098 161.891 268.763C162.075 268.427 162.322 268.167 162.631 267.983C162.946 267.794 163.292 267.7 163.67 267.7C164.011 267.7 164.308 267.768 164.56 267.905C164.817 268.036 165.022 268.201 165.174 268.4V267.771H166.079V272.108H165.174V271.463C165.022 271.667 164.814 271.838 164.552 271.974C164.29 272.111 163.99 272.179 163.655 272.179C163.282 272.179 162.941 272.085 162.631 271.896C162.322 271.701 162.075 271.434 161.891 271.093C161.713 270.746 161.624 270.355 161.624 269.92ZM165.174 269.935C165.174 269.636 165.111 269.377 164.985 269.156C164.864 268.936 164.704 268.768 164.505 268.652C164.305 268.537 164.09 268.479 163.859 268.479C163.628 268.479 163.413 268.537 163.214 268.652C163.014 268.763 162.852 268.928 162.726 269.148C162.605 269.363 162.545 269.621 162.545 269.92C162.545 270.219 162.605 270.481 162.726 270.707C162.852 270.933 163.014 271.106 163.214 271.226C163.418 271.342 163.634 271.4 163.859 271.4C164.09 271.4 164.305 271.342 164.505 271.226C164.704 271.111 164.864 270.943 164.985 270.723C165.111 270.497 165.174 270.235 165.174 269.935ZM168.155 266.283V272.108H167.258V266.283H168.155ZM169.79 267.196C169.627 267.196 169.491 267.141 169.381 267.031C169.27 266.921 169.215 266.784 169.215 266.621C169.215 266.459 169.27 266.322 169.381 266.212C169.491 266.102 169.627 266.047 169.79 266.047C169.947 266.047 170.081 266.102 170.191 266.212C170.302 266.322 170.357 266.459 170.357 266.621C170.357 266.784 170.302 266.921 170.191 267.031C170.081 267.141 169.947 267.196 169.79 267.196ZM170.231 267.771V272.108H169.333V267.771H170.231ZM171.11 269.92C171.11 269.484 171.199 269.098 171.378 268.763C171.561 268.427 171.808 268.167 172.118 267.983C172.432 267.794 172.781 267.7 173.164 267.7C173.448 267.7 173.726 267.763 173.999 267.889C174.277 268.009 174.497 268.172 174.66 268.377V266.283H175.565V272.108H174.66V271.455C174.513 271.665 174.309 271.838 174.046 271.974C173.789 272.111 173.492 272.179 173.157 272.179C172.779 272.179 172.432 272.085 172.118 271.896C171.808 271.701 171.561 271.434 171.378 271.093C171.199 270.746 171.11 270.355 171.11 269.92ZM174.66 269.935C174.66 269.636 174.597 269.377 174.471 269.156C174.351 268.936 174.19 268.768 173.991 268.652C173.792 268.537 173.576 268.479 173.346 268.479C173.115 268.479 172.899 268.537 172.7 268.652C172.501 268.763 172.338 268.928 172.212 269.148C172.091 269.363 172.031 269.621 172.031 269.92C172.031 270.219 172.091 270.481 172.212 270.707C172.338 270.933 172.501 271.106 172.7 271.226C172.905 271.342 173.12 271.4 173.346 271.4C173.576 271.4 173.792 271.342 173.991 271.226C174.19 271.111 174.351 270.943 174.471 270.723C174.597 270.497 174.66 270.235 174.66 269.935ZM176.445 269.92C176.445 269.484 176.534 269.098 176.713 268.763C176.896 268.427 177.143 268.167 177.453 267.983C177.768 267.794 178.114 267.7 178.492 267.7C178.833 267.7 179.129 267.768 179.381 267.905C179.638 268.036 179.843 268.201 179.995 268.4V267.771H180.901V272.108H179.995V271.463C179.843 271.667 179.636 271.838 179.373 271.974C179.111 272.111 178.812 272.179 178.476 272.179C178.103 272.179 177.762 272.085 177.453 271.896C177.143 271.701 176.896 271.434 176.713 271.093C176.534 270.746 176.445 270.355 176.445 269.92ZM179.995 269.935C179.995 269.636 179.932 269.377 179.806 269.156C179.686 268.936 179.526 268.768 179.326 268.652C179.127 268.537 178.912 268.479 178.681 268.479C178.45 268.479 178.235 268.537 178.035 268.652C177.836 268.763 177.673 268.928 177.547 269.148C177.426 269.363 177.366 269.621 177.366 269.92C177.366 270.219 177.426 270.481 177.547 270.707C177.673 270.933 177.836 271.106 178.035 271.226C178.24 271.342 178.455 271.4 178.681 271.4C178.912 271.4 179.127 271.342 179.326 271.226C179.526 271.111 179.686 270.943 179.806 270.723C179.932 270.497 179.995 270.235 179.995 269.935ZM181.78 269.92C181.78 269.484 181.869 269.098 182.048 268.763C182.231 268.427 182.478 268.167 182.788 267.983C183.103 267.794 183.452 267.7 183.835 267.7C184.118 267.7 184.396 267.763 184.669 267.889C184.947 268.009 185.168 268.172 185.33 268.377V266.283H186.236V272.108H185.33V271.455C185.183 271.665 184.979 271.838 184.716 271.974C184.459 272.111 184.163 272.179 183.827 272.179C183.449 272.179 183.103 272.085 182.788 271.896C182.478 271.701 182.231 271.434 182.048 271.093C181.869 270.746 181.78 270.355 181.78 269.92ZM185.33 269.935C185.33 269.636 185.267 269.377 185.141 269.156C185.021 268.936 184.861 268.768 184.661 268.652C184.462 268.537 184.247 268.479 184.016 268.479C183.785 268.479 183.57 268.537 183.37 268.652C183.171 268.763 183.008 268.928 182.882 269.148C182.762 269.363 182.701 269.621 182.701 269.92C182.701 270.219 182.762 270.481 182.882 270.707C183.008 270.933 183.171 271.106 183.37 271.226C183.575 271.342 183.79 271.4 184.016 271.4C184.247 271.4 184.462 271.342 184.661 271.226C184.861 271.111 185.021 270.943 185.141 270.723C185.267 270.497 185.33 270.235 185.33 269.935ZM191.39 269.833C191.39 269.996 191.379 270.143 191.358 270.274H188.044C188.07 270.62 188.199 270.898 188.43 271.108C188.661 271.318 188.944 271.423 189.28 271.423C189.763 271.423 190.104 271.221 190.303 270.817H191.272C191.14 271.216 190.902 271.544 190.555 271.801C190.214 272.053 189.789 272.179 189.28 272.179C188.865 272.179 188.493 272.087 188.162 271.903C187.837 271.715 187.58 271.452 187.391 271.116C187.207 270.775 187.115 270.382 187.115 269.935C187.115 269.489 187.204 269.098 187.383 268.763C187.567 268.421 187.821 268.159 188.147 267.975C188.477 267.792 188.855 267.7 189.28 267.7C189.689 267.7 190.054 267.789 190.374 267.967C190.694 268.146 190.944 268.398 191.122 268.723C191.301 269.043 191.39 269.413 191.39 269.833ZM190.453 269.55C190.448 269.219 190.33 268.954 190.099 268.755C189.868 268.555 189.582 268.456 189.241 268.456C188.931 268.456 188.666 268.555 188.446 268.755C188.225 268.949 188.094 269.214 188.052 269.55H190.453Z" fill="white"/>
<path d="M156.575 283.316C156.575 281.954 156.803 280.891 157.26 280.128C157.724 279.356 158.519 278.971 159.645 278.971C160.771 278.971 161.562 279.356 162.018 280.128C162.483 280.891 162.715 281.954 162.715 283.316C162.715 284.694 162.483 285.772 162.018 286.551C161.562 287.323 160.771 287.709 159.645 287.709C158.519 287.709 157.724 287.323 157.26 286.551C156.803 285.772 156.575 284.694 156.575 283.316ZM161.393 283.316C161.393 282.678 161.349 282.139 161.263 281.698C161.184 281.257 161.019 280.899 160.767 280.624C160.515 280.34 160.141 280.199 159.645 280.199C159.149 280.199 158.775 280.34 158.523 280.624C158.271 280.899 158.102 281.257 158.016 281.698C157.937 282.139 157.897 282.678 157.897 283.316C157.897 283.977 157.937 284.532 158.016 284.981C158.094 285.43 158.26 285.792 158.511 286.067C158.771 286.343 159.149 286.481 159.645 286.481C160.141 286.481 160.515 286.343 160.767 286.067C161.027 285.792 161.196 285.43 161.275 284.981C161.353 284.532 161.393 283.977 161.393 283.316ZM165.816 285.394C165.895 285.788 166.064 286.087 166.324 286.292C166.584 286.496 166.934 286.599 167.375 286.599C167.934 286.599 168.343 286.378 168.603 285.937C168.863 285.497 168.993 284.745 168.993 283.682C168.804 283.95 168.536 284.158 168.19 284.308C167.851 284.45 167.481 284.52 167.08 284.52C166.568 284.52 166.103 284.418 165.686 284.213C165.269 284.001 164.938 283.69 164.694 283.281C164.458 282.863 164.34 282.36 164.34 281.769C164.34 280.903 164.592 280.214 165.096 279.703C165.608 279.183 166.308 278.923 167.198 278.923C168.268 278.923 169.028 279.282 169.477 279.998C169.933 280.706 170.162 281.797 170.162 283.269C170.162 284.284 170.075 285.115 169.902 285.76C169.736 286.406 169.445 286.894 169.028 287.224C168.611 287.555 168.032 287.72 167.292 287.72C166.45 287.72 165.8 287.5 165.344 287.059C164.887 286.618 164.631 286.063 164.576 285.394H165.816ZM167.316 283.387C167.788 283.387 168.158 283.241 168.426 282.95C168.701 282.651 168.839 282.257 168.839 281.769C168.839 281.226 168.693 280.805 168.402 280.506C168.119 280.199 167.729 280.045 167.233 280.045C166.737 280.045 166.344 280.203 166.052 280.517C165.769 280.824 165.627 281.23 165.627 281.734C165.627 282.214 165.765 282.611 166.041 282.926C166.324 283.233 166.749 283.387 167.316 283.387ZM176.181 276.585L172.969 289.799H171.647L174.847 276.585H176.181ZM178.444 285.902C179.2 285.249 179.794 284.713 180.227 284.296C180.668 283.871 181.034 283.43 181.325 282.974C181.617 282.517 181.762 282.06 181.762 281.604C181.762 281.132 181.648 280.762 181.42 280.494C181.199 280.226 180.849 280.092 180.369 280.092C179.904 280.092 179.542 280.242 179.282 280.541C179.031 280.832 178.897 281.226 178.881 281.722H177.582C177.606 280.824 177.873 280.14 178.385 279.667C178.905 279.187 179.562 278.947 180.357 278.947C181.215 278.947 181.884 279.183 182.364 279.656C182.852 280.128 183.096 280.758 183.096 281.545C183.096 282.112 182.951 282.659 182.66 283.186C182.376 283.706 182.034 284.174 181.632 284.591C181.239 285.001 180.735 285.477 180.121 286.02L179.589 286.492H183.333V287.614H177.594V286.634L178.444 285.902ZM185.968 283.233C185.149 282.824 184.74 282.178 184.74 281.297C184.74 280.872 184.846 280.482 185.058 280.128C185.271 279.774 185.59 279.494 186.015 279.289C186.44 279.077 186.959 278.971 187.573 278.971C188.18 278.971 188.695 279.077 189.12 279.289C189.553 279.494 189.876 279.774 190.089 280.128C190.301 280.482 190.407 280.872 190.407 281.297C190.407 281.738 190.293 282.127 190.065 282.466C189.844 282.796 189.549 283.052 189.179 283.233C189.628 283.399 189.982 283.67 190.242 284.048C190.502 284.418 190.632 284.855 190.632 285.359C190.632 285.87 190.502 286.323 190.242 286.717C189.982 287.11 189.62 287.413 189.156 287.626C188.691 287.838 188.164 287.945 187.573 287.945C186.983 287.945 186.456 287.838 185.991 287.626C185.535 287.413 185.176 287.11 184.917 286.717C184.657 286.323 184.527 285.87 184.527 285.359C184.527 284.847 184.657 284.406 184.917 284.036C185.176 283.666 185.527 283.399 185.968 283.233ZM189.12 281.462C189.12 281.021 188.983 280.683 188.707 280.447C188.431 280.21 188.054 280.092 187.573 280.092C187.101 280.092 186.727 280.21 186.452 280.447C186.176 280.683 186.038 281.025 186.038 281.474C186.038 281.868 186.18 282.19 186.463 282.442C186.755 282.686 187.125 282.808 187.573 282.808C188.022 282.808 188.392 282.682 188.683 282.43C188.975 282.178 189.12 281.856 189.12 281.462ZM187.573 283.824C187.054 283.824 186.629 283.954 186.298 284.213C185.975 284.465 185.814 284.831 185.814 285.312C185.814 285.76 185.971 286.126 186.286 286.41C186.601 286.685 187.03 286.823 187.573 286.823C188.109 286.823 188.53 286.681 188.837 286.398C189.152 286.114 189.309 285.752 189.309 285.312C189.309 284.839 189.148 284.473 188.825 284.213C188.51 283.954 188.093 283.824 187.573 283.824Z" fill="white"/>
<g filter="url(#filter0_b_190_1409)">
<ellipse cx="301.801" cy="277.675" rx="12.2388" ry="12.2388" fill="#FAFAFA" fill-opacity="0.3"/>
</g>
<g filter="url(#filter1_b_190_1409)">
<path d="M329.216 277.675C329.216 284.435 323.736 289.914 316.977 289.914C310.218 289.914 304.738 284.435 304.738 277.675C304.738 270.916 310.218 265.437 316.977 265.437C323.736 265.437 329.216 270.916 329.216 277.675Z" fill="#FAFAFA" fill-opacity="0.7"/>
</g>
<g filter="url(#filter2_b_190_1409)">
<path d="M309.389 268.072C306.556 270.314 304.738 273.782 304.738 277.675C304.738 281.568 306.556 285.037 309.389 287.279C312.222 285.037 314.04 281.568 314.04 277.675C314.04 273.782 312.222 270.314 309.389 268.072Z" fill="#FAFAFA" fill-opacity="0.6"/>
</g>
</g>
<defs>
<filter id="filter0_b_190_1409" x="256.762" y="232.637" width="90.0777" height="90.0777" filterUnits="userSpaceOnUse" color-interpolation-filters="sRGB">
<feFlood flood-opacity="0" result="BackgroundImageFix"/>
<feGaussianBlur in="BackgroundImageFix" stdDeviation="16.4"/>
<feComposite in2="SourceAlpha" operator="in" result="effect1_backgroundBlur_190_1409"/>
<feBlend mode="normal" in="SourceGraphic" in2="effect1_backgroundBlur_190_1409" result="shape"/>
</filter>
<filter id="filter1_b_190_1409" x="271.938" y="232.637" width="90.0777" height="90.0777" filterUnits="userSpaceOnUse" color-interpolation-filters="sRGB">
<feFlood flood-opacity="0" result="BackgroundImageFix"/>
<feGaussianBlur in="BackgroundImageFix" stdDeviation="16.4"/>
<feComposite in2="SourceAlpha" operator="in" result="effect1_backgroundBlur_190_1409"/>
<feBlend mode="normal" in="SourceGraphic" in2="effect1_backgroundBlur_190_1409" result="shape"/>
</filter>
<filter id="filter2_b_190_1409" x="271.938" y="235.272" width="74.9015" height="84.8064" filterUnits="userSpaceOnUse" color-interpolation-filters="sRGB">
<feFlood flood-opacity="0" result="BackgroundImageFix"/>
<feGaussianBlur in="BackgroundImageFix" stdDeviation="16.4"/>
<feComposite in2="SourceAlpha" operator="in" result="effect1_backgroundBlur_190_1409"/>
<feBlend mode="normal" in="SourceGraphic" in2="effect1_backgroundBlur_190_1409" result="shape"/>
</filter>
<linearGradient id="paint0_linear_190_1409" x1="-5.736" y1="104.4" x2="400.157" y2="339.07" gradientUnits="userSpaceOnUse">
<stop stop-color="#500DC3"/>
<stop offset="1" stop-color="#7C3AFC"/>
</linearGradient>
<clipPath id="clip0_190_1409">
<path d="M0 24C0 10.7452 10.7452 0 24 0H366C379.255 0 390 10.7452 390 24V396H0V24Z" fill="white"/>
</clipPath>
<clipPath id="clip1_190_1409">
<rect width="20.992" height="20.992" fill="white" transform="translate(310.128 150)"/>
</clipPath>
</defs>
</svg>
