<svg width="32" height="32" viewBox="0 0 32 32" fill="none" xmlns="http://www.w3.org/2000/svg">
<path d="M16 10.6667V28M16 10.6667C15.5177 8.6792 14.6873 6.98008 13.617 5.79088C12.5467 4.60168 11.2862 3.97759 10 4C9.11595 4 8.2681 4.35119 7.64298 4.97631C7.01786 5.60143 6.66667 6.44928 6.66667 7.33333C6.66667 8.21739 7.01786 9.06523 7.64298 9.69035C8.2681 10.3155 9.11595 10.6667 10 10.6667M16 10.6667C16.4823 8.6792 17.3127 6.98008 18.383 5.79088C19.4533 4.60168 20.7138 3.97759 22 4C22.8841 4 23.7319 4.35119 24.357 4.97631C24.9821 5.60143 25.3333 6.44928 25.3333 7.33333C25.3333 8.21739 24.9821 9.06523 24.357 9.69035C23.7319 10.3155 22.8841 10.6667 22 10.6667M25.3333 16V25.3333C25.3333 26.0406 25.0524 26.7189 24.5523 27.2189C24.0522 27.719 23.3739 28 22.6667 28H9.33333C8.62609 28 7.94781 27.719 7.44772 27.2189C6.94762 26.7189 6.66667 26.0406 6.66667 25.3333V16M5.33333 10.6667H26.6667C27.403 10.6667 28 11.2636 28 12V14.6667C28 15.403 27.403 16 26.6667 16H5.33333C4.59695 16 4 15.403 4 14.6667V12C4 11.2636 4.59695 10.6667 5.33333 10.6667Z" stroke="white" stroke-width="2.66667" stroke-linecap="round" stroke-linejoin="round"/>
</svg>
