<svg width="18" height="21" viewBox="0 0 18 21" fill="none" xmlns="http://www.w3.org/2000/svg">
<path d="M1 0.434723C1.17597 0.434859 1.34879 0.481426 1.501 0.569723L17.505 9.83572C17.6565 9.92363 17.7823 10.0498 17.8698 10.2016C17.9572 10.3534 18.0032 10.5255 18.0032 10.7007C18.0032 10.8759 17.9572 11.048 17.8698 11.1998C17.7823 11.3516 17.6565 11.4778 17.505 11.5657L1.501 20.8317C1.34903 20.9197 1.17657 20.9661 1.00098 20.9663C0.825381 20.9664 0.652835 20.9204 0.500694 20.8327C0.348553 20.745 0.22218 20.6188 0.134287 20.4668C0.0463936 20.3148 7.85313e-05 20.1423 0 19.9667V1.43472C0 1.16951 0.105357 0.915152 0.292893 0.727616C0.48043 0.54008 0.734784 0.434723 1 0.434723ZM9.292 12.1147L4.794 16.6127L10.493 13.3137L9.293 12.1137L9.292 12.1147ZM2 4.81872V16.5787L7.88 10.6987L2 4.81872ZM12.284 9.12072L10.706 10.7007L12.284 12.2777L15.008 10.7007L12.283 9.12172L12.284 9.12072ZM4.794 4.78472L9.294 9.28472L10.493 8.08472L4.794 4.78472Z" fill="#6729FF"/>
</svg>
