<svg width="32" height="32" viewBox="0 0 32 32" fill="none" xmlns="http://www.w3.org/2000/svg">
<path d="M7.99935 16H8.01268M23.9993 16H24.0127M5.33268 8H26.666C28.1388 8 29.3327 9.19391 29.3327 10.6667V21.3333C29.3327 22.8061 28.1388 24 26.666 24H5.33268C3.85992 24 2.66602 22.8061 2.66602 21.3333V10.6667C2.66602 9.19391 3.85992 8 5.33268 8ZM18.666 16C18.666 17.4728 17.4721 18.6667 15.9993 18.6667C14.5266 18.6667 13.3327 17.4728 13.3327 16C13.3327 14.5272 14.5266 13.3333 15.9993 13.3333C17.4721 13.3333 18.666 14.5272 18.666 16Z" stroke="#6729FF" stroke-width="2.66667" stroke-linecap="round" stroke-linejoin="round"/>
</svg>
