<svg width="32" height="32" viewBox="0 0 32 32" fill="none" xmlns="http://www.w3.org/2000/svg">
<path d="M22.6003 18.6667H22.6136M9.26693 9.33333H25.2669C25.9742 9.33333 26.6524 9.61428 27.1525 10.1144C27.6526 10.6145 27.9336 11.2928 27.9336 12V25.3333C27.9336 26.0406 27.6526 26.7189 27.1525 27.219C26.6524 27.719 25.9742 28 25.2669 28H6.60026C5.89302 28 5.21474 27.719 4.71464 27.219C4.21455 26.7189 3.93359 26.0406 3.93359 25.3333V6.66667C3.93359 5.95942 4.21455 5.28115 4.71464 4.78105C5.21474 4.28095 5.89302 4 6.60026 4H25.2669" stroke="#6729FF" stroke-width="2.66667" stroke-linecap="round" stroke-linejoin="round"/>
</svg>
