<svg width="19" height="23" viewBox="0 0 19 23" fill="none" xmlns="http://www.w3.org/2000/svg">
<path d="M13.2816 7.96994C12.8086 7.93294 12.3006 8.04594 11.5226 8.34294C11.5886 8.31794 10.7806 8.63294 10.5546 8.71294C10.0526 8.88794 9.63955 8.98394 9.17655 8.98394C8.71855 8.98394 8.29655 8.89194 7.81055 8.72894C7.65555 8.67594 7.49955 8.61894 7.30555 8.54294C7.22355 8.51094 6.92355 8.39094 6.85755 8.36594C6.20955 8.11194 5.84455 8.01594 5.54155 8.02394C4.38955 8.03894 3.29855 8.70394 2.66555 9.80594C1.37355 12.0499 2.08855 16.1049 3.97755 18.8369C4.98355 20.2809 5.53355 20.7969 5.75555 20.7899C5.97755 20.7799 6.14055 20.7329 6.53855 20.5649L6.70555 20.4939C7.71055 20.0649 8.41555 19.8759 9.47655 19.8759C10.4976 19.8759 11.1796 20.0619 12.1446 20.4779L12.3126 20.5499C12.7106 20.7199 12.8546 20.7579 13.1046 20.7519C13.4626 20.7469 13.9036 20.3349 14.8826 18.8979C15.1506 18.5069 15.3876 18.0949 15.5926 17.6779C15.4578 17.567 15.3271 17.4512 15.2006 17.3309C13.9116 16.1029 13.1146 14.4469 13.0926 12.4009C13.071 10.8871 13.5686 9.41155 14.5026 8.21994C14.1106 8.07523 13.6989 7.99094 13.2816 7.96994ZM13.4366 5.97594C14.1446 6.02394 16.1726 6.23994 17.4926 8.17194C17.3846 8.23194 15.0686 9.57594 15.0926 12.3839C15.1286 15.7439 18.0326 16.8599 18.0686 16.8719C18.0446 16.9559 17.6006 18.4679 16.5326 20.0279C15.6086 21.3839 14.6486 22.7279 13.1366 22.7519C11.6486 22.7879 11.1686 21.8759 9.47655 21.8759C7.77255 21.8759 7.24455 22.7279 5.84055 22.7879C4.37655 22.8359 3.27255 21.3239 2.33655 19.9799C0.428552 17.2199 -1.02345 12.2039 0.932552 8.80794C1.90455 7.11594 3.63255 6.04794 5.51655 6.02394C6.94455 5.98794 8.30055 6.98394 9.17655 6.98394C10.0406 6.98394 11.5886 5.83194 13.4366 5.97594ZM12.2966 4.15194C11.5166 5.08794 10.2446 5.81994 9.00855 5.72394C8.84055 4.45194 9.46455 3.11994 10.1846 2.29194C10.9886 1.35594 12.3326 0.659938 13.4486 0.611938C13.5926 1.90794 13.0766 3.21594 12.2966 4.15194Z" fill="#6729FF"/>
</svg>
